<?xml version="1.0" encoding="utf-8"?>
<!-- Generator: Adobe Illustrator 19.0.1, SVG Export Plug-In . SVG Version: 6.00 Build 0)  -->
<svg version="1.1" xmlns="http://www.w3.org/2000/svg" xmlns:xlink="http://www.w3.org/1999/xlink" x="0px" y="0px"
	 viewBox="-753.2 636.5 200 170" style="enable-background:new -753.2 636.5 200 170;" xml:space="preserve">
<style type="text/css">
	.st0{fill:#444444;}
	.st1{display:none;}
	.st2{display:inline;fill:none;stroke:#BCBA40;stroke-width:4;stroke-linecap:round;stroke-linejoin:round;stroke-miterlimit:10;}
	.st3{display:inline;}
	.st4{fill:none;stroke:#BCBA40;stroke-width:4;stroke-linecap:round;stroke-linejoin:round;stroke-miterlimit:10;}
	.st5{fill:none;}
	.st6{fill:#FFFFFF;}
	.st7{font-family:'HelveticaNeue-Medium';}
	.st8{font-size:14px;}
	.st9{fill:none;stroke:#BCBA40;stroke-width:4;stroke-linecap:round;stroke-miterlimit:10;stroke-dasharray:12.0321,12.0321;}
	.st10{fill:#444444;stroke:#BCBA40;}
	.st11{fill:#444444;stroke:#BCBA40;stroke-linecap:round;stroke-linejoin:round;stroke-miterlimit:10;}
	.st12{fill:#444444;stroke:#BCBA40;stroke-miterlimit:10;}
	.st13{fill:none;stroke:#BCBA40;stroke-miterlimit:10;}
	.st14{display:inline;fill:none;stroke:#BCBA40;stroke-miterlimit:10;}
	.st15{fill:none;stroke:#BCBA40;stroke-width:0.5;}
	.st16{fill:none;stroke:#BCBA40;stroke-width:0.75;}
	.st17{fill:#BCBA40;}
</style>
<g id="Layer_2">
	<rect x="-753.2" y="636.5" class="st0" width="200" height="170"/>
</g>
<g id="Layer_1">
	<g id="Layer_1_1_">
		<g>
			<g class="st1">
				<path class="st2" d="M-718.4,676.9c0.7-0.8,47.6-14.8,47.6-14.8l48.9,16.2"/>
				<line class="st2" x1="-671.1" y1="624.8" x2="-718.9" y2="676.5"/>
				<line class="st2" x1="-670.7" y1="625.1" x2="-673.3" y2="599.2"/>
				<path class="st2" d="M-719.4,611.8c3.1-2.1,46.1-12.6,46.1-12.6l51.4,12.6l-48.7,13.6L-719.4,611.8z"/>
				<polyline class="st2" points="-621.9,611.8 -621.9,678.2 -670.7,692.5 -670.7,625.4 				"/>
				<polyline class="st2" points="-719.4,611.8 -719.4,676.8 -670.7,692.5 				"/>
				<g class="st3">
					<path class="st4" d="M-676.6,750c0.7-0.8,47.6-14.8,47.6-14.8l48.9,16.2"/>
					<line class="st4" x1="-629.4" y1="697.8" x2="-677.2" y2="749.5"/>
					<line class="st4" x1="-628.9" y1="698.2" x2="-631.5" y2="672.3"/>
					<path class="st4" d="M-677.6,684.8c3.1-2.1,46.1-12.6,46.1-12.6l51.3,12.6l-48.7,13.7L-677.6,684.8z"/>
					<polyline class="st4" points="-580.2,684.8 -580.2,751.2 -628.9,765.5 -628.9,698.5 					"/>
					<polyline class="st4" points="-677.6,684.8 -677.6,749.8 -628.9,765.5 					"/>
				</g>
				<g class="st3">
					<path class="st4" d="M-767.1,739.8c0.7-0.8,47.6-14.8,47.6-14.8l48.9,16.2"/>
					<line class="st4" x1="-719.9" y1="687.7" x2="-767.7" y2="739.4"/>
					<line class="st4" x1="-719.4" y1="688.1" x2="-722" y2="662.1"/>
					<path class="st4" d="M-768.1,674.7c3.1-2.1,46.1-12.6,46.1-12.6l51.3,12.6l-48.7,13.6L-768.1,674.7z"/>
					<polyline class="st4" points="-670.7,674.7 -670.7,741.1 -719.4,755.4 -719.4,688.3 					"/>
					<polyline class="st4" points="-768.1,674.7 -768.1,739.7 -719.4,755.4 					"/>
				</g>
			</g>
			<rect x="-777.3" y="787" class="st5" width="210.6" height="39"/>
			<text transform="matrix(1 0 0 1 -729.1389 786.9556)" class="st6 st7 st8">Anatomy Labs Interface</text>
			<g>
				<path class="st9" d="M-560.9,797h-181.8c-2.2,0-4-3.3-4-7.4V647.4c0-4.1,1.8-7.4,4-7.4h181.8c2.2,0,4,3.3,4,7.4v142.2
					C-556.9,793.6-558.7,797-560.9,797z"/>
			</g>
		</g>
	</g>
	<g id="Layer_14">
		<path class="st10" d="M-678.5,685.5c0.9-0.6,2-1.1,3.4-1.4c6.5-1.5,7.9-4.7,13.7-5.9c0.2-1.2-0.3-2.7,0.6-3.6
			c-0.4-0.5-0.9-1-1.1-2.1c-0.1-1,0-2.4-1.3-2.8c-0.5-0.1-0.7-2.7-1.5-4.1c-0.9-1.3-1.2-3.9,1.3-2.4c-0.9-6.2,0.9-12.8,8.9-12.8
			c8,0,9.7,6.8,8.9,12.8c2.5-1.5,2.3,1.1,1.3,2.4c-0.9,1.3-1,4-1.5,4.1c-1.3,0.4-1.2,1.8-1.3,2.8c-0.1,1.1-0.6,1.5-1,2.1
			c0.9,0.9,0.4,2.4,0.6,3.6c5.8,1.2,7.2,4.4,13.8,5.9c4.7,1.1,6.2,4,6.8,7.9c0.7,4.2,3.9,7.6,3.8,12c-4.8,2.3-3.8,5.8-11,3.3
			c-0.3,1.9,0.3,3.8-1,6.4c-1.8,3.8-1.2,7.6-2.9,11.5c-1.9,4.2,1.9,5.6,2.4,10.9c0.7,6.6,5.2,11.9,4.6,18.8
			c-0.5,5.4,0.5,10.4-0.9,17H-653c-0.3-1.9-0.5-3.5-0.6-5c0-0.4-1.6-0.4-1.6,0c-0.1,1.5-0.3,3-0.6,5h-21.3c-1.4-6.6-0.5-11.5-1-17
			c-0.6-7,4-12.3,4.6-18.8c0.5-5.4,4.3-6.8,2.5-10.9c-1.7-3.8-1-7.7-2.9-11.5c-1.3-2.6-0.7-4.5-1-6.4"/>
		<g>
			<path class="st11" d="M-672.4,692.4c0,0,4,11,9.8,8.4c5.8-2.6,6.8-2.9,6.6-1.5c-0.2,1.4,0.4,19.8,0.4,19.8s-3.7-1.1-4.5-0.4
				c-0.8,0.6-6.1,7.8-7,8c-0.9,0.3-3.7-1.3-3.4-2s3,1.1,3.2,0.7c0.3-0.5,3.2-3,3.6-3.8c0.4-0.9-3.8,5-7.2-1.1c0,0-0.9-2.7,1.5-0.7
				c2.4,2.1,7,0.3,8.2-2.8c0,0-3.5,0.6-5,1.7c-1.5,1-6.8-4.9-6.6-8c0.1-1.8,1.9,1.9,3.2,3.9c1.1,1.8,1,3,5,1.3c4.1-1.7,3.7-4,3.7-4
				s-3.4,0.9-4.8,1.8c-1.4,0.9-8.1-5-7.7-8.6c0.4-3.6,2.2,2.3,2.3,3.1c0.1,0.7,3.6,7.3,11.4,0.3c0,0,2.5-2.7-0.1-2
				s-6.6,6.9-13.5-6.9c0,0-0.7-3.4,0.9-1s2.3,6.2,4.3,6.8s6.6,2.4,9.5-1.5c2.9-3.8,1.4-4.4-1.5-2.5s-6,2.3-8.4,0
				C-671.1,699.2-674.4,694.3-672.4,692.4z"/>
			<path class="st11" d="M-638.8,692.4c0,0-4,11-9.8,8.4c-5.8-2.6-6.8-2.9-6.6-1.5c0.2,1.4-0.4,19.8-0.4,19.8s3.7-1.1,4.5-0.4
				c0.8,0.6,6.1,7.8,7,8c0.9,0.3,3.7-1.3,3.4-2s-3,1.1-3.2,0.7c-0.3-0.5-3.2-3-3.6-3.8c-0.4-0.9,3.8,5,7.2-1.1c0,0,0.9-2.7-1.5-0.7
				c-2.4,2.1-7,0.3-8.2-2.8c0,0,3.5,0.6,5,1.7c1.5,1,6.8-4.9,6.6-8c-0.1-1.8-1.9,1.9-3.2,3.9c-1.1,1.8-1,3-5,1.3
				c-4.1-1.7-3.7-4-3.7-4s3.4,0.9,4.8,1.8s8.1-5,7.7-8.6s-2.2,2.3-2.3,3.1c-0.1,0.7-3.6,7.3-11.4,0.3c0,0-2.5-2.7,0.1-2
				s6.6,6.9,13.5-6.9c0,0,0.7-3.4-0.9-1c-1.7,2.4-2.3,6.2-4.3,6.8s-6.6,2.4-9.5-1.5c-2.9-3.8-1.4-4.4,1.5-2.5c3,1.9,6,2.3,8.4,0
				C-640.1,699.2-636.8,694.3-638.8,692.4z"/>
			<path class="st11" d="M-651.3,712.4c-0.5-1.6-1.5-0.3-1.7-0.7c-0.2-0.3,0.7-0.8,0.5-1c-0.2-0.2-1.7,0.2-1.7,1.1
				c-0.1,0.9-0.7,0.9-0.7,0.9s-0.7,0-0.7-0.9c-0.1-0.9-1.6-1.4-1.7-1.1c-0.2,0.2,0.7,0.7,0.5,1c-0.2,0.3-1.2-0.9-1.7,0.7
				c-0.5,1.6,1.2,0.7,1.6,1.3c0.4,0.5-0.6,1.4,0.1,1.9c0.6,0.5,1.5,0.3,1.6-0.3c0.1-0.6,0,2.3,0.5,2.3c0.5,0,0.4-2.9,0.5-2.3
				c0.1,0.6,1,0.7,1.6,0.3c0.6-0.5-0.3-1.3,0.1-1.9C-652.5,713.2-650.7,714-651.3,712.4z"/>
			<path class="st11" d="M-650.7,707.5c-0.6-1.9-1.8-0.4-2-0.8s0.9-0.9,0.6-1.2c-0.2-0.3-1.9,0.3-2.1,1.3s-0.9,1.1-0.9,1.1
				s-0.7,0-0.9-1.1c-0.1-1.1-1.8-1.6-2.1-1.3c-0.2,0.3,0.9,0.8,0.6,1.2c-0.2,0.4-1.4-1.1-2,0.8c-0.6,1.9,1.4,0.9,1.8,1.5
				c0.5,0.6-0.7,1.6,0.1,2.1c0.7,0.5,1.7,0.4,1.9-0.3c0.1-0.7,0,2.7,0.6,2.7c0.6,0,0.4-3.4,0.6-2.7c0.1,0.7,1.2,0.9,1.9,0.3
				c0.7-0.5-0.4-1.5,0.1-2.1C-652,708.5-650,709.4-650.7,707.5z"/>
			<path class="st11" d="M-650.7,702.4c-0.6-1.9-1.8-0.4-2-0.8s0.9-0.9,0.6-1.2c-0.2-0.3-1.9,0.3-2.1,1.3s-0.9,1.1-0.9,1.1
				s-0.7,0-0.9-1.1c-0.1-1.1-1.8-1.6-2.1-1.3c-0.2,0.3,0.9,0.8,0.6,1.2c-0.2,0.4-1.4-1.1-2,0.8c-0.6,1.9,1.4,0.9,1.8,1.5
				c0.5,0.6-0.7,1.6,0.1,2.1c0.7,0.5,1.7,0.4,1.9-0.3c0.1-0.7,0,2.7,0.6,2.7c0.6,0,0.4-3.4,0.6-2.7c0.1,0.7,1.2,0.9,1.9,0.3
				c0.7-0.5-0.4-1.5,0.1-2.1C-652,703.3-650,704.3-650.7,702.4z"/>
			<path class="st11" d="M-650.7,697.3c-0.6-1.9-1.8-0.4-2-0.8s0.9-0.9,0.6-1.2c-0.2-0.3-1.9,0.3-2.1,1.3s-0.9,1.1-0.9,1.1
				s-0.7,0-0.9-1.1c-0.1-1.1-1.8-1.6-2.1-1.3c-0.2,0.3,0.9,0.8,0.6,1.2c-0.2,0.4-1.4-1.1-2,0.8c-0.6,1.9,1.4,0.9,1.8,1.5
				c0.5,0.6-0.7,1.6,0.1,2.1c0.7,0.5,1.7,0.4,1.9-0.3c0.1-0.7,0,2.7,0.6,2.7c0.6,0,0.4-3.4,0.6-2.7c0.1,0.7,1.2,0.9,1.9,0.3
				c0.7-0.5-0.4-1.5,0.1-2.1C-652,698.2-650,699.2-650.7,697.3z"/>
			<path class="st11" d="M-650.7,692.2c-0.6-1.9-1.8-0.4-2-0.8s0.9-0.9,0.6-1.2c-0.2-0.3-1.9,0.3-2.1,1.3s-0.9,1.1-0.9,1.1
				s-0.7,0-0.9-1.1c-0.1-1.1-1.8-1.6-2.1-1.3c-0.2,0.3,0.9,0.8,0.6,1.2c-0.2,0.4-1.4-1.1-2,0.8c-0.6,1.9,1.4,0.9,1.8,1.5
				c0.5,0.6-0.7,1.6,0.1,2.1c0.7,0.5,1.7,0.4,1.9-0.3c0.1-0.7,0,2.7,0.6,2.7c0.6,0,0.4-3.4,0.6-2.7c0.1,0.7,1.2,0.9,1.9,0.3
				c0.7-0.5-0.4-1.5,0.1-2.1C-652,693.1-650,694.1-650.7,692.2z"/>
			<path class="st11" d="M-650.7,687c-0.6-1.9-1.8-0.4-2-0.8s0.9-0.9,0.6-1.2c-0.2-0.3-1.9,0.3-2.1,1.3s-0.9,1.1-0.9,1.1
				s-0.7,0-0.9-1.1c-0.1-1.1-1.8-1.6-2.1-1.3c-0.2,0.3,0.9,0.8,0.6,1.2c-0.2,0.4-1.4-1.1-2,0.8c-0.6,1.9,1.4,0.9,1.8,1.5
				c0.5,0.6-0.7,1.6,0.1,2.1c0.7,0.5,1.7,0.4,1.9-0.3c0.1-0.7,0,2.7,0.6,2.7c0.6,0,0.4-3.4,0.6-2.7c0.1,0.7,1.2,0.9,1.9,0.3
				c0.7-0.5-0.4-1.5,0.1-2.1C-652,688-650,688.9-650.7,687z"/>
			<path class="st11" d="M-651.3,680.3c-0.4,0.8-2.4,1.3-2.9,1.7s-0.8,2.5-0.8,2.5s-0.3-2.1-0.8-2.5c-0.5-0.5-2.5-0.9-3-1.7
				c-0.4-0.8-1.3-0.2-1.1,0.4c0.1,0.6,0,1.4,0.6,1.6c0.6,0.2,1.6,0.6,1.8,1.3c0.2,0.7-0.5,0.8,0.3,1.3c0.7,0.5,1,0.7,1.1,1.1
				c0.1,0.3,0,1.4,1.1,1.4c1,0,0.9-1.1,1.1-1.4c0.1-0.3,0.4-0.5,1.1-1.1c0.7-0.5,0.1-0.6,0.3-1.3c0.2-0.7,1.2-1.1,1.8-1.3
				c0.6-0.2,0.5-1,0.6-1.6S-650.8,679.5-651.3,680.3z"/>
			<path class="st11" d="M-651.3,677.8c-0.4,0.8-2.4,1.3-2.9,1.7c-0.5,0.5-0.8,2.5-0.8,2.5s-0.3-2.1-0.8-2.5c-0.5-0.5-2.5-0.9-3-1.7
				c-0.4-0.8-1.3-0.2-1.1,0.4c0.1,0.6,0,1.4,0.6,1.6c0.6,0.2,1.6,0.6,1.8,1.3c0.2,0.7-0.5,0.8,0.3,1.3c0.7,0.5,1,0.7,1.1,1.1
				c0.1,0.3,0,1.4,1.1,1.4c1,0,0.9-1.1,1.1-1.4c0.1-0.3,0.4-0.5,1.1-1.1c0.7-0.5,0.1-0.6,0.3-1.3c0.2-0.7,1.2-1.1,1.8-1.3
				c0.6-0.2,0.5-1,0.6-1.6S-650.8,676.9-651.3,677.8z"/>
			<path class="st11" d="M-649.7,722.1c-0.6,0.1-0.7,1.1-1.5,0.7c-0.8-0.5-1.3-0.1-1.5,0.8c-0.2,1-2.2,2.1-2.2,2.1s-2-1.1-2.2-2.1
				c-0.2-1-0.7-1.3-1.5-0.8c-0.8,0.5-0.9-0.6-1.5-0.7c-0.6-0.1-1.3,0.7-0.5,1.4c0.7,0.8,1.3,1.9,2.1,2c0.9,0.1,0.7,0.6,0.6,1
				c-0.1,0.5-0.5,1.9,0.4,1.5c0.9-0.3,1.4-1.2,1.9-0.7c0.5,0.5-0.5,1.9,0.8,1.9c1.2,0,0.3-1.4,0.8-1.9c0.5-0.5,1,0.3,1.9,0.7
				c0.9,0.3,0.5-1.1,0.4-1.5c-0.1-0.5-0.3-0.9,0.6-1c0.9-0.1,1.4-1.2,2.1-2C-648.4,722.8-649,722-649.7,722.1z"/>
			<path class="st11" d="M-650.1,718.3c-0.5,0.1-0.7,1.1-1.5,0.6c-0.8-0.5-1.2-0.1-1.4,0.7c-0.2,0.9-2,1.9-2,1.9s-1.9-1.1-2-1.9
				c-0.2-0.9-0.7-1.2-1.4-0.7c-0.7,0.5-0.9-0.5-1.5-0.6c-0.5-0.1-1.1,0.6-0.5,1.3c0.7,0.7,1.1,1.7,1.9,1.9s0.7,0.5,0.6,0.9
				c-0.1,0.4-0.5,1.7,0.3,1.4c0.8-0.3,1.3-1.1,1.7-0.6c0.5,0.5-0.4,1.7,0.7,1.7c1.1,0,0.3-1.3,0.7-1.7c0.5-0.5,0.9,0.3,1.7,0.6
				c0.8,0.3,0.5-1,0.3-1.4s-0.2-0.8,0.6-0.9c0.8-0.1,1.3-1.1,1.9-1.9C-648.9,718.9-649.5,718.2-650.1,718.3z"/>
			<path class="st11" d="M-652.1,715.9c-0.1-0.8-1.2-0.5-1.2-0.5c-1-0.4-1.7-0.3-1.7-0.3s-0.7-0.1-1.7,0.3c0,0-1.1-0.3-1.2,0.5
				c-0.1,0.8-0.9,1.3-0.5,1.7c0.4,0.4,1.3,0.2,1.4,0.8s-0.3,3.4,0.4,3.3c0.8,0,1.1-0.4,1.5-0.4s0.7,0.4,1.5,0.4
				c0.8,0,0.3-2.7,0.4-3.3s1-0.4,1.4-0.8C-651.2,717.1-652,716.7-652.1,715.9z"/>
			<path class="st11" d="M-657.8,715.5c0,0-0.4-0.4-0.8,0c-0.5,0.4-5.3,4.5-5.8,5.5c-0.5,1.1-3.9,6.4-2.7,6.4s3.2-4.2,4.3-5.4
				c1.1-1.2,3.5-4.4,4.4-4.4C-657.5,717.6-657.5,715.7-657.8,715.5z"/>
			<path class="st11" d="M-659,713c0,0-1.4,0.5-2.3,1.3s-3.5,4.6-4.2,4.8c-0.7,0.3-3.9,5.1-4.3,5.8c-0.4,0.7-1.4,3.5-1.3,1.3
				s1.4-5.5,3.3-7.8c1.9-2.2,5.5-6.1,7.1-6.6c1.6-0.5,3-1.4,3.2-0.8c0.1,0.5-0.9,0.2-1.3,1.1C-659,713-659,713-659,713z"/>
			<path class="st11" d="M-659.4,708.4c0,0-0.7-0.1-1.7,0.5c-1.1,0.6-3.6,2.8-4.9,4.7c-1.2,1.9-2.7,2.9-3.1,3.8
				c-0.4,0.9-1.9,5.2-2,5.8c-0.1,0.7-0.9-1.7-0.5-3s0.9-5.3,2.6-6.8s4.9-5.4,7.6-6.2c2.7-0.9,3.8-1.4,3.8-0.6
				C-657.6,707.5-658.3,708.4-659.4,708.4z"/>
			<path class="st11" d="M-659,702.8c0,0-0.2-0.3-1.2,0.3c-0.9,0.5-6.4,4.1-8.2,6.6c-1.7,2.5-3.8,4.3-3.4,7.2c0.3,3-1.1-0.8-0.7-2.1
				c0.4-1.3,1.9-6.8,4.5-9.1c2.6-2.1,6.8-4.6,8-5c1.1-0.4,2.1-0.5,2.4,0.1C-657.4,701.6-658,703.2-659,702.8z"/>
			<path class="st11" d="M-658.9,697.6c0,0-1.6,0.3-2.3,0.8c-0.7,0.5-5.6,4.6-6.7,5.3c-1.1,0.7-3.8,3.8-4.2,4.8
				c-0.4,0.9-0.3,3.9-0.7,3.3c-0.4-0.6-0.9-3.1,0.9-6c1.9-3,2.9-4.6,6.4-6.6c3.6-1.9,6.8-4.1,7.6-3.6
				C-657.1,696.1-657.8,697.8-658.9,697.6z"/>
			<path class="st11" d="M-659.4,693.4c0,0-0.4,0.7-1.5,1.1c-1.1,0.3-8.7,5.5-9.7,6.6c-1,1.1-2.3,3.9-2.5,4.5s-0.8,0.9-0.6-1.1
				s1.7-5.4,5-7.4c3.4-2.1,7.8-5.2,9.2-5C-657.9,692.2-659,693.1-659.4,693.4z"/>
			<path class="st11" d="M-659.1,688.6c0,0-3.5,1.6-4.3,2.3c-0.8,0.7-6.9,4.6-8,6c-1.1,1.4-1.7,3.6-1.9,3.8
				c-0.2,0.1-0.9-2.5-0.4-3.5c0.5-1,3.2-3.8,4.4-4.6c1.3-0.9,6.8-3.9,7.8-4.4c0.9-0.6,1.9-2.1,2.5-1
				C-658.2,688.1-658.2,688.2-659.1,688.6z"/>
			<path class="st11" d="M-658.6,686c0,0-0.6-0.9-1.4-0.6c-0.8,0.3-3.6,1.7-4,2.2c-0.4,0.5-8,5.8-8.4,6.6c-0.4,0.8-0.9,0.4-0.5-0.9
				c0.4-1.4,1.3-3.3,4-5c2.7-1.7,7.3-4.4,9.1-4.2s1.7,0.5,2.3,1.1S-657,686.9-658.6,686z"/>
			<path class="st11" d="M-652.2,715.5c0,0,0.4-0.4,0.8,0c0.5,0.4,5.3,4.5,5.8,5.5c0.5,1.1,3.9,6.4,2.7,6.4c-1.3,0-3.2-4.2-4.3-5.4
				c-1.1-1.2-3.5-4.4-4.4-4.4C-652.5,717.6-652.5,715.7-652.2,715.5z"/>
			<path class="st11" d="M-651,713c0,0,1.4,0.5,2.3,1.3s3.5,4.6,4.2,4.8c0.7,0.3,3.9,5.1,4.3,5.8c0.4,0.7,1.4,3.5,1.3,1.3
				s-1.4-5.5-3.3-7.8c-1.9-2.2-5.5-6.1-7.1-6.6c-1.6-0.5-3-1.4-3.2-0.8c-0.1,0.5,0.9,0.2,1.3,1.1C-651,713-651,713-651,713z"/>
			<path class="st11" d="M-650.6,708.4c0,0,0.7-0.1,1.7,0.5c1.1,0.6,3.6,2.8,4.9,4.7c1.2,1.9,2.7,2.9,3.1,3.8c0.4,0.9,1.9,5.2,2,5.8
				c0.1,0.7,0.9-1.7,0.5-3s-0.9-5.3-2.6-6.8s-4.9-5.4-7.6-6.2c-2.7-0.9-3.8-1.4-3.8-0.6C-652.3,707.5-651.7,708.4-650.6,708.4z"/>
			<path class="st11" d="M-650.9,702.8c0,0,0.2-0.3,1.2,0.3c0.9,0.5,6.4,4.1,8.2,6.6c1.7,2.5,3.8,4.3,3.4,7.2
				c-0.3,3,1.1-0.8,0.7-2.1c-0.4-1.3-1.9-6.8-4.5-9.1c-2.6-2.1-6.8-4.6-8-5c-1.1-0.4-2.1-0.5-2.4,0.1
				C-652.5,701.6-652,703.2-650.9,702.8z"/>
			<path class="st11" d="M-651.1,697.6c0,0,1.6,0.3,2.3,0.8c0.7,0.5,5.6,4.6,6.7,5.3c1.1,0.7,3.8,3.8,4.2,4.8
				c0.4,0.9,0.3,3.9,0.7,3.3c0.4-0.6,0.9-3.1-0.9-6c-1.9-3-2.9-4.6-6.4-6.6c-3.6-1.9-6.8-4.1-7.6-3.6
				C-652.9,696.1-652.1,697.8-651.1,697.6z"/>
			<path class="st11" d="M-650.6,693.4c0,0,0.4,0.7,1.5,1.1c1.1,0.3,8.7,5.5,9.7,6.6c1,1.1,2.3,3.9,2.5,4.5s0.8,0.9,0.6-1.1
				s-1.7-5.4-5-7.4c-3.4-2.1-7.8-5.2-9.2-5C-652.1,692.2-650.9,693.1-650.6,693.4z"/>
			<path class="st11" d="M-650.9,688.6c0,0,3.5,1.6,4.3,2.3c0.8,0.7,6.9,4.6,8,6c1.1,1.4,1.7,3.6,1.9,3.8c0.2,0.1,0.9-2.5,0.4-3.5
				c-0.5-1-3.2-3.8-4.4-4.6c-1.3-0.9-6.8-3.9-7.8-4.4c-0.9-0.6-1.9-2.1-2.5-1C-651.8,688.1-651.8,688.2-650.9,688.6z"/>
			<path class="st11" d="M-651.3,686c0,0,0.6-0.9,1.4-0.6c0.8,0.3,3.6,1.7,4,2.2c0.4,0.5,8,5.8,8.4,6.6c0.4,0.8,0.9,0.4,0.5-0.9
				c-0.4-1.4-1.3-3.3-4-5c-2.7-1.7-7.3-4.4-9.1-4.2s-1.7,0.5-2.3,1.1S-652.9,686.9-651.3,686z"/>
		</g>
		<g>
			<path class="st12" d="M-662.1,679.4c-3.9,0.3-4.8,3.5-7.3,5.1c-2.5,1.7-4.5,4-5.4,6.4c-0.5,1.6-2.6,3.6-2,4.6
				c-1.5,1.3-1.5,5.4-1.1,6.3c-1.1,2.7-0.3,5.7-0.5,8.4c-0.1,0.5,0.3,3.1,1.8,1.9l0,0c2.1-1.6,4.7-2.7,7.5-3.6
				c2,0.3,4.6,0.1,6.6-0.5c5.9-1.9,6.7-5.6,5.8-8.4c0.8-2.7,1.2-5.8,0.5-8.5l1.4-1.6l1.4,0.4c-0.5,1.4,0.1,3,0.8,4.2
				c0.7,1.3,0.3,2.7,0.9,4c-1,1.3-1,2.7-1.1,4.1c-0.4,6,4.3,6.6,10.7,7.3c1.9,0.3,5.5,0.8,6,1.1c1.3,1.1,4,0.9,4.6-0.7
				c1.4-4.1,0.2-9.1-1.9-13c-1.6-5.3-5.6-10.3-9.7-14.7c-2.9-2.7-7.8-6-9.5-0.5c-0.6,1.9,0.6,3.8,0.1,5.7c-0.3-0.1-0.5-0.9-0.7-1.9
				l-4.1,0.5c0.1,1,0.1,1.8-0.1,2c-1.3-1.9-1.2-4.2-1.5-6.2C-658.9,680.5-659,679.2-662.1,679.4"/>
			<g class="st1">
				<g class="st3">
					<path class="st13" d="M-663.8,687.5c-0.1,0.2-0.4,0.3-0.7,0.2c-0.2-0.1-0.3-0.3-0.2-0.5c0.1-0.2,0.4-0.3,0.7-0.2
						C-663.7,687.1-663.7,687.3-663.8,687.5z"/>
					<path class="st13" d="M-664.1,687.8l1.5,1c1.3,0.7,3,0.5,3.6-0.3c0.6-0.8,0.1-1.9-1.2-2.6l-2.1-1.7"/>
					<path class="st13" d="M-664,686.8c-0.1,0.2-0.4,0.3-0.7,0.2c-0.2-0.1-0.3-0.3-0.2-0.5c0.1-0.2,0.4-0.3,0.7-0.2
						C-664,686.3-663.9,686.6-664,686.8z"/>
					<path class="st13" d="M-664.5,686.1c-0.1,0.2-0.4,0.3-0.7,0.2c-0.2-0.1-0.3-0.3-0.2-0.5c0.1-0.2,0.4-0.3,0.7-0.2
						C-664.5,685.7-664.3,685.9-664.5,686.1z"/>
					<path class="st13" d="M-665.4,686.1c-0.1,0.2-0.4,0.3-0.7,0.2c-0.2-0.1-0.3-0.3-0.2-0.5c0.1-0.2,0.4-0.3,0.7-0.2
						C-665.3,685.6-665.3,685.9-665.4,686.1z"/>
					<path class="st13" d="M-666.4,685.8c-0.1,0.2-0.4,0.3-0.7,0.2c-0.2-0.1-0.3-0.3-0.2-0.5c0.1-0.2,0.4-0.3,0.7-0.2
						C-666.4,685.3-666.4,685.6-666.4,685.8z"/>
					<path class="st13" d="M-665.3,687c-0.1,0.2-0.4,0.3-0.7,0.2c-0.2-0.1-0.3-0.3-0.2-0.5c0.1-0.2,0.4-0.3,0.7-0.2
						C-665.2,686.6-665.1,686.8-665.3,687z"/>
					<path class="st13" d="M-666.9,686.8c-0.1,0.2-0.4,0.3-0.7,0.2c-0.2-0.1-0.3-0.3-0.2-0.5c0.1-0.2,0.4-0.3,0.7-0.2
						C-666.8,686.3-666.8,686.6-666.9,686.8z"/>
					<path class="st13" d="M-666.7,687.8c-0.1,0.2-0.4,0.3-0.7,0.2c-0.2-0.1-0.3-0.3-0.2-0.5c0.1-0.2,0.4-0.3,0.7-0.2
						C-666.7,687.4-666.6,687.6-666.7,687.8z"/>
					<path class="st13" d="M-665.7,687.9c-0.1,0.2-0.4,0.3-0.7,0.2c-0.2-0.1-0.3-0.3-0.2-0.5c0.1-0.2,0.4-0.3,0.7-0.2
						C-665.7,687.5-665.6,687.7-665.7,687.9z"/>
					<path class="st13" d="M-666.2,687.2c-0.1,0.2-0.4,0.3-0.7,0.2c-0.2-0.1-0.3-0.3-0.2-0.5c0.1-0.2,0.4-0.3,0.7-0.2
						C-666.2,686.8-666.1,687-666.2,687.2z"/>
					<path class="st13" d="M-667.4,687.2c-0.1,0.2-0.4,0.3-0.7,0.2c-0.2-0.1-0.3-0.3-0.2-0.5c0.1-0.2,0.4-0.3,0.7-0.2
						C-667.4,686.7-667.3,687-667.4,687.2z"/>
					<path class="st13" d="M-668,687.8c-0.1,0.2-0.4,0.3-0.7,0.2c-0.2-0.1-0.3-0.3-0.2-0.5c0.1-0.2,0.4-0.3,0.7-0.2
						C-668,687.4-667.9,687.6-668,687.8z"/>
					<path class="st13" d="M-668.2,687c-0.1,0.2-0.4,0.3-0.7,0.2c-0.2-0.1-0.3-0.3-0.2-0.5c0.1-0.2,0.4-0.3,0.7-0.2
						C-668.2,686.5-668.1,686.8-668.2,687z"/>
					<path class="st13" d="M-667.4,686.3c-0.1,0.2-0.4,0.3-0.7,0.2c-0.2-0.1-0.3-0.3-0.2-0.5c0.1-0.2,0.4-0.3,0.7-0.2
						C-667.4,685.8-667.3,686.1-667.4,686.3z"/>
					<path class="st13" d="M-667.4,688.4c-0.1,0.2-0.4,0.3-0.7,0.2c-0.2-0.1-0.3-0.3-0.2-0.5c0.1-0.2,0.4-0.3,0.7-0.2
						C-667.4,688-667.3,688.2-667.4,688.4z"/>
					<path class="st13" d="M-664.8,687.7c-0.1,0.2-0.4,0.3-0.7,0.2c-0.2-0.1-0.3-0.3-0.2-0.5c0.1-0.2,0.4-0.3,0.7-0.2
						C-664.7,687.3-664.7,687.5-664.8,687.7z"/>
					<path class="st13" d="M-666.2,688.2l0.4,0.6l1.5,0.5c0.5,0.1,0.3-0.3,0.3-0.3c-1.1-0.9-0.9-1.1-1.2-1.1"/>
					<polyline class="st13" points="-667.4,688.4 -666.9,688.9 -665.7,689.4 -668.1,689.4 -668.5,689.3 					"/>
					<path class="st13" d="M-668.6,689.2c-0.1,0.2-0.4,0.3-0.7,0.2c-0.2-0.1-0.3-0.3-0.2-0.5c0.1-0.2,0.4-0.3,0.7-0.2
						S-668.4,689-668.6,689.2z"/>
					<path class="st13" d="M-669.8,689c-0.1,0.2-0.4,0.3-0.7,0.2c-0.2-0.1-0.3-0.3-0.2-0.5c0.1-0.2,0.4-0.3,0.7-0.2
						C-669.7,688.6-669.6,688.8-669.8,689z"/>
					<path class="st13" d="M-670.6,689.6c-0.1,0.2-0.4,0.3-0.7,0.2c-0.2-0.1-0.3-0.3-0.2-0.5c0.1-0.2,0.4-0.3,0.7-0.2
						C-670.6,689.2-670.5,689.4-670.6,689.6z"/>
					<path class="st13" d="M-669.2,689.8c-0.1,0.2-0.4,0.3-0.7,0.2c-0.2-0.1-0.3-0.3-0.2-0.5c0.1-0.2,0.4-0.3,0.7-0.2
						C-669.2,689.4-669.1,689.6-669.2,689.8z"/>
					<path class="st13" d="M-669.4,690.6c-0.1,0.2-0.4,0.3-0.7,0.2c-0.2-0.1-0.3-0.3-0.2-0.5c0.1-0.2,0.4-0.3,0.7-0.2
						C-669.3,690.2-669.2,690.4-669.4,690.6z"/>
					<path class="st13" d="M-668.4,690.4c-0.1,0.2-0.4,0.3-0.7,0.2c-0.2-0.1-0.3-0.3-0.2-0.5c0.1-0.2,0.4-0.3,0.7-0.2
						C-668.4,690-668.2,690.2-668.4,690.4z"/>
					<path class="st13" d="M-667.6,690.8l1.3-0.5c0.3-0.1-0.1-0.3-0.1-0.3s-1.7-0.1-1.7-0.1"/>
					<path class="st13" d="M-671,690.9c-0.1,0.2-0.4,0.3-0.7,0.2c-0.2-0.1-0.3-0.3-0.2-0.5c0.1-0.2,0.4-0.3,0.7-0.2
						C-670.9,690.5-670.8,690.7-671,690.9z"/>
					<path class="st13" d="M-669.3,691.6c-0.1,0.2-0.4,0.3-0.7,0.2c-0.2-0.1-0.3-0.3-0.2-0.5c0.1-0.2,0.4-0.3,0.7-0.2
						C-669.3,691.2-669.2,691.4-669.3,691.6z"/>
					<path class="st13" d="M-670.4,691.8c-0.1,0.2-0.4,0.3-0.7,0.2c-0.2-0.1-0.3-0.3-0.2-0.5c0.1-0.2,0.4-0.3,0.7-0.2
						C-670.4,691.4-670.3,691.6-670.4,691.8z"/>
					<path class="st13" d="M-670.1,691.2c-0.1,0.2-0.4,0.3-0.7,0.2c-0.2-0.1-0.3-0.3-0.2-0.5c0.1-0.2,0.4-0.3,0.7-0.2
						C-670.1,690.8-670,691-670.1,691.2z"/>
					<path class="st13" d="M-670.3,690.2c-0.1,0.2-0.4,0.3-0.7,0.2c-0.2-0.1-0.3-0.3-0.2-0.5c0.1-0.2,0.4-0.3,0.7-0.2
						C-670.2,689.8-670.2,690-670.3,690.2z"/>
					<path class="st13" d="M-668.1,691.5c-0.1,0.2-0.4,0.3-0.7,0.2c-0.2-0.1-0.3-0.3-0.2-0.5c0.1-0.2,0.4-0.3,0.7-0.2
						C-668.1,691.1-668,691.3-668.1,691.5z"/>
					<path class="st13" d="M-665.7,693.1c2.8,0.2,4.8-0.7,4.8-0.7c3.1-1.8-0.1-2.2-0.1-2.2l-3.5-0.1c-0.3-0.1-0.6,0.2-0.6,0.2
						c-0.5,0.8-1.3,0.9-1.5,0.9"/>
					<path class="st13" d="M-665.4,696.7c6-0.6,5.6-3.4,5.6-3.4c-2.6-0.8-5.3,2.5-5.3,2.5"/>
					<path class="st13" d="M-668.8,692.9c-0.1,0.2-0.4,0.3-0.7,0.2c-0.2-0.1-0.3-0.3-0.2-0.5c0.1-0.2,0.4-0.3,0.7-0.2
						C-668.8,692.5-668.7,692.7-668.8,692.9z"/>
					<path class="st13" d="M-668,692.2c-0.1,0.2-0.4,0.3-0.7,0.2c-0.2-0.1-0.3-0.3-0.2-0.5c0.1-0.2,0.4-0.3,0.7-0.2
						C-668,691.8-668,692-668,692.2z"/>
					<path class="st13" d="M-669.8,693.2c-0.1,0.2-0.4,0.3-0.7,0.2c-0.2-0.1-0.3-0.3-0.2-0.5c0.1-0.2,0.4-0.3,0.7-0.2
						C-669.7,692.7-669.6,693-669.8,693.2z"/>
					<path class="st13" d="M-669.6,692.5c-0.1,0.2-0.4,0.3-0.7,0.2c-0.2-0.1-0.3-0.3-0.2-0.5c0.1-0.2,0.4-0.3,0.7-0.2
						C-669.6,692.1-669.5,692.3-669.6,692.5z"/>
					<path class="st13" d="M-670.9,692.7c-0.1,0.2-0.4,0.3-0.7,0.2c-0.2-0.1-0.3-0.3-0.2-0.5c0.1-0.2,0.4-0.3,0.7-0.2
						C-670.9,692.3-670.8,692.5-670.9,692.7z"/>
					<path class="st13" d="M-671.7,691.6c-0.1,0.2-0.4,0.3-0.7,0.2c-0.2-0.1-0.3-0.3-0.2-0.5c0.1-0.2,0.4-0.3,0.7-0.2
						C-671.7,691.1-671.6,691.4-671.7,691.6z"/>
					<path class="st13" d="M-671.8,692.4c-0.1,0.2-0.4,0.3-0.7,0.2c-0.2-0.1-0.3-0.3-0.2-0.5c0.1-0.2,0.4-0.3,0.7-0.2
						C-671.8,692-671.7,692.2-671.8,692.4z"/>
					<path class="st13" d="M-670.8,693.3c-0.7,0.2-0.1,0.4-0.1,0.4c3.7,0.5,6,0.1,6,0.1c0.5-0.2-0.1-0.3-0.1-0.3s-0.5,0-1.2-0.3"/>
					<path class="st13" d="M-671.5,695c-0.3-0.5,0.4-0.6,0.4-0.6s2.3,0.6,4.5,0.5"/>
					<path class="st13" d="M-671.6,695.1c-0.1,0.2-0.4,0.3-0.7,0.2c-0.2-0.1-0.3-0.3-0.2-0.5c0.1-0.2,0.4-0.3,0.7-0.2
						C-671.6,694.7-671.4,694.9-671.6,695.1z"/>
					<path class="st13" d="M-672.5,695c-0.1,0.2-0.4,0.3-0.7,0.2c-0.2-0.1-0.3-0.3-0.2-0.5c0.1-0.2,0.4-0.3,0.7-0.2
						C-672.5,694.6-672.5,694.8-672.5,695z"/>
					<path class="st13" d="M-672.1,694.3c-0.1,0.2-0.4,0.3-0.7,0.2c-0.2-0.1-0.3-0.3-0.2-0.5c0.1-0.2,0.4-0.3,0.7-0.2
						C-672.1,693.9-672.1,694.1-672.1,694.3z"/>
					<path class="st13" d="M-672.9,694c-0.1,0.2-0.4,0.3-0.7,0.2c-0.2-0.1-0.3-0.3-0.2-0.5c0.1-0.2,0.4-0.3,0.7-0.2
						C-672.9,693.5-672.8,693.8-672.9,694z"/>
					<path class="st13" d="M-673.7,693.8c-0.1,0.2-0.4,0.3-0.7,0.2c-0.2-0.1-0.3-0.3-0.2-0.5c0.1-0.2,0.4-0.3,0.7-0.2
						C-673.7,693.3-673.7,693.6-673.7,693.8z"/>
					<path class="st13" d="M-672,693.5c-0.1,0.2-0.4,0.3-0.7,0.2c-0.2-0.1-0.3-0.3-0.2-0.5c0.1-0.2,0.4-0.3,0.7-0.2
						C-672,693.1-671.9,693.3-672,693.5z"/>
					<path class="st13" d="M-663.9,699.5c4.8-1.5,4.6-4.2,4.6-4.2c-2-0.4-4.4,3.4-4.4,3.4"/>
					<path class="st13" d="M-671.2,696.5c-1.6-0.5-1.9,0-1.9,0c-0.3-0.2,0.1-0.7,0.1-0.7c0.5-0.3,1.7,0.1,1.7,0.1
						c1.1,0.3,2.1,0.1,2.1,0.1c1.3-0.1,1.4-1.1,1.4-1.1"/>
					<path class="st13" d="M-671.6,697.8c0.7-0.6,1.4-0.7,1.4-0.7c0.7,0.1,1.3-0.1,1.3-0.1c0.5,0.1,1.4-0.9,1.4-0.9
						c1.1-1.2,2.4-1.2,2.4-1.2c-0.7,0.3-1,0.9-1,1.1"/>
					<path class="st13" d="M-673.3,696c-0.1,0.2-0.4,0.3-0.7,0.2c-0.2-0.1-0.3-0.3-0.2-0.5c0.1-0.2,0.4-0.3,0.7-0.2
						C-673.3,695.5-673.2,695.8-673.3,696z"/>
					<path class="st13" d="M-674,695.2c-0.1,0.2-0.4,0.3-0.7,0.2c-0.2-0.1-0.3-0.3-0.2-0.5c0.1-0.2,0.4-0.3,0.7-0.2
						C-674,694.8-673.9,695-674,695.2z"/>
					<path class="st13" d="M-674.5,696.6c-0.1,0.2-0.4,0.3-0.7,0.2c-0.2-0.1-0.3-0.3-0.2-0.5c0.1-0.2,0.4-0.3,0.7-0.2
						C-674.5,696.2-674.4,696.5-674.5,696.6z"/>
					<path class="st13" d="M-674.7,698.2c-0.1,0.2-0.4,0.3-0.7,0.2c-0.2-0.1-0.3-0.3-0.2-0.5c0.1-0.2,0.4-0.3,0.7-0.2
						S-674.6,698-674.7,698.2z"/>
					<path class="st13" d="M-673.1,697c-0.1,0.2-0.4,0.3-0.7,0.2c-0.2-0.1-0.3-0.3-0.2-0.5c0.1-0.2,0.4-0.3,0.7-0.2
						C-673.1,696.5-673,696.8-673.1,697z"/>
					<path class="st13" d="M-673.3,697.9c-0.1,0.2-0.4,0.3-0.7,0.2c-0.2-0.1-0.3-0.3-0.2-0.5c0.1-0.2,0.4-0.3,0.7-0.2
						C-673.3,697.4-673.1,697.7-673.3,697.9z"/>
					<path class="st13" d="M-671.3,698.6c-0.1,0.2-0.4,0.3-0.7,0.2c-0.2-0.1-0.3-0.3-0.2-0.5c0.1-0.2,0.4-0.3,0.7-0.2
						C-671.3,698.2-671.2,698.5-671.3,698.6z"/>
					<path class="st13" d="M-672.9,698.8c-0.1,0.2-0.4,0.3-0.7,0.2c-0.2-0.1-0.3-0.3-0.2-0.5c0.1-0.2,0.4-0.3,0.7-0.2
						C-672.9,698.4-672.9,698.6-672.9,698.8z"/>
					<path class="st13" d="M-674.1,699.2c-0.1,0.2-0.4,0.3-0.7,0.2c-0.2-0.1-0.3-0.3-0.2-0.5c0.1-0.2,0.4-0.3,0.7-0.2
						C-674.1,698.7-674,699-674.1,699.2z"/>
				</g>
				<g class="st3">
					<path class="st13" d="M-665.7,704.7c-0.7,0.2-0.4-0.3-0.4-0.3c2.9-2.5,5.4-3.5,5.4-3.5c0.7-0.1,0.2,0.3,0.2,0.3
						s-0.5,0.3-0.9,0.9"/>
					<path class="st13" d="M-667.7,703.7c0.1,0.6,0.8,0.3,0.8,0.3s1.6-1.9,3.8-3"/>
					<path class="st13" d="M-667.9,703.6c-0.3-0.1-0.6,0-0.7,0.2s0,0.5,0.3,0.6c0.3,0.1,0.6,0,0.7-0.2
						C-667.5,704-667.6,703.7-667.9,703.6z"/>
					<path class="st13" d="M-668.6,704.3c-0.3-0.1-0.6,0-0.7,0.2s0,0.5,0.3,0.6c0.3,0.1,0.6,0,0.7-0.2
						C-668.3,704.7-668.4,704.3-668.6,704.3z"/>
					<path class="st13" d="M-667.7,704.7c-0.3-0.1-0.6,0-0.7,0.2c-0.1,0.2,0,0.5,0.3,0.6c0.3,0.1,0.6,0,0.7-0.2
						C-667.3,705.1-667.4,704.8-667.7,704.7z"/>
					<path class="st13" d="M-668.1,705.4c-0.3-0.1-0.6,0-0.7,0.2s0,0.5,0.3,0.6c0.3,0.1,0.6,0,0.7-0.2
						C-667.8,705.8-667.8,705.5-668.1,705.4z"/>
					<path class="st13" d="M-668.8,706.1c-0.3-0.1-0.6,0-0.7,0.2c-0.1,0.2,0,0.5,0.3,0.6c0.3,0.1,0.6,0,0.7-0.2
						C-668.4,706.5-668.5,706.1-668.8,706.1z"/>
					<path class="st13" d="M-667,705.3c-0.3-0.1-0.6,0-0.7,0.2s0,0.5,0.3,0.6c0.3,0.1,0.6,0,0.7-0.2S-666.7,705.4-667,705.3z"/>
					<path class="st13" d="M-668.6,702c-1.1,1.4-1.7,1.1-1.7,1.1c-0.1,0.3,0.6,0.6,0.6,0.6c0.7-0.1,1.5-1,1.5-1
						c0.7-0.9,1.8-1.3,1.8-1.3c1.2-0.7,2.2,0.3,2.2,0.3"/>
					<path class="st13" d="M-670.2,701.2c1.1,0.1,1.9-0.2,1.9-0.2c0.6-0.5,1.3-0.6,1.3-0.6c0.5-0.3,2,0,2,0c2,0.5,3.2-0.3,3.2-0.3
						c-0.9,0.1-1.7-0.2-1.8-0.4"/>
					<path class="st13" d="M-670.1,703.8c-0.3-0.1-0.6,0-0.7,0.2c-0.1,0.2,0,0.5,0.3,0.6c0.3,0.1,0.6,0,0.7-0.2
						C-669.7,704.1-669.8,703.9-670.1,703.8z"/>
					<path class="st13" d="M-670.2,704.9c-0.3-0.1-0.6,0-0.7,0.2c-0.1,0.2,0,0.5,0.3,0.6c0.3,0.1,0.6,0,0.7-0.2
						S-669.9,705-670.2,704.9z"/>
					<path class="st13" d="M-671.8,703.9c-0.3-0.1-0.6,0-0.7,0.2s0,0.5,0.3,0.6s0.6,0,0.7-0.2S-671.5,704-671.8,703.9z"/>
					<path class="st13" d="M-673.2,702.6c-0.3-0.1-0.6,0-0.7,0.2c-0.1,0.2,0,0.5,0.3,0.6c0.3,0.1,0.6,0,0.7-0.2
						C-672.8,703-672.9,702.7-673.2,702.6z"/>
					<path class="st13" d="M-670.8,702.8c-0.3-0.1-0.6,0-0.7,0.2c-0.1,0.2,0,0.5,0.3,0.6s0.6,0,0.7-0.2
						C-670.4,703.1-670.5,702.8-670.8,702.8z"/>
					<path class="st13" d="M-671.6,702c-0.3-0.1-0.6,0-0.7,0.2s0,0.5,0.3,0.6c0.3,0.1,0.6,0,0.7-0.2
						C-671.2,702.4-671.4,702.1-671.6,702z"/>
					<path class="st13" d="M-670.5,700.2c-0.3-0.1-0.6,0-0.7,0.2s0,0.5,0.3,0.6s0.6,0,0.7-0.2C-670.2,700.6-670.2,700.4-670.5,700.2
						z"/>
					<path class="st13" d="M-672.1,701c-0.3-0.1-0.6,0-0.7,0.2c-0.1,0.2,0,0.5,0.3,0.6c0.3,0.1,0.6,0,0.7-0.2
						C-671.7,701.4-671.8,701.1-672.1,701z"/>
					<path class="st13" d="M-673.5,701.3c-0.3-0.1-0.6,0-0.7,0.2s0,0.5,0.3,0.6s0.6,0,0.7-0.2C-673.1,701.7-673.2,701.4-673.5,701.3
						z"/>
				</g>
				<path class="st14" d="M-670.2,698.9c-0.5,0.3,0.1,0.4,0.1,0.4c3.1-0.6,4.8-1.7,4.8-1.7c0.3-0.3-0.1-0.3-0.1-0.3s-0.5,0.1-1,0.1"
					/>
				<path class="st14" d="M-669.4,700.4c-0.5-0.3,0.1-0.7,0.1-0.7s2.4-0.2,4.3-1.1"/>
				<g class="st3">
					<path class="st13" d="M-671.3,701.5c-0.1-0.2,0.1-0.4,0.4-0.5c0.3-0.1,0.5,0.1,0.5,0.3c0.1,0.2-0.1,0.4-0.4,0.5
						C-671,701.8-671.3,701.7-671.3,701.5z"/>
					<path class="st13" d="M-671,702.2c-0.1-0.2,0.1-0.4,0.4-0.5c0.3-0.1,0.5,0.1,0.5,0.3c0.1,0.2-0.1,0.4-0.4,0.5
						C-670.8,702.6-671,702.4-671,702.2z"/>
					<path class="st13" d="M-670,701.9c-0.1-0.2,0.1-0.4,0.4-0.5c0.3-0.1,0.5,0.1,0.5,0.3c0.1,0.2-0.1,0.4-0.4,0.5
						C-669.7,702.3-669.9,702.2-670,701.9z"/>
				</g>
				<path class="st14" d="M-675.1,700.6c-0.1-0.2,0.1-0.4,0.4-0.5c0.3-0.1,0.5,0.1,0.5,0.3c0.1,0.2-0.1,0.4-0.4,0.5
					C-674.8,700.9-675,700.8-675.1,700.6z"/>
				<path class="st14" d="M-674,700.8c-0.1-0.2,0.1-0.4,0.4-0.5s0.5,0.1,0.5,0.3c0.1,0.2-0.1,0.4-0.4,0.5
					C-673.7,701.2-673.9,701-674,700.8z"/>
				<path class="st14" d="M-673.2,700.4c-0.1-0.2,0.1-0.4,0.4-0.5c0.3-0.1,0.5,0.1,0.5,0.3c0.1,0.2-0.1,0.4-0.4,0.5
					C-672.9,700.8-673.1,700.6-673.2,700.4z"/>
				<path class="st14" d="M-672.2,700.1c-0.1-0.2,0.1-0.4,0.4-0.5c0.3-0.1,0.5,0.1,0.5,0.3c0.1,0.2-0.1,0.4-0.4,0.5
					C-671.8,700.5-672.1,700.4-672.2,700.1z"/>
				<path class="st14" d="M-675.8,699.7c-0.1-0.2,0.1-0.4,0.4-0.5c0.3-0.1,0.5,0.1,0.5,0.3c0.1,0.2-0.1,0.4-0.4,0.5
					C-675.5,700-675.7,699.9-675.8,699.7z"/>
				<path class="st14" d="M-672.9,697.6c-0.1-0.2,0.1-0.4,0.4-0.5s0.5,0.1,0.5,0.3c0.1,0.2-0.1,0.4-0.4,0.5
					C-672.6,698-672.9,697.8-672.9,697.6z"/>
				<path class="st14" d="M-673.9,699.5c-0.1-0.2,0.1-0.4,0.4-0.5c0.3-0.1,0.5,0.1,0.5,0.3c0.1,0.2-0.1,0.4-0.4,0.5
					C-673.7,699.9-673.9,699.8-673.9,699.5z"/>
				<path class="st14" d="M-672.9,699.2c-0.1-0.2,0.1-0.4,0.4-0.5c0.3-0.1,0.5,0.1,0.5,0.3c0.1,0.2-0.1,0.4-0.4,0.5
					C-672.6,699.6-672.9,699.4-672.9,699.2z"/>
			</g>
		</g>
		<g>
			<polygon class="st10" points="-652,685.5 -652.1,685.5 -652.1,685.3 -652.1,685.3 -652.1,685.1 -652.1,685 -652.1,684.9 
				-652.2,684.8 -652.3,684.7 -652.4,684.7 -652.5,684.8 -652.6,684.9 -652.7,685.1 -652.7,685.2 -652.7,685.3 -652.7,685.3 
				-652.7,685.4 -652.8,685.4 -652.9,685.3 -652.9,685.2 -653,685.1 -653.1,684.9 -653.2,684.9 -653.4,684.9 -653.4,685.1 
				-653.4,685.3 -653.4,685.3 -653.4,685.4 -653.5,685.5 -653.5,685.5 -653.6,685.4 -653.6,685.3 -653.7,685.2 -653.7,685.1 
				-653.9,685.1 -654,685.2 -654.1,685.3 -654.1,685.5 -654.1,685.7 -654.1,685.9 -654.2,685.9 -654.3,686 -654.3,686.1 
				-654.4,686.2 -654.5,686.4 -654.5,686.4 -654.6,686.6 -654.6,686.8 -654.6,686.9 -654.7,686.9 -654.8,686.9 -654.9,686.9 
				-655,686.9 -655.1,686.9 -655.2,686.9 -655.4,686.9 -655.6,686.8 -655.8,686.9 -655.9,687 -656,687.2 -656.1,687.4 -656.1,687.6 
				-656,687.7 -655.9,687.8 -655.6,687.8 -655.4,687.8 -655.2,687.8 -655,687.8 -655,687.9 -654.8,688 -654.7,688 -654.7,688 
				-654.7,688 -655.2,688.3 -655.5,688.6 -655.7,688.8 -655.9,689.2 -656,689.4 -656,689.6 -656.1,689.8 -656.1,689.8 -656,690 
				-656,690 -656,690.2 -656.1,690.4 -656.3,691.1 -656.4,691.8 -656.5,692.5 -656.5,693.1 -656.5,693.6 -656.5,694.1 -656.4,694.5 
				-656.4,694.8 -656.4,695 -656.3,695.3 -656.2,695.5 -656.1,695.7 -656,695.8 -655.8,695.9 -655.7,696.1 -655.6,696.1 
				-655.4,696.2 -655.3,696.2 -655.1,696.2 -654.9,696.1 -654.7,696.1 -654.6,696.1 -654.5,696 -654.4,695.9 -654.3,695.9 
				-654.3,695.8 -654.3,695.8 -654.3,695.7 -654.2,695.7 -654.1,695.7 -654.1,695.7 -653.9,695.7 -653.7,695.8 -653.6,695.8 
				-653.4,695.8 -653.3,695.8 -653.1,695.7 -652.9,695.7 -652.7,695.6 -652.5,695.5 -652.3,695.5 -652.1,695.4 -652,695.3 
				-651.9,695.2 -651.8,695.1 -651.7,695.1 -651.6,695 -651.6,694.9 -651.5,694.9 -651.5,694.8 -651.4,694.7 -651.3,694.6 
				-651.2,694.5 -651.1,694.5 -650.9,694.3 -650.7,694.3 -650.6,694.2 -650.5,694.1 -650.3,694.1 -650.1,693.9 -650,693.9 
				-649.9,693.8 -649.7,693.7 -649.7,693.6 -649.5,693.5 -649.5,693.4 -649.4,693.3 -649.3,693.1 -649.3,693 -649.2,692.8 
				-649.1,692.7 -649,692.5 -648.8,692.1 -648.8,691.7 -648.8,691.3 -648.9,691 -648.9,690.6 -648.9,690.3 -648.9,690 -648.9,689.8 
				-649,689.5 -649.2,689.3 -649.4,689 -649.5,688.7 -649.6,688.4 -649.7,688.2 -649.9,688 -650,687.8 -650.1,687.8 -650.2,687.6 
				-650.2,687.4 -650.2,687.2 -650.1,687 -650,687 -649.9,686.8 -649.9,686.7 -649.4,686.6 -649.1,686.5 -648.9,686.3 -648.8,686.1 
				-648.9,685.9 -649,685.7 -649.1,685.6 -649.3,685.5 -649.6,685.5 -649.7,685.5 -649.8,685.6 -649.9,685.6 -650.1,685.7 
				-650.2,685.7 -650.3,685.7 -650.4,685.7 -650.5,685.7 -650.5,685.7 -650.6,685.7 -650.7,685.7 -650.9,685.7 -651,685.7 
				-651.1,685.8 -651.3,685.9 -651.5,685.9 -651.6,685.8 -651.7,685.7 -651.8,685.7 			"/>
			<polygon class="st15" points="-654.3,688.9 -654.2,688.9 -654.1,689 -654.1,689.2 -654.1,689.2 -654.1,689.3 -654.2,689.4 
				-654.3,689.4 -654.3,689.5 -654.3,689.6 -654.4,689.7 -654.5,689.8 -654.5,690 -654.5,690.3 -654.5,690.6 -654.5,690.9 
				-654.3,691.1 -654.3,691.1 -654.2,691.2 -654.1,691.2 -654.1,691.3 -654,691.3 -653.9,691.3 -653.9,691.3 -653.8,691.3 
				-653.7,691.2 -653.7,691.2 -653.6,691.2 -653.5,691.3 -653.3,691.4 -653.3,691.6 -653.2,691.8 -653.3,692 -653.3,691.9 
				-653.4,691.8 -653.5,691.6 -653.5,691.5 -653.5,691.5 -653.5,691.5 -653.5,691.4 -653.6,691.4 -653.7,691.4 -653.8,691.4 
				-653.9,691.5 -654,691.4 -653.9,691.5 -653.9,691.6 -653.8,691.6 -653.7,691.6 -653.7,691.8 -653.7,691.9 -653.7,692 
				-653.7,692.1 -653.8,691.9 -653.9,691.8 -654,691.6 -654.1,691.5 -654.2,691.4 -654.3,691.4 -654.4,691.3 -654.5,691.2 
				-654.5,691.4 -654.5,691.4 -654.5,691.6 -654.5,691.6 -654.5,691.8 -654.5,691.8 -654.5,691.9 -654.4,692 -654.3,692.1 
				-654.3,692.1 -654.3,692.1 -654.3,692.1 -654.2,692.1 -654.1,692.1 -654.1,692.1 -654,692.1 -654.1,692.1 -654.1,692.1 
				-654.3,692.2 -654.3,692.2 -654.4,692.2 -654.5,692.2 -654.5,692.2 -654.6,692.1 -654.5,692.3 -654.4,692.5 -654.3,692.6 
				-654.3,692.7 -654.1,692.7 -654,692.6 -654,692.5 -653.9,692.5 -653.8,692.4 -653.7,692.4 -653.7,692.4 -653.6,692.5 
				-653.5,692.5 -653.5,692.5 -653.4,692.6 -653.3,692.6 -653.3,692.6 -653.2,692.6 -653.1,692.6 -653.1,692.6 -653,692.6 
				-652.9,692.6 -653,692.6 -653.1,692.7 -653.1,692.7 -653.2,692.7 -653.3,692.7 -653.3,692.7 -653.4,692.7 -653.5,692.7 
				-653.5,692.7 -653.6,692.7 -653.7,692.6 -653.7,692.6 -653.8,692.6 -653.9,692.7 -653.9,692.7 -653.9,692.7 -654,692.8 
				-654.1,692.8 -654.1,692.8 -654.2,692.8 -654.3,692.8 -654.4,692.7 -654.5,692.7 -654.5,692.7 -654.5,692.7 -654.5,692.7 
				-654.5,692.7 -654.5,692.8 -654.4,692.9 -654.3,693 -654.3,693.1 -654.2,693.1 -654.2,693.1 -654.1,693.1 -654,693.1 -653.9,693 
				-653.9,693 -653.8,693 -653.7,692.9 -653.7,693 -653.7,693 -653.6,693 -653.5,693.1 -653.5,693.1 -653.5,693.1 -653.4,693.2 
				-653.3,693.3 -653.3,693.3 -653.2,693.3 -653.1,693.3 -653.2,693.3 -653.3,693.3 -653.3,693.3 -653.4,693.3 -653.5,693.3 
				-653.5,693.2 -653.6,693.2 -653.7,693.1 -653.7,693.1 -653.9,693.1 -653.9,693.2 -654.1,693.2 -653.9,693.3 -653.9,693.4 
				-653.9,693.5 -653.9,693.6 -653.8,693.7 -653.7,693.7 -653.7,693.8 -653.6,693.8 -653.5,693.8 -653.5,693.8 -653.4,693.8 
				-653.3,693.7 -653.4,693.8 -653.5,693.9 -653.6,693.9 -653.7,693.9 -653.9,693.8 -653.9,693.7 -654,693.5 -654.1,693.4 
				-654.1,693.3 -654.1,693.3 -654.2,693.3 -654.3,693.3 -654.3,693.2 -654.3,693.2 -654.3,693.3 -654.3,693.4 -654.3,693.5 
				-654.3,693.6 -654.3,693.8 -654.3,693.9 -654.3,694.1 -654.3,694.1 -654.2,694.2 -654.1,694.2 -654.1,694.3 -654.1,694.3 
				-654,694.3 -654,694.3 -653.9,694.3 -653.8,694.3 -653.7,694.3 -653.6,694.3 -653.5,694.3 -653.5,694.3 -653.5,694.3 
				-653.5,694.3 -653.4,694.4 -653.4,694.5 -653.5,694.5 -653.5,694.6 -653.5,694.5 -653.5,694.5 -653.6,694.5 -653.6,694.4 
				-653.7,694.4 -653.7,694.4 -653.9,694.4 -653.9,694.4 -654,694.4 -654.1,694.4 -654.1,694.4 -654.2,694.3 -654.3,694.3 
				-654.3,694.3 -654.3,694.4 -654.2,694.5 -654.1,694.7 -654,694.8 -653.9,694.9 -653.9,694.9 -653.8,695 -653.7,695.1 
				-653.7,695.1 -653.8,695.2 -653.9,695.2 -653.9,695.2 -654,695.1 -654.1,695.1 -654.3,694.9 -654.3,694.6 -654.5,694.3 
				-654.5,694.1 -654.5,694.2 -654.6,694.3 -654.6,694.5 -654.5,694.6 -654.5,694.7 -654.5,694.8 -654.5,694.9 -654.4,694.9 
				-654.3,694.9 -654.3,695 -654.4,695 -654.4,695 -654.5,694.9 -654.5,694.9 -654.6,694.9 -654.6,694.8 -654.6,694.7 -654.7,694.6 
				-654.7,694.4 -654.7,694.1 -654.7,694.1 -654.7,694 -654.6,693.9 -654.5,693.8 -654.5,693.6 -654.5,693.5 -654.5,693.3 
				-654.6,693.2 -654.7,693.3 -654.7,693.3 -654.8,693.5 -654.8,693.7 -654.8,693.7 -654.9,693.7 -654.9,693.7 -655,693.8 
				-655,693.8 -655,693.9 -655.1,693.9 -655.1,693.9 -655.2,694.1 -655.2,694.3 -655.1,694.4 -655,694.5 -655.1,694.5 -655.2,694.3 
				-655.3,694.2 -655.3,694 -655.3,693.9 -655.2,693.9 -655.2,693.8 -655.2,693.8 -655,693.7 -655,693.6 -655,693.4 -655,693.3 
				-655,693.3 -655,693.3 -655,693.3 -655.1,693.3 -655.2,693.3 -655.2,693.3 -655.3,693.3 -655.4,693.4 -655.4,693.5 -655.4,693.5 
				-655.5,693.6 -655.5,693.7 -655.5,693.7 -655.5,693.9 -655.5,693.7 -655.5,693.5 -655.4,693.3 -655.2,693.2 -655.3,693.1 
				-655.4,693.2 -655.4,693.2 -655.5,693.2 -655.6,693.1 -655.6,693 -655.6,692.9 -655.7,692.9 -655.7,692.8 -655.8,692.8 
				-655.8,692.8 -655.8,692.8 -655.8,692.7 -655.7,692.7 -655.7,692.7 -655.6,692.8 -655.6,692.8 -655.5,692.9 -655.5,693 
				-655.4,693 -655.4,693.1 -655.3,693.1 -655.2,693.1 -655.2,693.1 -655.1,693.1 -655,693.1 -655,693.1 -654.9,693.1 -655,692.9 
				-655.2,692.9 -655.4,692.7 -655.4,692.6 -655.5,692.5 -655.6,692.4 -655.6,692.3 -655.6,692.2 -655.6,692.1 -655.6,692 
				-655.6,692 -655.6,692 -655.5,692.2 -655.4,692.3 -655.4,692.3 -655.4,692.3 -655.4,692.5 -655.3,692.5 -655.2,692.7 -655,692.8 
				-654.9,692.9 -654.7,693 -654.7,693 -654.7,693 -654.7,692.8 -654.7,692.6 -654.8,692.3 -654.7,692.1 -654.8,692.1 -654.8,692 
				-654.7,691.6 -654.7,691.3 -654.7,691 -654.8,690.7 -654.8,690.7 -654.9,690.7 -655,690.8 -655,690.8 -655,690.8 -655,690.9 
				-655,691 -655,691 -655.1,691.1 -655.2,691.2 -655.2,691.2 -655.2,691.3 -655.2,691.6 -655.1,691.8 -655.1,691.8 -655.2,691.7 
				-655.2,691.6 -655.3,691.4 -655.4,691.2 -655.3,691.1 -655.3,691 -655.2,690.9 -655.2,690.8 -655.2,690.7 -655.2,690.6 
				-655.2,690.6 -655.1,690.6 -655.1,690.6 -655,690.6 -654.9,690.6 -654.8,690.5 -654.8,690.4 -654.7,690.3 -654.7,690.2 
				-654.7,690 -654.7,689.9 -654.6,689.8 -654.6,689.6 -654.5,689.4 -654.4,689.2 -654.4,689.2 -654.4,689.2 -654.3,689.2 
				-654.3,689.2 -654.5,689.2 -654.5,689.2 -654.7,689.3 -654.7,689.4 -654.8,689.4 -655,689.5 -655,689.6 -655.1,689.6 
				-655.1,689.8 -655.2,690 -655.2,690.2 -655.1,690.3 -655.1,690.3 -655.2,690.3 -655.2,690 -655.3,689.8 -655.3,689.8 
				-655.2,689.8 -655.3,689.8 -655.4,689.9 -655.4,690 -655.4,690 -655.5,690.1 -655.5,690.1 -655.6,690.2 -655.6,690.2 -655.6,690 
				-655.6,689.9 -655.6,689.8 -655.5,689.8 -655.4,689.7 -655.3,689.6 -655.3,689.6 -655.2,689.5 -655.2,689.5 -655.2,689.4 
				-655.1,689.4 -655,689.3 -654.9,689.2 -654.7,689.2 -654.7,689.1 -654.5,689 -654.4,689 			"/>
			<path class="st15" d="M-654.7,688l0.2,0.3l0.1,0.2v0.1v0.1l-0.1,0.1v0.1v0.1l0.1,0.1l0.2,0.1l0.3,0.1h0.3l0.3-0.1l0.3-0.1
				l0.3-0.1l0.2-0.1l0.1-0.1v-0.1l-0.1-0.1l-0.1-0.1l-0.2-0.1l-0.1-0.1l-0.1-0.1l-0.1-0.1V688l0.1-0.3l-0.1-0.4l-0.2-0.3l-0.2-0.3
				h-0.1h-0.1h-0.1l-0.1,0.1l-0.1,0.1l-0.1,0.1l-0.2,0.1h-0.3 M-654.7,688l0.2,0.3l0.1,0.2v0.1v0.1l-0.1,0.1v0.1v0.1l0.1,0.1
				l0.2,0.1l0.3,0.1h0.3l0.3-0.1l0.3-0.1l0.3-0.1l0.2-0.1l0.1-0.1v-0.1l-0.1-0.1l-0.1-0.1l-0.2-0.1l-0.1-0.1l-0.1-0.1l-0.1-0.1V688
				l0.1-0.3l-0.1-0.4l-0.2-0.3l-0.2-0.3h-0.1h-0.1h-0.1l-0.1,0.1l-0.1,0.1l-0.1,0.1l-0.2,0.1h-0.3 M-652.5,688.8L-652.5,688.8h0.2
				l0.1-0.1v-0.2v-0.1v-0.1l0.1-0.1l0.1-0.1l0.1-0.1l0.1-0.1l0.2-0.1h0.2l0.1-0.3v-0.3v-0.3v-0.3v-0.2l-0.1-0.1l-0.1-0.1l-0.1-0.1
				 M-652.5,688.8L-652.5,688.8h0.2l0.1-0.1v-0.2v-0.1v-0.1l0.1-0.1l0.1-0.1l0.1-0.1l0.1-0.1l0.2-0.1h0.2l0.1-0.3v-0.3v-0.3v-0.3
				v-0.2l-0.1-0.1l-0.1-0.1l-0.1-0.1"/>
			<polygon class="st15" points="-652.5,688.5 -652.4,688.5 -652.3,688.6 -652.2,688.6 -652.1,688.8 -652.1,688.9 -652,689 
				-651.9,689.1 -651.8,689.2 -651.7,689.4 -651.5,689.5 -651.4,689.6 -651.3,689.6 -651.2,689.6 -651,689.7 -650.9,689.8 
				-650.7,689.8 -650.5,689.9 -650.3,690 -650.1,690 -650,690.1 -649.9,690.2 -649.8,690.3 -649.7,690.4 -649.5,690.4 -649.4,690.6 
				-649.3,690.6 -649.3,690.7 -649.3,690.8 -649.3,690.9 -649.3,691 -649.4,690.9 -649.5,690.8 -649.5,690.7 -649.7,690.6 
				-649.7,690.5 -649.8,690.5 -649.9,690.5 -649.9,690.6 -649.9,690.7 -649.9,690.8 -649.8,691.1 -649.7,691.4 -649.7,691.8 
				-649.8,692.1 -650,692.5 -650,692.8 -649.9,692.9 -649.9,693.1 -649.9,693.1 -649.9,693.1 -650,693.2 -650,693.1 -650.1,692.9 
				-650.1,692.7 -650.1,692.6 -650.1,692.5 -650.2,692.7 -650.2,693 -650.3,693.3 -650.3,693.5 -650.5,693.5 -650.5,693.5 
				-650.5,693.5 -650.4,693.3 -650.4,693.2 -650.4,693.1 -650.4,692.9 -650.4,692.8 -650.4,692.9 -650.5,692.9 -650.5,693.1 
				-650.5,693.1 -650.5,693.3 -650.6,693.4 -650.7,693.5 -650.9,693.6 -650.9,693.5 -650.7,693.4 -650.7,693.2 -650.6,692.9 
				-650.7,692.9 -650.8,693.1 -650.9,693.3 -650.9,693.4 -650.9,693.5 -651,693.7 -651.1,693.7 -651.1,693.8 -651.2,693.9 
				-651.1,693.7 -651,693.5 -651,693.3 -651,693.1 -651,693.1 -651.1,693.2 -651.2,693.3 -651.2,693.5 -651.2,693.5 -651.2,693.6 
				-651.3,693.7 -651.4,693.8 -651.5,693.9 -651.6,693.9 -651.7,694.1 -651.7,694.1 -651.8,694.2 -651.9,694.3 -651.9,694.3 
				-652,694.4 -652,694.5 -652.1,694.5 -652.1,694.5 -652.1,694.5 -652.1,694.5 -652.1,694.5 -652,694.4 -651.9,694.3 -651.9,694.1 
				-651.8,694.1 -651.7,693.9 -651.7,693.9 -651.6,693.8 -651.5,693.7 -651.4,693.6 -651.4,693.5 -651.5,693.5 -651.5,693.5 
				-651.7,693.5 -651.8,693.7 -651.9,693.7 -651.9,693.9 -652,693.9 -652.1,693.9 -652.3,693.9 -652.4,693.9 -652.4,693.9 
				-652.5,693.9 -652.4,693.9 -652.3,693.9 -652.2,693.9 -652.1,693.8 -652.1,693.7 -651.9,693.7 -651.9,693.5 -651.8,693.5 
				-651.7,693.4 -651.7,693.3 -651.9,693.3 -651.9,693.3 -652,693.2 -652.1,693.2 -652.1,693.3 -652.1,693.3 -652.2,693.3 
				-652.3,693.4 -652.3,693.4 -652.4,693.4 -652.5,693.4 -652.5,693.4 -652.6,693.3 -652.7,693.3 -652.7,693.3 -652.7,693.2 
				-652.7,693.1 -652.6,693.1 -652.6,693.2 -652.5,693.3 -652.5,693.3 -652.5,693.3 -652.5,693.3 -652.4,693.3 -652.4,693.3 
				-652.4,693.3 -652.3,693.3 -652.3,693.2 -652.3,693.2 -652.3,693.2 -652.2,693.1 -652.1,693.1 -652,693.1 -651.9,693.1 
				-651.9,693.1 -651.7,693.2 -651.7,693.2 -651.6,693.3 -651.5,693.3 -651.5,693.3 -651.4,693.3 -651.3,693.3 -651.3,693.2 
				-651.2,693.1 -651.1,693.1 -651.1,693 -651.1,693 -651.2,693 -651.3,693 -651.3,693 -651.4,693 -651.5,693 -651.5,693 
				-651.5,693 -651.6,692.9 -651.7,692.9 -651.8,692.9 -651.9,692.9 -651.9,692.9 -652,692.9 -652.1,692.9 -652.1,692.9 
				-652.1,692.9 -652,692.9 -651.9,692.8 -651.8,692.8 -651.7,692.9 -651.6,692.9 -651.5,692.9 -651.3,692.9 -651.2,692.9 
				-651.1,692.9 -650.9,692.9 -650.9,692.8 -650.8,692.8 -650.8,692.7 -650.7,692.7 -650.7,692.7 -650.8,692.7 -650.9,692.7 
				-651,692.7 -651.1,692.7 -651.3,692.7 -651.4,692.6 -651.5,692.5 -651.6,692.3 -651.5,692.3 -651.5,692.4 -651.4,692.4 
				-651.3,692.5 -651.3,692.5 -651.2,692.5 -651.1,692.6 -651.1,692.6 -651.1,692.7 -651,692.7 -650.9,692.7 -650.9,692.7 
				-650.9,692.7 -650.8,692.7 -650.7,692.7 -650.7,692.7 -650.6,692.6 -650.5,692.6 -650.5,692.6 -650.4,692.6 -650.3,692.5 
				-650.3,692.5 -650.3,692.4 -650.2,692.4 -650.2,692.3 -650.1,692.3 -650.1,692.2 -650.1,692.2 -650.2,692.3 -650.3,692.3 
				-650.3,692.3 -650.5,692.4 -650.5,692.4 -650.6,692.4 -650.7,692.4 -650.8,692.4 -650.9,692.4 -650.9,692.4 -650.9,692.4 
				-650.9,692.3 -650.9,692.3 -650.8,692.3 -650.7,692.3 -650.7,692.3 -650.6,692.3 -650.5,692.3 -650.5,692.3 -650.4,692.2 
				-650.3,692.2 -650.3,692.1 -650.2,692.1 -650.1,692.1 -650.1,692.1 -650.1,692 -650,692 -649.9,692 -649.9,691.9 -649.9,691.8 
				-649.9,691.8 -649.9,691.8 -649.9,691.6 -649.8,691.6 -649.9,691.4 -649.9,691.3 -649.9,691.2 -650.1,691 -650.1,690.8 
				-650.1,690.6 -650.1,690.4 -650.1,690.4 -650.2,690.3 -650.3,690.2 -650.4,690.2 -650.5,690.2 -650.7,690.2 -650.7,690.1 
				-650.7,690.2 -650.7,690.3 -650.7,690.4 -650.7,690.5 -650.5,690.6 -650.4,690.7 -650.3,690.8 -650.3,691 -650.3,690.9 
				-650.4,690.9 -650.5,690.8 -650.5,690.8 -650.6,690.8 -650.7,690.7 -650.7,690.7 -650.8,690.6 -650.9,690.4 -650.9,690.2 
				-650.9,690.1 -650.9,690 -651.1,690 -651.1,689.9 -651.3,689.8 -651.4,689.8 -651.4,689.9 -651.3,690 -651.3,690.1 -651.2,690.2 
				-651.1,690.3 -651.1,690.4 -651.1,690.6 -651.1,690.7 -651.1,690.8 -651.1,691 -651.1,691 -651,691.1 -650.9,691.1 -650.8,691.1 
				-650.8,691.1 -650.7,691.2 -650.7,691.2 -650.7,691.2 -650.6,691.2 -650.6,691.1 -650.6,691.2 -650.7,691.2 -650.7,691.2 
				-650.8,691.2 -650.8,691.2 -650.9,691.2 -650.9,691.2 -651,691.2 -651.1,691.2 -651.1,691.1 -651.2,691.1 -651.3,691 -651.3,691 
				-651.3,690.8 -651.3,690.8 -651.3,690.6 -651.3,690.6 -651.3,690.4 -651.3,690.3 -651.4,690.2 -651.5,690 -651.5,690 
				-651.6,689.8 -651.6,689.7 -651.6,689.7 -651.7,689.7 -651.7,689.7 -651.7,689.8 -651.7,689.8 -651.8,689.9 -651.9,690 
				-651.9,690 -651.9,690.1 -652,690.2 -652,690.2 -652,690.3 -652,690.4 -652,690.6 -652,690.7 -652,690.8 -652.1,690.9 
				-652.1,691 -652.2,691 -652.3,691 -652.3,691 -652.2,690.8 -652.1,690.7 -652.1,690.6 -652.1,690.4 -652.1,690.3 -652.2,690.2 
				-652.2,690.2 -652.3,690.1 -652.3,690.1 -652.4,690 -652.5,690 -652.6,690 -652.7,690 -652.7,690.1 -652.8,690.2 -652.8,690.2 
				-652.7,690.3 -652.8,690.2 -652.9,690.1 -652.8,690 -652.8,689.9 -652.7,689.9 -652.7,689.8 -652.5,689.8 -652.5,689.9 
				-652.4,689.9 -652.3,690 -652.3,690 -652.2,690 -652.1,690 -652.1,690 -652,689.9 -651.9,689.8 -651.9,689.8 -651.9,689.7 
				-651.9,689.6 -651.9,689.6 -651.9,689.4 -651.9,689.4 -652.1,689.3 -652.1,689.2 -652.2,689 -652.3,689 -652.3,688.9 
				-652.4,688.8 -652.5,688.8 -652.5,688.7 -652.5,688.7 -652.5,688.6 -652.5,688.6 			"/>
		</g>
		<path class="st11" d="M-650.3,741.6c-0.5,0.1-0.6,1-1.3,0.6c-0.7-0.4-1.1-0.1-1.3,0.7s-1.9,1.8-1.9,1.8s-1.7-0.9-1.9-1.8
			c-0.2-0.9-0.6-1.1-1.3-0.7c-0.7,0.4-0.8-0.5-1.3-0.6c-0.5-0.1-1.1,0.5-0.5,1.2c0.6,0.7,1.1,1.6,1.8,1.7c0.7,0.1,0.7,0.5,0.5,0.9
			c-0.1,0.4-0.4,1.6,0.3,1.3c0.7-0.3,1.2-1,1.6-0.6c0.4,0.5-0.4,1.6,0.7,1.6s0.3-1.2,0.7-1.6c0.4-0.5,0.9,0.3,1.6,0.6
			c0.7,0.3,0.5-0.9,0.3-1.3c-0.1-0.4-0.2-0.7,0.5-0.9c0.7-0.1,1.2-1.1,1.8-1.7C-649.2,742.1-649.8,741.5-650.3,741.6z"/>
		<path class="st11" d="M-651.1,740.4c-0.4,0.1-0.5,0.8-1.1,0.5c-0.6-0.3-0.9-0.1-1.1,0.6c-0.1,0.7-1.5,1.5-1.5,1.5
			s-1.4-0.8-1.5-1.5c-0.1-0.7-0.5-0.9-1.1-0.6c-0.6,0.3-0.7-0.4-1.1-0.5s-0.9,0.5-0.3,1c0.5,0.5,0.9,1.3,1.5,1.4
			c0.6,0.1,0.5,0.4,0.5,0.7c-0.1,0.3-0.3,1.3,0.3,1.1c0.6-0.3,1-0.8,1.3-0.5c0.3,0.3-0.3,1.3,0.5,1.3c0.9,0,0.2-1,0.5-1.3
			c0.3-0.3,0.7,0.2,1.3,0.5c0.6,0.3,0.3-0.8,0.3-1.1c-0.1-0.3-0.2-0.6,0.5-0.7c0.6-0.1,1-0.9,1.5-1.4
			C-650.3,740.9-650.7,740.3-651.1,740.4z"/>
		<path class="st11" d="M-651.1,737.9c-0.4,0.1-0.5,0.8-1.1,0.5c-0.6-0.3-0.9-0.1-1.1,0.6c-0.1,0.7-1.5,1.5-1.5,1.5
			s-1.4-0.8-1.5-1.5c-0.1-0.7-0.5-0.9-1.1-0.6c-0.6,0.3-0.7-0.4-1.1-0.5c-0.4-0.1-0.9,0.5-0.3,1c0.5,0.5,0.9,1.3,1.5,1.4
			c0.6,0.1,0.5,0.4,0.5,0.7c-0.1,0.3-0.3,1.3,0.3,1.1c0.6-0.3,1-0.8,1.3-0.5c0.3,0.3-0.3,1.3,0.5,1.3c0.9,0,0.2-1,0.5-1.3
			s0.7,0.2,1.3,0.5c0.6,0.3,0.3-0.8,0.3-1.1c-0.1-0.3-0.2-0.6,0.5-0.7c0.6-0.1,1-0.9,1.5-1.4C-650.3,738.4-650.7,737.9-651.1,737.9z
			"/>
		<path class="st11" d="M-651.1,735.5c-0.4,0.1-0.5,0.8-1.1,0.5c-0.6-0.3-0.9-0.1-1.1,0.6c-0.1,0.7-1.5,1.5-1.5,1.5
			s-1.4-0.8-1.5-1.5c-0.1-0.7-0.5-0.9-1.1-0.6c-0.6,0.3-0.7-0.4-1.1-0.5s-0.9,0.5-0.3,1c0.5,0.5,0.9,1.3,1.5,1.4
			c0.6,0.1,0.5,0.4,0.5,0.7c-0.1,0.3-0.3,1.3,0.3,1.1c0.6-0.3,1-0.9,1.3-0.5c0.3,0.3-0.3,1.3,0.5,1.3c0.9,0,0.2-1,0.5-1.3
			c0.3-0.3,0.7,0.2,1.3,0.5c0.6,0.3,0.3-0.8,0.3-1.1c-0.1-0.3-0.2-0.6,0.5-0.7c0.6-0.1,1-0.9,1.5-1.4
			C-650.3,735.9-650.7,735.4-651.1,735.5z"/>
		<path class="st11" d="M-651.2,733c-0.4,0.1-0.5,0.8-1.1,0.5c-0.6-0.3-0.9-0.1-1.1,0.6c-0.1,0.7-1.5,1.5-1.5,1.5s-1.4-0.8-1.5-1.5
			c-0.1-0.7-0.5-0.9-1.1-0.6c-0.6,0.3-0.7-0.4-1.1-0.5c-0.4-0.1-0.9,0.5-0.3,1c0.5,0.5,0.9,1.3,1.5,1.4c0.6,0.1,0.5,0.4,0.5,0.7
			c-0.1,0.3-0.3,1.3,0.3,1.1c0.6-0.3,1-0.8,1.3-0.5c0.3,0.3-0.3,1.3,0.5,1.3s0.2-0.9,0.5-1.3c0.3-0.3,0.7,0.2,1.3,0.5
			c0.6,0.3,0.3-0.7,0.3-1.1c-0.1-0.3-0.1-0.6,0.5-0.7c0.6-0.1,1-0.9,1.5-1.4C-650.3,733.5-650.7,733-651.2,733z"/>
		<path class="st11" d="M-651.2,730.9c-0.4,0.1-0.5,0.8-1.1,0.5c-0.6-0.3-0.9-0.1-1.1,0.6c-0.1,0.7-1.5,1.5-1.5,1.5
			s-1.4-0.8-1.5-1.5c-0.1-0.7-0.5-0.9-1.1-0.6c-0.6,0.3-0.7-0.4-1.1-0.5c-0.4-0.1-0.9,0.5-0.3,1c0.5,0.5,0.9,1.3,1.5,1.4
			c0.6,0.1,0.5,0.4,0.5,0.7c-0.1,0.3-0.3,1.3,0.3,1.1c0.6-0.3,1-0.8,1.3-0.5c0.3,0.3-0.3,1.3,0.5,1.3s0.2-0.9,0.5-1.3
			c0.3-0.3,0.7,0.2,1.3,0.5c0.6,0.3,0.3-0.7,0.3-1.1c-0.1-0.3-0.1-0.6,0.5-0.7c0.6-0.1,1-0.9,1.5-1.4
			C-650.3,731.3-650.7,730.9-651.2,730.9z"/>
		<path class="st11" d="M-651.5,728.3c-0.4,0.1-0.5,0.7-1,0.4c-0.5-0.3-0.9-0.1-1,0.5c-0.1,0.6-1.4,1.3-1.4,1.3s-1.3-0.7-1.4-1.3
			c-0.1-0.6-0.5-0.8-1-0.5c-0.5,0.3-0.6-0.4-1-0.4c-0.4-0.1-0.8,0.4-0.3,0.9c0.5,0.5,0.8,1.2,1.3,1.3c0.5,0.1,0.5,0.4,0.4,0.7
			c-0.1,0.3-0.3,1.2,0.3,1c0.5-0.2,0.9-0.7,1.2-0.4c0.3,0.3-0.3,1.2,0.5,1.2c0.8,0,0.2-0.9,0.5-1.2c0.3-0.3,0.7,0.2,1.2,0.4
			c0.5,0.2,0.3-0.7,0.3-1c-0.1-0.3-0.1-0.5,0.4-0.7c0.5-0.1,0.9-0.8,1.3-1.3C-650.7,728.7-651.1,728.3-651.5,728.3z"/>
		<g>
			<path class="st11" d="M-650.1,749.6c0.8-0.9,2.6-4.5,2.1-4.4c-0.5,0.1-0.9,0.3-2.8,3c0,0-1,0.8-2.2,0.2c-0.8-0.4-1.3-0.2-1.5,0.1
				c-0.3-0.3-0.7-0.5-1.5-0.1c-1.2,0.6-2.2-0.2-2.2-0.2c-1.9-2.7-2.3-2.8-2.8-3c-0.5-0.1,1.3,3.5,2.1,4.4c0.8,0.9,0.6,2.5-0.3,3.4
				s-0.5,1.7,0,2c0.5,0.3,1.7,1.7,2.1,3s1.2,1.7,1.5,1.6c0.3-0.1,0.7-0.5,1.1-0.7c0.3,0.3,0.8,0.7,1.1,0.7c0.3,0.1,1.1-0.3,1.5-1.6
				s1.6-2.6,2.1-3c0.5-0.3,0.9-1.1,0-2C-650.7,752.1-650.9,750.5-650.1,749.6z"/>
			<path class="st11" d="M-656.1,767.5c0,0-0.8,0.4-0.5,0.5c0.3,0.2,0.9,0.6,0.9,0.9c0,0.3,0.4,1.5,0.9,1.5c0.5,0.1,0.6-0.7,1.3-1.5
				c0.7-0.8,1-1.1,0.5-1.4S-654.2,766.1-656.1,767.5z"/>
			<path class="st11" d="M-655.6,761.6c0,0-6.4-1.4-6.4-5.7c0,0-0.3-1.4,3-1.3c0,0,0.8,0,1.1-1.5c0.4-1.5-3-8.4-4.2-9.3
				c0,0-2.6-1.5-5.6-0.7c-3,0.8-4.2,4.7-3.1,6.4c1.1,1.7,3.8,6.4,3.6,7.8c-0.3,1.3,1.3,1.5,2,2.9c0.7,1.3,0.3,2.7,1.4,2.9
				c1.1,0.1-0.3,1.3,0.1,1.8c0.4,0.5,3.6,4.3,8.7,0L-655.6,761.6z M-658.3,765.1c-1,1.1-2.7-2.7-2.7-2.7c-0.1-0.5,0.3-0.8,1.5-0.8
				C-658.6,761.6-657.3,764.1-658.3,765.1z"/>
			<path class="st11" d="M-641.5,743.1c-3-0.8-5.6,0.7-5.6,0.7c-1.2,0.8-4.5,7.7-4.2,9.3c0.4,1.5,1.1,1.5,1.1,1.5
				c3.2-0.1,3,1.3,3,1.3c0.1,4.3-6.4,5.7-6.4,5.7l-0.5,3.2c5.1,4.3,8.2,0.5,8.7,0c0.4-0.5-1-1.7,0.1-1.8s0.7-1.5,1.4-2.9
				c0.7-1.3,2.2-1.6,2-2.9c-0.3-1.3,2.4-6,3.6-7.8C-637.2,747.8-638.5,743.9-641.5,743.1z M-650.8,765.1c-1-1.1,0.2-3.6,1.3-3.6
				c1.1,0,1.5,0.3,1.5,0.8C-648,762.4-649.7,766.2-650.8,765.1z"/>
		</g>
		<path class="st12" d="M-646.6,663c0.1-0.2,0.1-0.4,0.2-0.7v-0.1c0.1-0.2,0.1-0.4,0.2-0.6v-0.1c0.1-0.2,0.1-0.5,0.1-0.7
			c0-0.1,0-0.1,0-0.1c0.1-0.5,0.1-0.9,0.2-1.5c0-0.1,0-0.1,0-0.1c0-0.3,0-0.5,0-0.8c0-0.1,0-0.1,0-0.1c0-0.3-0.1-0.5-0.1-0.8
			c0-0.1,0-0.1,0-0.1c-0.1-0.3-0.1-0.6-0.1-0.9c0-0.1,0-0.1-0.1-0.2c-0.1-0.3-0.1-0.7-0.3-1c-1.8-6-8.3-5.8-8.3-5.8
			s-6.5-0.1-8.3,5.8c-0.1,0.3-0.2,0.7-0.3,1c0,0.1,0,0.1-0.1,0.2c-0.1,0.3-0.1,0.6-0.1,0.9c0,0.1,0,0.1,0,0.1c0,0.3-0.1,0.5-0.1,0.8
			c0,0.1,0,0.1,0,0.1c0,0.3,0,0.5,0,0.8c0,0.1,0,0.1,0,0.1c0,0.5,0.1,1,0.2,1.5c0,0.1,0,0.1,0,0.1c0.1,0.2,0.1,0.5,0.1,0.7v0.1
			c0.1,0.2,0.1,0.4,0.2,0.6v0.1c0.1,0.2,0.1,0.4,0.2,0.7v0.1c0.1,0.2,0.1,0.4,0.3,0.6c-0.3,0.1-0.8,0.6-0.7,1.3
			c0.2,0.7,0.9,1.5,0.9,1.9s0.3,1.5,1.1,1.7c0.3,2.8,0.3,4.6,0.7,5c0.3,0.4,2.1,1.9,2.4,2.5c0.3,0.5,1.5,1.3,2.1,1.5
			c0.6,0.1,1.2,0,1.2,0s0.6,0.1,1.2,0c0.6-0.1,1.9-0.9,2.1-1.5c0.3-0.5,2.1-2,2.4-2.5c0.3-0.4,0.3-2.1,0.7-5
			c0.8-0.3,1.1-1.3,1.1-1.7c0-0.5,0.7-1.2,0.9-1.9c0.2-0.7-0.3-1.1-0.6-1.3C-646.8,663.5-646.8,663.3-646.6,663
			C-646.6,663.1-646.6,663-646.6,663z"/>
		<g>
			<polyline class="st16" points="-659.2,660.9 -659.2,660.6 -659.4,660.9 -659.6,660.5 -659.8,660.4 -660.4,660.5 -660.9,660.2 
				-661,659.9 -661.6,660 			"/>
			<polyline class="st16" points="-659.6,660.5 -659.2,659.7 -658.7,659.6 -658.4,658.8 -657.6,658.8 -657.7,657.9 -657.4,657.9 
				-657.3,658.2 -657,658.3 -656.8,658.2 -656.5,657.2 -655.8,657.4 -655.4,657 -654.8,656.6 -655.4,655.6 -655.2,654.6 
				-655.6,654.4 -655.2,654.3 -655.2,653.8 -655.7,653.4 -655.7,652.7 -655.2,652.4 -655.5,651.7 -655.2,651.1 -655.4,650.9 
				-655.8,650.9 -655.3,650.4 -655.6,650 -655.4,649.3 			"/>
			<polyline class="st16" points="-655.4,657 -654.9,657.2 -654.5,657.1 -654.2,657.9 -653.5,658 -653.3,658.4 -652.5,658.3 
				-651.8,658.7 -651.9,659.3 -651.7,659.8 -650.8,659.7 -650.6,660.3 -650.1,660.8 -650.1,661.3 -649.8,661.1 -649.6,661.5 			"/>
			<polyline class="st16" points="-648.4,660.1 -648.8,660.3 -649,660 -649.3,660.3 -649.3,660.7 -649.5,660.9 -649.6,661.5 
				-650.1,661.7 -650.1,661.8 			"/>
		</g>
		<g>
			<path class="st12" d="M-661.5,661.6c0,0,0,1.4,1.6,1.4c1.7,0,2.3-0.4,3.1-1.7s0.9-2.5,0-3c-0.9-0.4-2.6-0.3-3.6,0.3
				c-0.9,0.6-0.8,1.1-0.9,1.3C-661.3,660.4-661.5,661.6-661.5,661.6z"/>
			<path class="st12" d="M-648,661.6c0,0,0,1.4-1.6,1.4c-1.7,0-2.3-0.4-3.1-1.7c-0.7-1.3-0.9-2.5,0-3c0.9-0.4,2.6-0.3,3.6,0.3
				c0.9,0.6,0.8,1.1,0.9,1.3C-648.2,660.4-648,661.6-648,661.6z"/>
			<g>
				<path class="st0" d="M-654.1,666.8c-0.1,0-0.1,0-0.2,0c-0.1,0-0.1-0.1-0.2-0.1c-0.1,0.1-0.1,0.1-0.2,0.1c-0.1,0-0.1,0-0.2,0
					c-0.4,0-0.7-0.2-1-0.5c-0.3-0.4-0.3-0.9-0.1-1.3c0.1-0.3,0.2-0.6,0.3-0.9c0.5-1.5,0.7-2.2,1.2-2.2h0.1c0.5,0,0.7,0.6,1.2,2.2
					c0.1,0.3,0.2,0.7,0.3,0.9c0.2,0.5,0.1,1-0.1,1.3C-653.3,666.6-653.7,666.8-654.1,666.8L-654.1,666.8z"/>
				<path class="st17" d="M-654.5,662.1c0.4,0,0.9,2.1,1.2,3c0.3,0.9-0.3,1.5-0.8,1.5c-0.1,0-0.1,0-0.1,0c-0.1-0.1-0.3-0.2-0.3-0.5
					c-0.1,0.3-0.1,0.4-0.3,0.5c-0.1,0-0.1,0-0.1,0c-0.5,0-1.1-0.5-0.8-1.5C-655.4,664.2-655,662.1-654.5,662.1
					C-654.5,662.1-654.5,662.1-654.5,662.1C-654.5,662.1-654.5,662.1-654.5,662.1 M-654.5,661.4
					C-654.5,661.4-654.5,661.4-654.5,661.4C-654.5,661.4-654.5,661.4-654.5,661.4L-654.5,661.4c-0.8,0-1.1,0.9-1.6,2.4
					c-0.1,0.3-0.2,0.7-0.3,0.9c-0.2,0.6-0.2,1.2,0.1,1.7c0.3,0.4,0.8,0.7,1.3,0.7c0.1,0,0.2,0,0.3-0.1c0.1,0,0.1,0,0.1-0.1
					c0.1,0,0.1,0.1,0.1,0.1c0.1,0,0.2,0.1,0.3,0.1c0.5,0,1-0.3,1.3-0.7c0.3-0.5,0.4-1.1,0.1-1.7c-0.1-0.2-0.2-0.6-0.3-0.9
					C-653.4,662.3-653.7,661.4-654.5,661.4L-654.5,661.4L-654.5,661.4L-654.5,661.4z"/>
			</g>
		</g>
		<path class="st10" d="M-668.3,708.7c-0.1-0.7-0.3-1.3-0.5-1.9c0.8-1.9,0.9-4,0.5-6l0.8,0.2l0.5-1.4c0.7-0.3,1-0.1,1-1.3
			c0.2,0.1,0.4,0.1,0.6,0.1"/>
		<path class="st10" d="M-665.3,680.9v-0.2c-0.2,0.1-0.3,0.1-0.5,0.1c-0.3,0.1-0.7,0.2-1,0.3c-0.3,0.1-0.6,0.1-0.9,0.1
			c0.4-0.1,0.5-0.1,0.2,0c-0.2,0.1-0.5,0.1-0.7,0.1c-0.9,0.2-1.7,0.6-2.6,0.7c-0.3,0.1-0.5,0.2-0.8,0.2c-0.1,0.1-0.1,0.1-0.2,0.2
			c-0.8,0-2.3-0.3-2,1.1c-0.5,0.1-0.9,0.1-1.3,0.1c-2.9-0.1-4.3,2.9-4,8.6c0.1,1.3-0.8,4,1.1,5.7c0,2.1,0.8,4.3,0.7,6.3
			c-0.1,2.5,1,3.6,2,4.8"/>
		<path class="st12" d="M-670.8,709.2c-0.4-1.3-0.7-2.7-1.4-3.9"/>
		<path class="st12" d="M-672.5,709.5c-0.3-2.2,0.7-4.8-0.1-7c-0.8-2.2,0.5-6.9-2-7.6"/>
		<path class="st12" d="M-671.7,695.9c0.8,2.8,0.2,3.8-0.9,6.1"/>
		<path class="st12" d="M-672.3,701.2c1.1,3.5,2.6,4.8,3.5,6.7"/>
		<path class="st12" d="M-665.9,699.6c-3.8-0.9-7-7.2-10.9-3.6c-1,1-1.3,2.1-1.3,3.3"/>
		<path class="st12" d="M-676.8,696.1c0.1-1.1,0.6-2.1,0.5-3.2"/>
		<path class="st12" d="M-674,694.9c1.4-0.8,2.8-1.7,3.8-3"/>
		<path class="st12" d="M-670,694.3c-1.1,0.5-2.4-0.1-3.6,0.3"/>
		<path class="st12" d="M-676.3,695.7c4-4.2,1.2-9.3,6.2-11.2c1.1-0.5,2.7-0.7,4.8-0.8"/>
		<path class="st12" d="M-675.5,687.9c0.1-1.1,0.7-1.9,1.5-2.5c1.3-0.3,2.6-0.7,3.8-0.9"/>
	</g>
</g>
</svg>
