<?xml version="1.0" encoding="utf-8"?>
<!-- Generator: Adobe Illustrator 19.0.1, SVG Export Plug-In . SVG Version: 6.00 Build 0)  -->
<svg version="1.1" xmlns="http://www.w3.org/2000/svg" xmlns:xlink="http://www.w3.org/1999/xlink" x="0px" y="0px"
	 viewBox="0 0 625.5 293.1" style="enable-background:new 0 0 625.5 293.1;" xml:space="preserve">
<style type="text/css">
	.st0{display:none;}
	.st1{display:inline;fill:none;stroke:#BCBA40;stroke-width:4;stroke-linecap:round;stroke-linejoin:round;stroke-miterlimit:10;}
	.st2{display:inline;}
	.st3{fill:none;stroke:#BCBA40;stroke-width:4;stroke-linecap:round;stroke-linejoin:round;stroke-miterlimit:10;}
	.st4{fill:none;}
	.st5{fill:#FFFFFF;}
	.st6{font-family:'HelveticaNeue-Medium';}
	.st7{font-size:36px;}
	.st8{fill:none;stroke:#BCBA40;stroke-width:4;stroke-linecap:round;stroke-miterlimit:10;stroke-dasharray:12.0321,12.0321;}
	.st9{fill:none;stroke:#BCBA40;}
	.st10{fill:none;stroke:#BCBA40;stroke-miterlimit:10;}
	.st11{fill:none;stroke:#BCBA40;stroke-width:0.75;stroke-miterlimit:10;}
	.st12{fill:#009FE3;stroke:#BCBA40;stroke-width:0.75;stroke-miterlimit:10;}
	.st13{fill:#444444;stroke:#BCBA40;stroke-width:0.5;}
	.st14{fill:#444444;stroke:#BCBA40;stroke-width:2;}
	.st15{fill:#444444;stroke:#BCBA40;stroke-width:0.75;}
	.st16{fill:none;stroke:#BCBA40;stroke-width:0.75;}
</style>
<g id="Layer_1">
	<g>
		<g class="st0">
			<path class="st1" d="M242.5,105c0.7-0.8,47.6-14.8,47.6-14.8l48.9,16.2"/>
			<line class="st1" x1="289.8" y1="52.9" x2="242" y2="104.6"/>
			<line class="st1" x1="290.2" y1="53.2" x2="287.6" y2="27.3"/>
			<path class="st1" d="M241.5,39.9c3.1-2.1,46.1-12.6,46.1-12.6L339,39.9l-48.7,13.6L241.5,39.9z"/>
			<polyline class="st1" points="339,39.9 339,106.3 290.2,120.6 290.2,53.5 			"/>
			<polyline class="st1" points="241.5,39.9 241.5,104.9 290.2,120.6 			"/>
			<g class="st2">
				<path class="st3" d="M284.3,178.1c0.7-0.8,47.6-14.8,47.6-14.8l48.9,16.2"/>
				<line class="st3" x1="331.5" y1="125.9" x2="283.7" y2="177.6"/>
				<line class="st3" x1="332" y1="126.3" x2="329.4" y2="100.4"/>
				<path class="st3" d="M283.3,112.9c3.1-2.1,46.1-12.6,46.1-12.6l51.3,12.6L332,126.6L283.3,112.9z"/>
				<polyline class="st3" points="380.7,112.9 380.7,179.3 332,193.6 332,126.6 				"/>
				<polyline class="st3" points="283.3,112.9 283.3,177.9 332,193.6 				"/>
			</g>
			<g class="st2">
				<path class="st3" d="M193.8,167.9c0.7-0.8,47.6-14.8,47.6-14.8l48.9,16.2"/>
				<line class="st3" x1="241" y1="115.8" x2="193.2" y2="167.5"/>
				<line class="st3" x1="241.5" y1="116.2" x2="238.9" y2="90.2"/>
				<path class="st3" d="M192.8,102.8c3.1-2.1,46.1-12.6,46.1-12.6l51.3,12.6l-48.7,13.6L192.8,102.8z"/>
				<polyline class="st3" points="290.2,102.8 290.2,169.2 241.5,183.5 241.5,116.4 				"/>
				<polyline class="st3" points="192.8,102.8 192.8,167.8 241.5,183.5 				"/>
			</g>
		</g>
		<rect x="183.6" y="215.1" class="st4" width="210.6" height="39"/>
		<text transform="matrix(1 0 0 1 183.6238 240.7939)" class="st5 st6 st7">Module 202</text>
		<g>
			<path class="st8" d="M584,268H33.5c-6.6,0-12-5.4-12-12v-230c0-6.6,5.4-12,12-12H584c6.6,0,12,5.4,12,12v230
				C596,262.6,590.6,268,584,268z"/>
		</g>
	</g>
</g>
<g id="Layer_2">
</g>
<g id="Layer_6">
</g>
<g id="Layer_4">
</g>
<g id="Layer_3">
	<g>
		<path class="st9" d="M315.6,100.2c11.4,25.1-12.6,53.8,1.7,77.6"/>
		<path class="st9" d="M304.7,99.9c-3.4,6-2,13.7-1,20.3c1.2,9.7-1.5,19.2-1.6,28.9c-0.1,19.7,1.5,45.4-16.4,58
			c-17.8-12.7-16.2-38.4-16.4-58c0-9.7-2.7-19.2-1.5-28.9c0.9-6.6,2.4-14.3-1-20.3"/>
		<path class="st9" d="M254,177.8c14.3-23.8-9.7-52.5,1.6-77.6"/>
		<path class="st9" d="M269.3,148.3c0.1,19.7-1.5,45.4,16.4,58c-19,0-20.2-26.1-36-31.6c-4.2-1.5-9.3-5.8-7.1-10.9
			c2.6-6.3-0.8-16.2-3.3-26.4"/>
		<path class="st9" d="M332.1,138.5c-2.5,10.2-5.9,20.1-3.3,26.4c2.1,5.1-2.9,9.3-7.2,10.9c-15.7,5.5-16.9,31.6-35.8,31.6
			c17.8-12.7,16.2-38.4,16.4-58c0-3.6,0.4-7.2,0.8-10.8"/>
		<path class="st9" d="M317.4,177.9c-7.5-12.4-4.5-26.1-1.6-40"/>
		<path class="st9" d="M255.8,138.5c2.9,13.7,5.6,27.2-1.8,39.5"/>
	</g>
</g>
<g id="Layer_7">
	<g>
		<path class="st10" d="M433.7,164.6c-1.1-1-2.2-2.1-3.2-3.3l0,0c-1.9-6.1-6.6-12.1-6.6-12.1c-4.4-3.9-9.8-23-9.8-23
			c-5.4-32.9-21-43.6-21-43.6c2.4-12.9-6.1-33.8-6.1-33.8c1.6-6.1,2.1-12.7,2.1-18.7"/>
		<path class="st10" d="M356.8,208.2c-1.3-23.1-6.5-40.6-6.5-40.6c-2.6-5.9-4-11.5-4-11.5c0-15.1-4.4-36.8-4.4-36.8
			c-2.9-9.5-0.7-20.1-0.7-20.1c5.1-24,12.2-53,12.2-53c1.5,27.6,15.5,54.8,15.5,54.8c0,9.2,4.4,17.1,4.4,17.1
			c16.8,31.4,33.6,49.7,33.6,49.7"/>
		<path class="st10" d="M159.3,167.8c0,0,16.7-18.3,33.6-49.7c0,0,4.4-7.9,4.4-17.1c0,0,14-27.2,15.5-54.8c0,0,7.1,29,12.2,53
			c0,0,2.2,10.5-0.7,20.1c0,0-4.4,21.7-4.4,36.8c0,0-1.5,5.6-4,11.5c0,0-5.2,17.3-6.5,40.3"/>
		<path class="st10" d="M176.9,30.1c0,6,0.5,12.6,2.1,18.7c0,0-8.5,20.8-6.1,33.8c0,0-15.6,10.7-21,43.6c0,0-5.4,19.1-9.7,23
			c0,0-4.6,5.9-6.6,12.1l0,0c-1,1.2-2,2.3-3.2,3.3"/>
	</g>
</g>
<g id="Layer_11">
	<g>
		<path class="st11" d="M281.3,188.7c0,0,0.4-4.5-3.8-6.7c0,0-13.9-4-16.8-8.5c0,0-16.1-11.9-1.5-27.4c0,0,11.5-10.3,38-7.2
			c0,0,15.9,1.7,17.9,15.7c0,0,2.3,18.8-21.2,26.2c0,0-2.8,1.1-3.9,3.6c0,0-0.8,1.7-0.4,4l0.3,8.6c1.8,3.5,1.4,4.1,1.4,4.1
			c-0.7,3.5-4.2,1.6-4.5,1.3c-0.3-0.3-0.9-0.7-1.1-3l0,0c-0.2,2.4-0.8,2.7-1.1,3c-0.3,0.3-3.8,2.3-4.5-1.3c0,0-0.4-0.6,1.4-4.1
			L281.3,188.7z"/>
		<path class="st11" d="M309.7,144c5.3-3.2,0.7-23.6,0.7-23.6l-2.4,0.1c4.2,14.5-0.6,22.1-0.6,22.1L309.7,144z"/>
		<path class="st11" d="M258.2,146.6c-5.7-2.6-3.2-23.4-3.2-23.4l2.4-0.1c-2.7,14.9,2.9,21.8,2.9,21.8L258.2,146.6z"/>
		<path class="st11" d="M282.7,187.6c0,0,0.3-4.4-2.6-6.4c0,0-9.4-3.8-11.3-8.2c0,0-10.9-11.4-1-26.2c0,0,7.8-9.9,25.6-6.9
			c0,0,10.7,1.6,12,15c0,0,1.5,18-14.3,25c0,0-1.9,1.1-2.6,3.5c0,0-0.5,1.6-0.3,3.8l0.2,8.3c1.2,3.3,1,3.9,1,3.9
			c-0.5,3.4-2.8,1.5-3,1.2c-0.2-0.3-0.6-0.6-0.7-2.9l0,0c-0.1,2.3-0.5,2.6-0.7,2.9c-0.2,0.3-2.5,2.2-3-1.2c0,0-0.3-0.6,1-3.9
			L282.7,187.6z"/>
		<path class="st11" d="M275.1,139.5c-47.4,18.8,5.9,42.2,5.9,42.2"/>
		<line class="st12" x1="270.6" y1="144.2" x2="268.9" y2="142.3"/>
		<line class="st12" x1="268.4" y1="146.3" x2="265.6" y2="144.1"/>
		<line class="st12" x1="266.9" y1="148.7" x2="262.9" y2="145.9"/>
		<line class="st12" x1="265.6" y1="151.2" x2="260.6" y2="147.8"/>
		<line class="st12" x1="264.7" y1="153.5" x2="258.9" y2="149.6"/>
		<line class="st12" x1="264.1" y1="155" x2="257.5" y2="151.3"/>
		<line class="st12" x1="263.9" y1="158.1" x2="256.1" y2="153.7"/>
		<line class="st12" x1="263.7" y1="160.7" x2="255.5" y2="156.8"/>
		<path class="st12" d="M263.9,163.8"/>
		<line class="st12" x1="255.9" y1="160.3" x2="264.4" y2="164.1"/>
		<path class="st12" d="M258.4,165.2"/>
		<line class="st12" x1="266.8" y1="170.2" x2="261.3" y2="168.8"/>
		<line class="st12" x1="258.2" y1="165.2" x2="265.2" y2="167.1"/>
		<path class="st12" d="M268.6,172.8c-0.5-0.1-3.2-0.4-3.2-0.4"/>
		<line class="st12" x1="272.7" y1="140.6" x2="273.3" y2="142.5"/>
		<line class="st12" x1="275.2" y1="139.4" x2="275.9" y2="141.1"/>
		<line class="st12" x1="279.1" y1="138.7" x2="279.5" y2="140.2"/>
		<line class="st12" x1="283" y1="138.5" x2="283" y2="139.5"/>
		<line class="st12" x1="287.7" y1="138.2" x2="287.6" y2="139.1"/>
		<line class="st12" x1="293" y1="138.5" x2="292.9" y2="139.8"/>
		<line class="st12" x1="299.3" y1="139.2" x2="296.6" y2="140.9"/>
		<line class="st12" x1="304.4" y1="140.9" x2="299.9" y2="143.1"/>
		<line class="st12" x1="308.2" y1="143.3" x2="302.4" y2="145.9"/>
		<line class="st12" x1="311.9" y1="146.9" x2="304.4" y2="149.9"/>
		<line class="st12" x1="314" y1="150.5" x2="305.3" y2="153.2"/>
		<line class="st12" x1="315" y1="154.5" x2="305.5" y2="157.3"/>
		<line class="st12" x1="314.4" y1="161.2" x2="305" y2="162.5"/>
		<line class="st12" x1="312.8" y1="165.8" x2="303.7" y2="166.6"/>
		<line class="st12" x1="309.1" y1="171.3" x2="301.5" y2="171.3"/>
		<line class="st12" x1="305.7" y1="174.6" x2="298.7" y2="174.6"/>
		<line class="st12" x1="300" y1="178.3" x2="295.2" y2="177.8"/>
		<line class="st12" x1="295.9" y1="180.1" x2="292.2" y2="179.4"/>
	</g>
</g>
<g id="Layer_10">
	<g>
		<g>
			<polyline class="st13" points="261.6,110.7 262.4,110.6 263.7,110.5 265.1,110.4 265.9,110.3 266.6,110.3 267.1,109.6 
				267.3,109.1 267.5,108.4 267.5,107.9 267.4,107.3 267.7,106.8 267.8,106.2 267.9,105.4 268,104.7 268.1,104 268.1,103.3 
				268.1,102.4 268,101.8 267.9,101 267.8,100.7 267.8,100.4 267.9,100 268.1,99.5 268.2,98.6 268.3,97.4 268.3,96.5 268.2,98.2 
				268.3,98.8 268.3,99.2 268.6,100 268.9,100.6 269.4,101.1 269.6,101.3 270.4,101.9 271.1,102.2 270.9,102.9 270.9,103.4 
				270.8,103.7 270.8,103.9 270.8,104.2 270.8,104.4 270.9,104.6 270.9,104.7 270.9,104.9 271,105.2 271,105.4 271.1,105.7 
				271.2,105.9 271.3,106.1 271.4,106.3 271.5,106.3 271.6,106.3 271.7,106.4 271.8,106.3 272,106.3 272.1,106.3 272.3,106.2 
				272.5,106.2 272.6,106.1 272.6,106 272.8,105.9 272.8,105.8 272.4,104.1 272.4,103.7 272.4,103.5 272.5,103.2 272.5,103 
				272.7,102.6 272.9,100.9 273.1,100 273.3,99.1 273.3,98.8 273.4,98.5 273.6,98.1 273.7,97.7 274.1,97.2 274.4,96.8 274.7,96.4 
				275.2,96 275.5,95.8 276,95.4 276.1,95.3 276.1,95.3 276.1,95.2 276.1,95.1 276.1,95.1 276.1,95 276.1,95 276,95 276,94.9 
				275.9,94.8 275.8,94.8 275.8,94.8 275.7,94.8 275.7,94.8 275.6,94.8 275.5,94.8 275.4,94.9 275.3,95 274.8,95.2 274.4,95.4 
				274.2,95.5 274.1,95.5 274,95.5 273.9,95.6 273.7,95.6 273.6,95.5 273.6,95.4 273.5,95.2 273.4,95.1 273.3,94.9 273.1,94.8 
				273.1,94.7 272.8,94.5 272.6,94.4 272.5,94.3 272.3,94.3 272.2,94.3 272,94.3 271.8,94.4 271.8,94.4 271.7,94.6 271.6,94.7 
				271.6,94.7 271.6,94.8 271.9,95 272.4,95.4 272.5,95.5 272.5,95.6 272.6,95.8 272.6,95.9 272.6,96.1 272.5,96.6 272.4,96.8 
				272.1,97.2 272,97.5 271.7,98.1 271.6,98.4 271.4,99 271.2,99.6 271.3,100 271.3,100.4 271.4,100.6 271,100.4 270.5,100 
				270,99.4 269.9,98.7 269.7,97.8 269.7,97.3 269.7,96.8 269.8,96.6 269.8,96.2 269.9,95.9 269.8,95.7 269.7,95.7 269.6,95.6 
				269.3,95.3 268.9,95.2 268.8,95.1 268.3,95.1 267.9,95.1 267.6,95.2 267.4,95.4 267.3,95.4 267.1,95.6 267,95.8 266.9,95.9 
				266.8,96.1 266.7,96.4 266.7,96.6 266.6,96.9 266.7,97.5 266.6,97.9 266.4,98.6 266.2,99.2 266.1,99.6 265.9,100 265.6,100.4 
				265,100.9 264.6,101.2 264.4,101.4 264.1,101.8 263.8,102.2 263.7,102.3 262.7,103.2 261,105 260.5,105.5 260.3,105.8 
				259.8,106.3 259.4,106.9 259.1,107.6 258.9,107.9 258.7,108.4 258.3,109 257.9,109.6 257.3,110.5 257.1,110.7 256.9,110.8 
				256.7,111 256.3,111.1 256,111.3 257.4,111.1 258.9,110.9 259.9,110.8 260.8,110.7 261.6,110.7 			"/>
			<path class="st13" d="M261.6,110.7l0.8-0.1l1.2-0.1l1.4-0.1l0.8-0.1l0.8,0l0.4-0.7l0.2-0.6l0.2-0.7l0-0.6l-0.1-0.5l0.2-0.6
				l0.2-0.6l0.1-0.8l0.1-0.7l0.1-0.7l0-0.7l0-0.8l-0.1-0.7l-0.1-0.7l-0.1-0.3l-0.1-0.3l0.1-0.3l0.2-0.5l0.1-0.9l0-1.1l0-1l-0.1,1.7
				l0,0.6l0.1,0.4l0.3,0.7l0.3,0.6l0.5,0.6l0.2,0.2l0.8,0.6l0.7,0.3l-0.2,0.7l0,0.6l-0.1,0.3l0,0.2l0.1,0.3l0,0.2l0,0.1l0,0.1l0,0.2
				l0.1,0.3l0,0.2l0.1,0.3l0.1,0.2l0.1,0.3l0.1,0.2l0.1,0l0.1,0l0.1,0.1l0.1-0.1l0.2,0l0.1,0l0.2-0.1l0.2,0l0-0.1l0.1-0.1l0.1-0.1
				l0-0.1l-0.4-1.7l0-0.4l0-0.2l0-0.3l0.1-0.2l0.2-0.4l0.3-1.7l0.2-0.9l0.2-1l0-0.3l0.1-0.3l0.2-0.5l0.1-0.4l0.3-0.5l0.3-0.4
				l0.4-0.4l0.5-0.4l0.3-0.2l0.5-0.4l0.1,0l0-0.1l0-0.1l0-0.1l0,0l0-0.1l0,0l-0.1,0l0-0.1l-0.1,0l-0.1,0l0-0.1l-0.1,0l0,0l-0.1,0
				l0,0.1l-0.1,0l-0.1,0.1l-0.5,0.2l-0.4,0.2l-0.2,0.1l-0.1,0l-0.1,0l-0.1,0l-0.2,0l-0.1-0.1l-0.1,0l-0.1-0.2l-0.1-0.1l-0.1-0.2
				l-0.2-0.2l-0.1-0.1l-0.2-0.2l-0.2-0.1l-0.1,0l-0.2-0.1l-0.2,0.1l-0.1,0l-0.2,0.1l-0.1,0.1l-0.1,0.2l-0.1,0.1l0,0l0,0.1l0.4,0.2
				l0.4,0.4l0.1,0.1l0,0.1l0.1,0.1l0,0.1l0,0.1l-0.1,0.5l-0.1,0.3l-0.3,0.4l-0.1,0.3l-0.4,0.6l0,0.3l-0.2,0.6l-0.1,0.6l0.1,0.4
				l0,0.4l0.1,0.3l-0.4-0.3l-0.5-0.4l-0.4-0.6l-0.2-0.7l-0.2-0.9l0-0.5l0.1-0.5l0-0.3l0.1-0.3l0-0.3l-0.1-0.3l-0.1,0l-0.1-0.1
				l-0.4-0.3l-0.4-0.1l-0.1,0l-0.5,0l-0.4,0l-0.3,0.1l-0.2,0.1l-0.1,0.1l-0.2,0.2l-0.1,0.2l-0.1,0.1l-0.1,0.2l-0.1,0.3l0,0.1
				l-0.1,0.3l0.1,0.6l-0.1,0.4l-0.2,0.7l-0.2,0.5l-0.1,0.4l-0.2,0.4l-0.4,0.4l-0.5,0.5l-0.5,0.3l-0.1,0.2l-0.4,0.4l-0.3,0.4
				l-0.1,0.2l-0.9,0.8L261,105l-0.5,0.5l-0.2,0.3l-0.4,0.6l-0.4,0.6l-0.3,0.6l-0.2,0.3l-0.2,0.5l-0.4,0.6l-0.4,0.6l-0.6,0.8
				l-0.2,0.2l-0.2,0.1l-0.2,0.2l-0.4,0.1l-0.3,0.1l1.4-0.2l1.6-0.2l1-0.1l0.9-0.1L261.6,110.7 M281.5,107.5L281.5,107.5l0.1-0.1
				l0.1-0.1l0.1-0.1l0.1,0l0.1,0l0.2,0l0.1,0l0.1,0l0.2,0l0.1,0l0,0.1l0,0.1l-0.1,0.1l-0.1,0l0,0.1l-0.1,0.1l0,0l0,0l0,0.1l-0.1,0
				l0,0.1l-0.1,0.1l-0.1,0.1l0,0l-0.1,0l0,0l-0.1,0l-0.1,0l0,0l0-0.1l0-0.1l0-0.1l0-0.1L281.5,107.5 M281.5,107.5L281.5,107.5
				l0.1-0.1l0.1-0.1l0.1-0.1l0.1,0l0.1,0l0.2,0l0.1,0l0.1,0l0.2,0l0.1,0l0,0.1l0,0.1l-0.1,0.1l-0.1,0l0,0.1l-0.1,0.1l0,0l0,0l0,0.1
				l-0.1,0l0,0.1l-0.1,0.1l-0.1,0.1l0,0l-0.1,0l0,0l-0.1,0l-0.1,0l0,0l0-0.1l0-0.1l0-0.1l0-0.1L281.5,107.5 M271.4,106.2
				L271.4,106.2l0.2,0.1l0.1,0l0,0l0.1,0l0.1,0l0.1,0l0.2-0.1l0.1,0l0.1,0l0.2-0.1l0.1-0.1l0.1-0.1l-0.1,0l0,0l0-0.1l0,0l-0.1,0
				l-0.2,0l0,0l0,0l-0.1,0l-0.1,0l-0.1,0l-0.1,0.1l-0.1,0l0,0l-0.1,0.1l0,0l-0.1,0.1l0,0.1l-0.1,0.1L271.4,106.2L271.4,106.2
				 M271.4,106.2L271.4,106.2l0.2,0.1l0.1,0l0,0l0.1,0l0.1,0l0.1,0l0.2-0.1l0.1,0l0.1,0l0.2-0.1l0.1-0.1l0.1-0.1l-0.1,0l0,0l0-0.1
				l0,0l-0.1,0l-0.2,0l0,0l0,0l-0.1,0l-0.1,0l-0.1,0l-0.1,0.1l-0.1,0l0,0l-0.1,0.1l0,0l-0.1,0.1l0,0.1l-0.1,0.1L271.4,106.2
				L271.4,106.2 M271.7,94.7L271.7,94.7l0-0.1L271.7,94.7l0-0.1l0,0l0,0l0,0l0.1,0l0,0l0.1,0l0,0l0.1,0l0.1,0l0,0l0.1,0l0.1,0l0,0
				l0,0l0,0l0,0.1l-0.1,0.1l0,0l-0.1,0.1l-0.1,0l-0.1,0l-0.1,0l-0.1,0L271.7,94.7L271.7,94.7 M271.7,94.7L271.7,94.7l0-0.1
				L271.7,94.7l0-0.1l0,0l0,0l0,0l0.1,0l0,0l0.1,0l0,0l0.1,0l0.1,0l0,0l0.1,0l0.1,0l0,0l0,0l0,0l0,0.1l-0.1,0.1l0,0l-0.1,0.1l-0.1,0
				l-0.1,0l-0.1,0l-0.1,0L271.7,94.7L271.7,94.7 M275.8,95.2L275.8,95.2l-0.2-0.1l0,0l0-0.1l-0.1,0l0,0l0-0.1l0,0l0.1,0l0,0l0.1,0
				l0,0l0.1,0l0.1,0L276,95l0,0l0,0.1l0.1,0.1l0,0l0,0.1l0,0l0,0.1l-0.1,0l0,0L275.8,95.2 M275.8,95.2L275.8,95.2l-0.2-0.1l0,0
				l0-0.1l-0.1,0l0,0l0-0.1l0,0l0.1,0l0,0l0.1,0l0,0l0.1,0l0.1,0L276,95l0,0l0,0.1l0.1,0.1l0,0l0,0.1l0,0l0,0.1l-0.1,0l0,0
				L275.8,95.2 M253.3,116.4l-1.5,0.1l-1.3,0.4l-1.2,0.5l-0.6,0.3l-1.7,0.7l-1.5,0.4l-1.6,0.2l-1.6,0.4l-1.5,0.6l-1.4,0.8l-1,0.7
				l-0.2,0.1l-0.3,0l-0.2,0l-0.2-0.1l-0.2-0.2l-0.1-0.2l0.2-1.4l0-1.4l0-0.6l-0.4-3l-0.4-2.2l-0.4-2.7l-0.7-2.7l-0.9-2.5l-0.4-2.5
				l-0.3-2.6l0-2.6l0.2-1.7l0.4-1.8l0.6-1.8l0.4-1l1.2-2.2l1.4-2l1.3-1.7l1.3-1.2l2-1.5l1.5-1l1.7-0.8l2.4-1l2.9-1l0.5-0.2l1.9-0.4
				l2-0.2l2.1,0.1l3.2,0.2l4,0.4l4.7,0.8l1.1,0.3l1.2,0.2l1.8,0.3l2.2,0.2l1.1,0.2l0.7,0.1l0.7,0.2l0.5,0.4l0.3,0.5l0,0.5l-0.2,0.5
				l-0.3,0.8l-0.2,0.4l-0.2,0.5l-0.2,0.4l-0.1,0.5l-0.2,0.8l-0.2,0.9l-0.2,1.9l0,0.7l0,0.9l0,0.9l0.2,1l0.3,1l0.4,1.5l0.4,1.9
				l0.7,2.8l0.2,0.9l0.1,0.9l0,0.9l-0.1,0.8l-0.2,0.6l-0.3,0.5l-0.4,0.5l-0.4,0.5l-0.6,0.6l-0.7,0.6l-0.8,0.5l-1.7,1.1l-1.2,0.7
				l-1.1,0.7l-1.3,0.8l-0.5,0.2l-0.4,0.2l-0.6,0.1l-0.6,0.1"/>
			<path class="st13" d="M253.3,116.4l-1.5,0.1l-1.3,0.4l-1.2,0.5l-0.6,0.3l-1.7,0.7l-1.5,0.4l-1.6,0.2l-1.6,0.4l-1.5,0.6l-1.4,0.8
				l-1,0.7l-0.2,0.1l-0.3,0l-0.2,0l-0.2-0.1l-0.2-0.2l-0.1-0.2l0.2-1.4l0-1.4l0-0.6l-0.4-3l-0.4-2.2l-0.4-2.7l-0.7-2.7l-0.9-2.5
				l-0.4-2.5l-0.3-2.6l0-2.6l0.2-1.7l0.4-1.8l0.6-1.8l0.4-1l1.2-2.2l1.4-2l1.3-1.7l1.3-1.2l2-1.5l1.5-1l1.7-0.8l2.4-1l2.9-1l0.5-0.2
				l1.9-0.4l2-0.2l2.1,0.1l3.2,0.2l4,0.4l4.7,0.8l1.1,0.3l1.2,0.2l1.8,0.3l2.2,0.2l1.1,0.2l0.7,0.1l0.7,0.2l0.5,0.4l0.3,0.5l0,0.5
				l-0.2,0.5l-0.3,0.8l-0.2,0.4l-0.2,0.5l-0.2,0.4l-0.1,0.5l-0.2,0.8l-0.2,0.9l-0.2,1.9l0,0.7l0,0.9l0,0.9l0.2,1l0.3,1l0.4,1.5
				l0.4,1.9l0.7,2.8l0.2,0.9l0.1,0.9l0,0.9l-0.1,0.8l-0.2,0.6l-0.3,0.5l-0.4,0.5l-0.4,0.5l-0.6,0.6l-0.7,0.6l-0.8,0.5l-1.7,1.1
				l-1.2,0.7l-1.1,0.7l-1.3,0.8l-0.5,0.2l-0.4,0.2l-0.6,0.1l-0.6,0.1 M285.2,105l-0.4-0.1l-0.3-0.2l-0.3-0.2l-0.2-0.1l-0.3-0.2
				l-0.2-0.2l-0.2-0.2l-0.2-0.2l-0.2-0.3l-0.3-0.3l-0.3-0.4l-0.2-0.4l-0.2-0.4l-0.2-0.4l-0.1-0.4l-0.1-0.4l-0.1-0.5l-0.1-0.4
				l-0.1-0.4l-0.1-0.4l-0.2-0.6l-0.1-0.5l-0.3-0.6l-0.2-0.6l-0.3-0.6l-0.1-0.6l-0.2-0.6l-0.2-0.6l-0.2-0.6l-0.1-0.6l-0.1-0.7
				l-0.1-0.6l-0.1-0.6l-0.1-0.4l0-0.6l0-0.6l0-0.6l-0.1-0.6l0-0.6l0.1-0.6l0.1-0.6l0.1-0.6l0.1-0.6l0.1-0.4l0-0.4l0.1-0.4l0.1-0.4
				l0.2-0.4l0.2-0.4l0.2-0.4l0.2-0.4l0.2-0.3l0.3-0.4l0.2-0.2l0.2-0.2l0.2-0.2l0.3-0.2l0.3-0.1l0.3-0.1l0.3-0.2l0.3-0.1l0.5-0.1
				l0.4-0.1l0.4-0.1l0.5,0l0.4-0.1l6.7,0l8.8,0.2l1.7,0.1l1.8,0.1l1.8,0.2l0.9,0l0.5,0.1l0.2,0l0.2,0.1l0.2,0.1l0.1,0.1l0.3,0.1
				l0.1,0.1l0.2,0.1l0.1,0.1l0.2,0.1l0.1,0.2l0.1,0.2l0,0.2l0.1,0.2l0.1,0.2l0,0.2l0.1,0.3l0,0.2l0,0.2l0,0.3l0,0.2l-0.1,0.2
				l-0.1,0.4l-0.2,0.6l-0.2,0.5l-0.3,0.6l-0.2,0.4l-0.3,0.5l-0.4,0.6l-0.3,0.5l-0.4,0.5l-0.3,0.5l-0.4,0.5l-0.8,1.1l-0.7,1l-0.8,0.9
				l-0.6,0.9l-0.9,1l-0.4,0.3l-0.4,0.4l-0.4,0.4l-0.4,0.4l-0.4,0.4l-0.4,0.3l-0.5,0.3l-0.5,0.3l-0.8,0.5l-0.5,0.3l-1,0.5l-2.7,1.2
				l-2.8,1l-1.5,0.5l-1.6,0.5l-0.7,0.3l-1,0.2l-0.5,0.2l-0.6,0.2l-0.6,0.1l-1,0.1l-0.6,0.1l-0.4-0.1 M285.2,105l-0.4-0.1l-0.3-0.2
				l-0.3-0.2l-0.2-0.1l-0.3-0.2l-0.2-0.2l-0.2-0.2l-0.2-0.2l-0.2-0.3l-0.3-0.3l-0.3-0.4l-0.2-0.4l-0.2-0.4l-0.2-0.4l-0.1-0.4
				l-0.1-0.4l-0.1-0.5l-0.1-0.4l-0.1-0.4l-0.1-0.4l-0.2-0.6l-0.1-0.5l-0.3-0.6l-0.2-0.6l-0.3-0.6l-0.1-0.6l-0.2-0.6l-0.2-0.6
				l-0.2-0.6l-0.1-0.6l-0.1-0.7l-0.1-0.6l-0.1-0.6l-0.1-0.4l0-0.6l0-0.6l0-0.6l-0.1-0.6l0-0.6l0.1-0.6l0.1-0.6l0.1-0.6l0.1-0.6
				l0.1-0.4l0-0.4l0.1-0.4l0.1-0.4l0.2-0.4l0.2-0.4l0.2-0.4l0.2-0.4l0.2-0.3l0.3-0.4l0.2-0.2l0.2-0.2l0.2-0.2l0.3-0.2l0.3-0.1
				l0.3-0.1l0.3-0.2l0.3-0.1l0.5-0.1l0.4-0.1l0.4-0.1l0.5,0l0.4-0.1l6.7,0l8.8,0.2l1.7,0.1l1.8,0.1l1.8,0.2l0.9,0l0.5,0.1l0.2,0
				l0.2,0.1l0.2,0.1l0.1,0.1l0.3,0.1l0.1,0.1l0.2,0.1l0.1,0.1l0.2,0.1l0.1,0.2l0.1,0.2l0,0.2l0.1,0.2l0.1,0.2l0,0.2l0.1,0.3l0,0.2
				l0,0.2l0,0.3l0,0.2l-0.1,0.2l-0.1,0.4l-0.2,0.6l-0.2,0.5l-0.3,0.6l-0.2,0.4l-0.3,0.5l-0.4,0.6l-0.3,0.5l-0.4,0.5l-0.3,0.5
				l-0.4,0.5l-0.8,1.1l-0.7,1l-0.8,0.9l-0.6,0.9l-0.9,1l-0.4,0.3l-0.4,0.4l-0.4,0.4l-0.4,0.4l-0.4,0.4l-0.4,0.3l-0.5,0.3l-0.5,0.3
				l-0.8,0.5l-0.5,0.3l-1,0.5l-2.7,1.2l-2.8,1l-1.5,0.5l-1.6,0.5l-0.7,0.3l-1,0.2l-0.5,0.2l-0.6,0.2l-0.6,0.1l-1,0.1l-0.6,0.1
				l-0.4-0.1 M278.6,104.2l0,0.2l0,0.4l0.1,0.3l0.1,0.2l0.1,0.2l0.1,0.2l0.1,0.2l0.2,0.2l0.1,0.2l0.2,0.2l0.5,0.5l0.6,0.4l0.2,0.1
				l0.4,0.2 M278.6,104.2l0,0.2l0,0.4l0.1,0.3l0.1,0.2l0.1,0.2l0.1,0.2l0.1,0.2l0.2,0.2l0.1,0.2l0.2,0.2l0.5,0.5l0.6,0.4l0.2,0.1
				l0.4,0.2 M283,107.2L283,107.2l-0.1,0.2l0,0.1l0,0.1l-0.1,0l-0.1,0.1l-0.1,0.1l-0.1,0.1l-0.1,0.1l-0.2,0.1l-0.1,0l-0.2,0.1
				l-0.1,0.1l-0.1,0l-0.1,0l-0.1,0l-0.1,0l0,0l-0.1,0l-0.1,0l0,0l0-0.1l0,0l-0.1-0.1l0-0.1l0-0.1l0-0.1l0.1-0.1l0.1-0.1l0.1-0.1l0,0
				l0.1-0.1l0.2-0.1l0,0l0.1,0l0.1-0.1l0.2-0.1l0.2,0l0.2,0l0.1,0l0.1,0l0.1,0l0.1,0l0.2,0.1 M283,107.2L283,107.2l-0.1,0.2l0,0.1
				l0,0.1l-0.1,0l-0.1,0.1l-0.1,0.1l-0.1,0.1l-0.1,0.1l-0.2,0.1l-0.1,0l-0.2,0.1l-0.1,0.1l-0.1,0l-0.1,0l-0.1,0l-0.1,0l0,0l-0.1,0
				l-0.1,0l0,0l0-0.1l0,0l-0.1-0.1l0-0.1l0-0.1l0-0.1l0.1-0.1l0.1-0.1l0.1-0.1l0,0l0.1-0.1l0.2-0.1l0,0l0.1,0l0.1-0.1l0.2-0.1l0.2,0
				l0.2,0l0.1,0l0.1,0l0.1,0l0.1,0l0.2,0.1 M280.4,102.2L280.4,102.2 M280.4,102.2L280.4,102.2 M280.2,102.6L280.2,102.6
				 M280.2,102.6L280.2,102.6 M280.1,102.9l0,0.1 M280.1,102.9l0,0.1 M280.1,103.2l0,0.1 M280.1,103.2l0,0.1 M280.2,103.5l0,0.2
				 M280.2,103.5l0,0.2 M280.4,103.9l0.1,0.2 M280.4,103.9l0.1,0.2 M280.5,104.3L280.5,104.3 M280.5,104.3L280.5,104.3 M280.8,104.6
				l0,0.1 M280.8,104.6l0,0.1 M280.9,105l0,0.1 M280.9,105l0,0.1 M281.1,105.3l0.1,0.1 M281.1,105.3l0.1,0.1 M281.3,105.6l0.1,0.1
				 M281.3,105.6l0.1,0.1 M281.5,106l0.1,0.1 M281.5,106l0.1,0.1 M281.8,106.3l0.1,0.1 M281.8,106.3l0.1,0.1 M282.1,106.6l0.1,0.1
				 M282.1,106.6l0.1,0.1 M284.8,105.8l-0.1,0l-0.2,0l-0.1,0.1l-0.1,0l-0.2,0.1l-0.1,0.1l-0.1,0.1l-0.2,0.1l-0.1,0.1l-0.1,0
				l-0.1,0.1l-0.1,0.1l-0.1,0.1l0,0.1l0,0.1l0,0.1l0,0.1 M284.8,105.8l-0.1,0l-0.2,0l-0.1,0.1l-0.1,0l-0.2,0.1l-0.1,0.1l-0.1,0.1
				l-0.2,0.1l-0.1,0.1l-0.1,0l-0.1,0.1l-0.1,0.1l-0.1,0.1l0,0.1l0,0.1l0,0.1l0,0.1 M265.6,112.3l0.3-0.1l0.3-0.1l0.4-0.2l0.4-0.2
				l0.5-0.3l0.2-0.1l0.1-0.1l0.1-0.1l0.1-0.1l0.3-0.3l0.2-0.1l0.2-0.2l0.3-0.3l0.2-0.2 M265.6,112.3l0.3-0.1l0.3-0.1l0.4-0.2
				l0.4-0.2l0.5-0.3l0.2-0.1l0.1-0.1l0.1-0.1l0.1-0.1l0.3-0.3l0.2-0.1l0.2-0.2l0.3-0.3l0.2-0.2 M308.1,80.9l-0.3-0.1l-0.7-0.1
				l-0.8-0.2l-0.8-0.1l-1-0.1l-0.9-0.1l-0.9-0.1l-1.1,0l-1.7-0.1l-1.7,0l-0.7,0l-2.1-0.1l-2.1-0.1l-1.2-0.1l-1.9,0l-2,0l-1.7,0.1
				l-1,0.1l-0.9,0.1l-0.7,0.1l-0.6,0.1l-0.3,0.1l-0.3,0.1l-0.3,0.1l-0.2,0.1l-0.4,0.3l-0.1,0.1l-0.2,0.3l-0.2,0.2l-0.2,0.4l-0.3,0.6
				l-0.2,0.6l-0.1,0.3 M259.1,77.6l-1.9,0l-1.3,0l-1.6,0.1"/>
			<path class="st13" d="M259.1,77.6l-1.9,0l-1.3,0l-1.6,0.1 M259.7,77.7l1.5,0.1 M259.7,77.7l1.5,0.1 M261.7,77.8l1.3,0.1
				 M261.7,77.8l1.3,0.1 M254.8,78.4l-1.2,0l-1.5,0.1l-1.6,0.2 M254.8,78.4l-1.2,0l-1.5,0.1l-1.6,0.2 M255.5,78.4l1.5,0l1.4,0.1
				 M255.5,78.4l1.5,0l1.4,0.1 M258.9,78.5l1.4,0.1 M258.9,78.5l1.4,0.1 M252.9,79.4l-1.6,0l-1.6,0.1l-2.3,0.3 M252.9,79.4l-1.6,0
				l-1.6,0.1l-2.3,0.3 M253.5,79.4l1.4,0l1.3,0 M253.5,79.4l1.4,0l1.3,0 M256.7,79.4l0.9,0l1.2,0.1 M256.7,79.4l0.9,0l1.2,0.1
				 M250,80.6l-1.1,0l-1.3,0.1l-1.1,0.1l-1.4,0.2 M250,80.6l-1.1,0l-1.3,0.1l-1.1,0.1l-1.4,0.2 M250.9,80.6l1.7-0.1l1.4,0.1
				 M250.9,80.6l1.7-0.1l1.4,0.1 M254.9,80.6l1.1,0l1.1,0 M254.9,80.6l1.1,0l1.1,0 M249.6,81.6l-1.1,0.1l-1.2,0.1l-1.2,0.1l-1.3,0.1
				l-1.7,0.3 M249.6,81.6l-1.1,0.1l-1.2,0.1l-1.2,0.1l-1.3,0.1l-1.7,0.3 M250.6,81.6l1.4-0.1l1.5,0.1 M250.6,81.6l1.4-0.1l1.5,0.1
				 M254.4,81.7l0.8,0l0.7,0 M254.4,81.7l0.8,0l0.7,0 M248.3,82.8l-1.4,0l-1.4,0.1l-1.3,0.2l-1.3,0.2l-1.3,0.2 M248.3,82.8l-1.4,0
				l-1.4,0.1l-1.3,0.2l-1.3,0.2l-1.3,0.2 M249.4,82.7l1.6,0l1.4,0 M249.4,82.7l1.6,0l1.4,0 M253.4,82.7l0.8,0l0.7,0.1 M253.4,82.7
				l0.8,0l0.7,0.1 M246.4,83.9l-1.6,0.1l-1.5,0.2l-1.9,0.5l-1.5,0.4 M246.4,83.9l-1.6,0.1l-1.5,0.2l-1.9,0.5l-1.5,0.4 M247.6,83.8
				l1.6,0l1.4-0.1 M247.6,83.8l1.6,0l1.4-0.1 M251.4,83.8l1,0l1,0.1 M251.4,83.8l1,0l1,0.1 M246.3,84.8l-1.4,0.1l-1,0.1l-1,0.1
				l-1.1,0.3l-1.1,0.3l-0.9,0.3l-0.7,0.3 M246.3,84.8l-1.4,0.1l-1,0.1l-1,0.1l-1.1,0.3l-1.1,0.3l-0.9,0.3l-0.7,0.3 M247.1,84.8
				l0.9,0l1.1,0 M247.1,84.8l0.9,0l1.1,0 M249.9,84.9l1.9,0.1 M249.9,84.9l1.9,0.1 M244.6,86.2l-1.6,0.2l-1.5,0.2l-1.3,0.4l-1.3,0.3
				l-1.1,0.4 M244.6,86.2l-1.6,0.2l-1.5,0.2l-1.3,0.4l-1.3,0.3l-1.1,0.4 M245.6,86l1.2,0l1.3,0.1 M245.6,86l1.2,0l1.3,0.1
				 M249.2,86.1l0.8,0l0.7,0 M249.2,86.1l0.8,0l0.7,0 M244,87.2l-1.5,0.1l-1.5,0.4l-1.2,0.2l-1.2,0.4l-1.5,0.5 M244,87.2l-1.5,0.1
				l-1.5,0.4l-1.2,0.2l-1.2,0.4l-1.5,0.5 M244.8,87.1l1.3-0.1l1.3,0.1 M244.8,87.1l1.3-0.1l1.3,0.1 M248.2,87.1l1.1,0 M248.2,87.1
				l1.1,0 M242.1,88.5l-1,0.2l-1.1,0.2l-0.8,0.1l-0.9,0.3l-0.7,0.2l-0.7,0.3 M242.1,88.5l-1,0.2l-1.1,0.2l-0.8,0.1l-0.9,0.3
				l-0.7,0.2l-0.7,0.3 M243.1,88.4l1.7-0.3l1.7-0.1 M243.1,88.4l1.7-0.3l1.7-0.1 M247.4,88.1l1.3,0.1 M247.4,88.1l1.3,0.1 M242,89.5
				l-1.1,0.2l-0.9,0.2l-1,0.2l-0.9,0.3l-0.9,0.3l-0.9,0.3l-0.1,0.1 M242,89.5l-1.1,0.2l-0.9,0.2l-1,0.2l-0.9,0.3l-0.9,0.3l-0.9,0.3
				l-0.1,0.1 M243.1,89.3l1.6-0.2l1.3,0 M243.1,89.3l1.6-0.2l1.3,0 M246.6,89.1l1.3,0.1 M246.6,89.1l1.3,0.1 M243.7,90.5l-1.2,0.1
				l-1.1,0.2l-1.1,0.2l-1,0.2l-1,0.3l-1,0.3l-1,0.4l-0.8,0.3 M243.7,90.5l-1.2,0.1l-1.1,0.2l-1.1,0.2l-1,0.2l-1,0.3l-1,0.3l-1,0.4
				l-0.8,0.3 M244.4,90.4l1.4-0.1l1.3-0.1 M244.4,90.4l1.4-0.1l1.3-0.1 M242.1,91.8l-1.1,0.2l-1,0.2l-0.9,0.2l-1.7,0.6l-1.1,0.4
				l-0.9,0.5 M242.1,91.8l-1.1,0.2l-1,0.2l-0.9,0.2l-1.7,0.6l-1.1,0.4l-0.9,0.5 M243.2,91.6l1.5-0.2l1.7,0 M243.2,91.6l1.5-0.2
				l1.7,0 M241.8,92.7l-0.4,0.1l-0.5,0.1l-1.1,0.3l-1.2,0.4l-1.1,0.4l-1,0.4l-0.7,0.3l-0.6,0.3 M241.8,92.7l-0.4,0.1l-0.5,0.1
				l-1.1,0.3l-1.2,0.4l-1.1,0.4l-1,0.4l-0.7,0.3l-0.6,0.3 M242.5,92.5l1-0.1l0.9-0.1 M242.5,92.5l1-0.1l0.9-0.1 M245,92.3l0.5,0
				l0.5,0 M245,92.3l0.5,0l0.5,0 M242.9,93.4l-1.1,0.3l-1,0.2l-1,0.3l-0.9,0.3l-0.9,0.4l-1.6,0.6l-1.4,0.6 M242.9,93.4l-1.1,0.3
				l-1,0.2l-1,0.3l-0.9,0.3l-0.9,0.4l-1.6,0.6l-1.4,0.6 M243.6,93.4l0.9-0.1l0.9,0 M243.6,93.4l0.9-0.1l0.9,0 M240.9,95.1l-1.3,0.4
				l-1.4,0.5l-1.2,0.4l-0.9,0.3l-1.1,0.5 M240.9,95.1l-1.3,0.4l-1.4,0.5l-1.2,0.4l-0.9,0.3l-1.1,0.5 M241.7,94.9l1-0.3l0.9-0.2
				 M241.7,94.9l1-0.3l0.9-0.2 M244.2,94.3l0.9-0.1 M244.2,94.3l0.9-0.1 M241.4,96.2l-1.2,0.3l-1.4,0.5l-1.2,0.4l-1.2,0.5l-1.1,0.5
				l-0.5,0.2 M241.4,96.2l-1.2,0.3l-1.4,0.5l-1.2,0.4l-1.2,0.5l-1.1,0.5l-0.5,0.2 M241.9,95.9l1.2-0.3l1.2-0.2 M241.9,95.9l1.2-0.3
				l1.2-0.2 M241.1,97.4l-1,0.3l-1.3,0.5l-0.9,0.3l-1,0.4l-1.1,0.4l-0.9,0.4 M241.1,97.4l-1,0.3l-1.3,0.5l-0.9,0.3l-1,0.4l-1.1,0.4
				l-0.9,0.4 M241.7,97.3l0.7-0.3l0.7-0.2l1.1-0.1 M241.7,97.3l0.7-0.3l0.7-0.2l1.1-0.1 M238.2,99.5l-0.8,0.3l-0.6,0.2l-0.6,0.3
				l-0.5,0.2l-0.8,0.4 M238.2,99.5l-0.8,0.3l-0.6,0.2l-0.6,0.3l-0.5,0.2l-0.8,0.4 M238.8,99.3l0.9-0.3l0.8-0.3 M238.8,99.3l0.9-0.3
				l0.8-0.3 M241,98.4l1.1-0.3l1.5-0.4 M241,98.4l1.1-0.3l1.5-0.4 M238.4,100.6l-0.8,0.4l-1.2,0.5l-1,0.5 M238.4,100.6l-0.8,0.4
				l-1.2,0.5l-1,0.5 M238.9,100.4l0.9-0.4l1-0.4l0.9-0.3l0.9-0.3 M238.9,100.4l0.9-0.4l1-0.4l0.9-0.3l0.9-0.3 M240.1,101.1l-1.1,0.4
				l-1.3,0.6l-2.3,1.2 M240.1,101.1l-1.1,0.4l-1.3,0.6l-2.3,1.2 M240.7,100.9l1.2-0.4l1-0.3l0.6-0.2 M240.7,100.9l1.2-0.4l1-0.3
				l0.6-0.2 M239.9,102.4l-1.3,0.6l-1.7,0.8l-1.4,0.8 M239.9,102.4l-1.3,0.6l-1.7,0.8l-1.4,0.8 M240.4,102.2l1.2-0.4l1.5-0.5
				 M240.4,102.2l1.2-0.4l1.5-0.5 M240.3,103.5l-1,0.4l-1.3,0.6l-1.1,0.6l-1,0.6 M240.3,103.5l-1,0.4l-1.3,0.6l-1.1,0.6l-1,0.6
				 M243.4,102.3l-1.2,0.5l-1.2,0.4 M243.4,102.3l-1.2,0.5l-1.2,0.4 M240.7,104.4l-1.7,0.8l-1.2,0.7l-1,0.6l-0.4,0.3 M240.7,104.4
				l-1.7,0.8l-1.2,0.7l-1,0.6l-0.4,0.3 M241.3,104.2l1-0.4l1.1-0.4 M241.3,104.2l1-0.4l1.1-0.4 M240.7,105.6l-1.7,0.8l-1.2,0.7
				l-1.2,0.8 M240.7,105.6l-1.7,0.8l-1.2,0.7l-1.2,0.8 M241.2,105.3l1-0.4l1-0.4 M241.2,105.3l1-0.4l1-0.4 M241,106.4l-0.7,0.4
				l-1.1,0.7l-0.9,0.6l-1.4,0.9 M241,106.4l-0.7,0.4l-1.1,0.7l-0.9,0.6l-1.4,0.9 M241.5,106.2l0.7-0.4l0.9-0.3 M241.5,106.2l0.7-0.4
				l0.9-0.3 M241.4,107.4l-1.1,0.7l-1.4,0.8l-1.7,1.1 M241.4,107.4l-1.1,0.7l-1.4,0.8l-1.7,1.1 M241.9,107.1l0.6-0.3l0.7-0.3
				 M241.9,107.1l0.6-0.3l0.7-0.3 M241.7,108.4l-1.6,0.9l-1.5,0.9l-1.4,0.9 M241.7,108.4l-1.6,0.9l-1.5,0.9l-1.4,0.9 M242,108.1
				l0.8-0.4l0.7-0.3 M242,108.1l0.8-0.4l0.7-0.3 M241.3,109.8l-1.1,0.7l-0.8,0.5l-0.8,0.5l-1.2,0.8 M241.3,109.8l-1.1,0.7l-0.8,0.5
				l-0.8,0.5l-1.2,0.8 M241.6,110.7l-1.1,0.7l-1.5,1.1l-1.4,1 M241.6,110.7l-1.1,0.7l-1.5,1.1l-1.4,1 M241,112.4l-1,0.7l-1,0.7
				l-1.2,0.8 M241,112.4l-1,0.7l-1,0.7l-1.2,0.8 M241.2,113.4l-0.9,0.6l-1.1,0.8l-1.2,0.8 M241.2,113.4l-0.9,0.6l-1.1,0.8l-1.2,0.8
				 M241.3,114.6l-0.9,0.7l-1.1,0.7l-1,0.7 M241.3,114.6l-0.9,0.7l-1.1,0.7l-1,0.7 M241.7,109.5l0.8-0.5l0.8-0.5 M241.7,109.5
				l0.8-0.5l0.8-0.5 M241.8,113l0.8-0.6l0.7-0.6 M241.8,113l0.8-0.6l0.7-0.6 M241.6,114.2l1.1-0.7 M241.6,114.2l1.1-0.7 M242.8,99
				l0.7-0.2 M242.8,99l0.7-0.2 M241.9,110.5l0.7-0.6l0.7-0.4 M241.9,110.5l0.7-0.6l0.7-0.4 M241.6,111.9l0.9-0.7l0.8-0.6
				 M241.6,111.9l0.9-0.7l0.8-0.6 M243.1,113.2l0.5-0.5 M243.1,113.2l0.5-0.5 M299.4,97.1l-0.3-0.1 M299.4,97.1l-0.3-0.1
				 M298.9,97.4l-0.3-0.1 M298.9,97.4l-0.3-0.1 M282.9,102.4L282.9,102.4l0.1,0.2l0.1,0.1l0,0.1l0.1,0.1l0.1,0l0.1,0.1l0.2,0
				 M282.9,102.4L282.9,102.4l0.1,0.2l0.1,0.1l0,0.1l0.1,0.1l0.1,0l0.1,0.1l0.2,0 M283.7,102.5L283.7,102.5l0.2,0.2l0.1,0.1l0.1,0
				l0.2,0.1l0.2,0.1l0.1,0.1l0.1,0 M283.7,102.5L283.7,102.5l0.2,0.2l0.1,0.1l0.1,0l0.2,0.1l0.2,0.1l0.1,0.1l0.1,0 M284.5,102.3
				L284.5,102.3l0.1,0.1l0.1,0l0.1,0.1l0.2,0.1l0.1,0l0.2,0.1l0,0 M284.5,102.3L284.5,102.3l0.1,0.1l0.1,0l0.1,0.1l0.2,0.1l0.1,0
				l0.2,0.1l0,0 M285.5,102.2l0.2,0.2l0.2,0.2 M285.5,102.2l0.2,0.2l0.2,0.2 M286.1,102.2l0.4,0.2 M286.1,102.2l0.4,0.2
				 M287.1,102.2l-0.5-0.4 M287.1,102.2l-0.5-0.4 M287.6,101.7l0.5,0.2 M287.6,101.7l0.5,0.2 M288.5,101.6l0.4,0.2 M288.5,101.6
				l0.4,0.2 M289.2,101.3l0.4,0.2 M289.2,101.3l0.4,0.2 M290.1,101l0.4,0.2 M290.1,101l0.4,0.2 M290.7,100.9l0.5,0 M290.7,100.9
				l0.5,0 M291.3,100.6l0.5,0.2 M291.3,100.6l0.5,0.2 M292,100.4l0.2,0.3 M292,100.4l0.2,0.3 M292.5,100.2l0.4,0.1"/>
			<path class="st13" d="M292.5,100.2l0.4,0.1 M294.1,99.8l-0.7,0 M294.1,99.8l-0.7,0 M297.7,98.1l-0.3,0 M297.7,98.1l-0.3,0
				 M297.2,98.4l-0.3,0 M297.2,98.4l-0.3,0 M296.6,98.7l-0.3,0 M296.6,98.7l-0.3,0 M296.2,98.9l-0.3,0 M296.2,98.9l-0.3,0
				 M295.7,99.1l-0.3,0 M295.7,99.1l-0.3,0 M295.2,99.3l-0.3,0 M295.2,99.3l-0.3,0 M294.8,99.4l-0.3,0 M294.8,99.4l-0.3,0 M298,97.9
				l-0.3,0 M298,97.9l-0.3,0 M271.4,106.3l0-0.1l0-0.1l0-0.1l0.1-0.1l0-0.1l0.1-0.1l0,0l0,0l0,0l0,0l0.1-0.1l0.1,0l0.1-0.1l0,0l0,0
				l0.1,0l0.1,0l0.2,0l0.1,0l0,0l0,0l0.1,0.1l0,0l0.1,0.1l0,0 M271.4,106.3l0-0.1l0-0.1l0-0.1l0.1-0.1l0-0.1l0.1-0.1l0,0l0,0l0,0
				l0,0l0.1-0.1l0.1,0l0.1-0.1l0,0l0,0l0.1,0l0.1,0l0.2,0l0.1,0l0,0l0,0l0.1,0.1l0,0l0.1,0.1l0,0 M272.6,94.3L272.6,94.3l0,0.1l0,0
				l0,0.1l0,0.1l0,0l-0.1,0.1l-0.1,0l0,0l-0.2,0.1l-0.1,0l-0.2,0l-0.1,0 M272.6,94.3L272.6,94.3l0,0.1l0,0l0,0.1l0,0.1l0,0l-0.1,0.1
				l-0.1,0l0,0l-0.2,0.1l-0.1,0l-0.2,0l-0.1,0 M275.5,94.8L275.5,94.8l0,0.1l0,0l0,0l0,0.1l0.1,0l0.1,0.1l0,0l0.1,0l0.1,0l0,0l0.1,0
				 M275.5,94.8L275.5,94.8l0,0.1l0,0l0,0l0,0.1l0.1,0l0.1,0.1l0,0l0.1,0l0.1,0l0,0l0.1,0 M272.3,108.1L272,108 M272.3,108.1
				L272,108 M272,108.3l-0.4-0.1 M272,108.3l-0.4-0.1 M271.6,108.6l-0.3-0.1 M271.6,108.6l-0.3-0.1 M271.2,108.9l-0.4-0.2
				 M271.2,108.9l-0.4-0.2 M267.4,110.1l0.8,0.4 M267.4,110.1l0.8,0.4 M267.8,109.9l0.7,0.4 M267.8,109.9l0.7,0.4 M268,109.6
				l0.8,0.5 M268,109.6l0.8,0.5 M268.7,109.3l0.7,0.4 M268.7,109.3l0.7,0.4 M269.2,109.2l0.8,0.4 M269.2,109.2l0.8,0.4 M269.8,109.1
				l0.6,0.3 M269.8,109.1l0.6,0.3 M270.4,108.9l0.5,0.3 M270.4,108.9l0.5,0.3 M249.5,116.6l-0.6,0 M249.5,116.6l-0.6,0 M249.2,116.9
				l-0.5,0 M249.2,116.9l-0.5,0 M247.4,117.7l-0.6,0 M247.4,117.7l-0.6,0 M247.9,117.6l-0.5,0 M247.9,117.6l-0.5,0 M248.2,117.3
				l-0.5,0 M248.2,117.3l-0.5,0 M246.1,118l-0.6,0 M246.1,118l-0.6,0 M245.5,118.2l-0.5,0 M245.5,118.2l-0.5,0 M244.7,118.3l-0.5,0
				 M244.7,118.3l-0.5,0 M242.6,118.9l-0.5,0 M242.6,118.9l-0.5,0 M242.1,119.2l-0.5,0 M242.1,119.2l-0.5,0 M241.6,119.6l-0.5,0
				 M241.6,119.6l-0.5,0 M238.7,118.9l-0.2-0.4 M238.7,118.9l-0.2-0.4 M238.3,119.4l-0.1-0.3 M238.3,119.4l-0.1-0.3 M249,117.1
				l-0.5,0 M249,117.1l-0.5,0 M243.4,118.7l-0.5,0 M243.4,118.7l-0.5,0 M239.3,118.1l-0.1-0.3 M239.3,118.1l-0.1-0.3 M240.3,117.7
				l-0.2-0.3 M240.3,117.7l-0.2-0.3 M241.9,117l-0.1-0.3 M241.9,117l-0.1-0.3 M242.6,116.7l-0.1-0.3 M242.6,116.7l-0.1-0.3
				 M243.2,116.3l-0.1-0.4 M243.2,116.3l-0.1-0.4 M243.6,115.9l-0.1-0.3 M243.6,115.9l-0.1-0.3 M244.1,115.7l-0.2-0.4 M244.1,115.7
				l-0.2-0.4 M244.7,115.3l-0.1-0.4 M244.7,115.3l-0.1-0.4 M245.2,114.9l-0.2-0.4 M245.2,114.9l-0.2-0.4 M246.6,114.4l-0.2-0.4
				 M246.6,114.4l-0.2-0.4 M247.3,114.3l-0.2-0.4 M247.3,114.3l-0.2-0.4 M247.9,114.1l-0.2-0.2l-0.1-0.3 M247.9,114.1l-0.2-0.2
				l-0.1-0.3 M248.5,114l-0.2-0.3l-0.1-0.3 M248.5,114l-0.2-0.3l-0.1-0.3 M248.9,113.8l-0.1-0.2l-0.1-0.3 M248.9,113.8l-0.1-0.2
				l-0.1-0.3 M249.5,113.6l-0.2-0.2l-0.1-0.2 M249.5,113.6l-0.2-0.2l-0.1-0.2 M250.1,113.3l-0.2-0.4 M250.1,113.3l-0.2-0.4
				 M250.8,113.2l-0.1-0.1l-0.1-0.3 M250.8,113.2l-0.1-0.1l-0.1-0.3 M251.3,112.9L251.3,112.9l-0.1-0.1l-0.1-0.3 M251.3,112.9
				L251.3,112.9l-0.1-0.1l-0.1-0.3 M251.9,112.8l-0.1-0.2l-0.1-0.2 M251.9,112.8l-0.1-0.2l-0.1-0.2 M252.6,112.6l-0.1-0.2l-0.2-0.2
				 M252.6,112.6l-0.1-0.2l-0.2-0.2 M253,112.3l-0.2-0.5 M253,112.3l-0.2-0.5 M253.5,112.2l-0.3-0.5 M253.5,112.2l-0.3-0.5
				 M253.8,111.8l-0.2-0.3 M253.8,111.8l-0.2-0.3 M254.2,111.7l-0.1-0.2 M254.2,111.7l-0.1-0.2 M254.5,111.6l-0.1-0.2 M254.5,111.6
				l-0.1-0.2 M254.9,111.5l-0.1-0.2 M254.9,111.5l-0.1-0.2 M255.3,111.4l-0.1-0.2 M255.3,111.4l-0.1-0.2 M255.7,111.4l-0.1-0.2
				 M255.7,111.4l-0.1-0.2 M266.3,110.5l0.2,0.2l0.2,0.2l0.8,0.4 M266.3,110.5l0.2,0.2l0.2,0.2l0.8,0.4 M265.7,110.5l0.4,0.4
				l0.2,0.2l0.3,0.2l0.5,0.2 M265.7,110.5l0.4,0.4l0.2,0.2l0.3,0.2l0.5,0.2 M253.9,112l0.2,0.3l0.1,0.4 M253.9,112l0.2,0.3l0.1,0.4
				 M247.4,114.5l0.1,0.2l0.2,0.2l0.1,0.2l0.2,0.2l0.2,0.2l0.2,0.2l0.3,0.2l0.2,0.2l0.3,0.2l0.3,0.1l0.1,0.1 M247.4,114.5l0.1,0.2
				l0.2,0.2l0.1,0.2l0.2,0.2l0.2,0.2l0.2,0.2l0.3,0.2l0.2,0.2l0.3,0.2l0.3,0.1l0.1,0.1 M248,114.2l0.3,0.5l0.3,0.3l0.3,0.3l0.2,0.2
				l0.2,0.2l0.3,0.2l0.2,0.2l0.4,0.2l0.5,0.2 M248,114.2l0.3,0.5l0.3,0.3l0.3,0.3l0.2,0.2l0.2,0.2l0.3,0.2l0.2,0.2l0.4,0.2l0.5,0.2
				 M250.3,113.5l0.1,0.1l0.2,0.2l0.2,0.1l0.2,0.2l0.4,0.2l0.4,0.1 M250.3,113.5l0.1,0.1l0.2,0.2l0.2,0.1l0.2,0.2l0.4,0.2l0.4,0.1
				 M250.9,113.4l0.2,0.2l0.2,0.2l0.3,0.1l0.4,0.2 M250.9,113.4l0.2,0.2l0.2,0.2l0.3,0.1l0.4,0.2 M251.4,113.1l0.2,0.1l0.2,0.2
				l0.6,0.2 M251.4,113.1l0.2,0.1l0.2,0.2l0.6,0.2 M252,112.9l0.3,0.3l0.4,0.2 M252,112.9l0.3,0.3l0.4,0.2 M252.6,112.7l0.2,0.2
				l0.4,0.2 M252.6,112.7l0.2,0.2l0.4,0.2 M253.5,112.8l-0.3-0.1l-0.2-0.3 M253.5,112.8l-0.3-0.1l-0.2-0.3 M253.6,112.3l0.1,0.3
				l0.1,0.2 M253.6,112.3l0.1,0.3l0.1,0.2 M278.9,81.7l-0.3-0.2l-0.2-0.2l-0.2-0.1l-0.2-0.1l-0.3-0.1l-0.2,0l-0.2-0.1 M278.9,81.7
				l-0.3-0.2l-0.2-0.2l-0.2-0.1l-0.2-0.1l-0.3-0.1l-0.2,0l-0.2-0.1 M278.7,82.3l-0.4-0.3l-0.3-0.1l-0.3-0.1l-0.4-0.2l-0.5-0.1
				 M278.7,82.3l-0.4-0.3l-0.3-0.1l-0.3-0.1l-0.4-0.2l-0.5-0.1 M278.4,82.8l-0.2-0.2l-0.1-0.2l-0.2-0.2l-0.2-0.1l-0.3,0l-0.2-0.1
				l-0.3-0.1l-0.3-0.1 M278.4,82.8l-0.2-0.2l-0.1-0.2l-0.2-0.2l-0.2-0.1l-0.3,0l-0.2-0.1l-0.3-0.1l-0.3-0.1 M278.3,83.5l-0.2-0.2
				l-0.2-0.2l-0.3-0.2l-0.2-0.2l-0.4-0.2l-0.2-0.1l-0.2-0.1 M278.3,83.5l-0.2-0.2l-0.2-0.2l-0.3-0.2l-0.2-0.2l-0.4-0.2l-0.2-0.1
				l-0.2-0.1 M278,84.1l-0.3-0.2l-0.2-0.2l-0.3-0.2l-0.3-0.2 M278,84.1l-0.3-0.2l-0.2-0.2l-0.3-0.2l-0.3-0.2 M277.8,84.7l-0.2-0.2
				l-0.1-0.1l-0.3-0.2l-0.3-0.2 M277.8,84.7l-0.2-0.2l-0.1-0.1l-0.3-0.2l-0.3-0.2 M277.8,85.4l-0.2-0.2l-0.2-0.1l-0.3-0.2l-0.3-0.1
				l-0.2-0.2 M277.8,85.4l-0.2-0.2l-0.2-0.1l-0.3-0.2l-0.3-0.1l-0.2-0.2 M277.5,85.8l-0.1-0.1l-0.1-0.2l-0.2-0.1l-0.1-0.1l-0.1-0.1
				l-0.3-0.1 M277.5,85.8l-0.1-0.1l-0.1-0.2l-0.2-0.1l-0.1-0.1l-0.1-0.1l-0.3-0.1 M277.5,86.4l-0.3-0.2l-0.1-0.2l-0.2,0l-0.3-0.3
				 M277.5,86.4l-0.3-0.2l-0.1-0.2l-0.2,0l-0.3-0.3 M277.5,86.9l-0.3-0.3l-0.3-0.2l-0.2-0.2 M277.5,86.9l-0.3-0.3l-0.3-0.2l-0.2-0.2
				 M277.4,87.3l-0.2-0.2L277,87l-0.3-0.3 M277.4,87.3l-0.2-0.2L277,87l-0.3-0.3 M279,81.1l-0.2-0.2l-0.2-0.1l-0.3-0.1l-0.2-0.1
				l-0.4-0.1l-0.3,0 M279,81.1l-0.2-0.2l-0.2-0.1l-0.3-0.1l-0.2-0.1l-0.4-0.1l-0.3,0"/>
			<path class="st13" d="M282.7,86.3l-0.5,0l-0.5,0.2l-0.6,0.2l-0.6,0.2l-1.1,0.6 M282.2,87.6l-0.5,0.1l-0.6,0.2l-0.4,0.1l-0.7,0.4
				l-0.6,0.3 M282.2,87.6l-0.5,0.1l-0.6,0.2l-0.4,0.1l-0.7,0.4l-0.6,0.3 M281.8,88.7l-0.5,0.1l-0.6,0.2l-0.5,0.2l-0.4,0.2l-0.6,0.4
				l0.1-0.1 M281.8,88.7l-0.5,0.1l-0.6,0.2l-0.5,0.2l-0.4,0.2l-0.6,0.4l0.1-0.1 M282,89.6l-0.4,0.1l-0.5,0.2l-0.5,0.2l-0.7,0.4
				l-0.5,0.3 M282,89.6l-0.4,0.1l-0.5,0.2l-0.5,0.2l-0.7,0.4l-0.5,0.3 M281.6,90.5l-0.6,0.2l-0.5,0.3l-0.2,0.1l-0.4,0.3l-0.3,0.3
				 M281.6,90.5l-0.6,0.2l-0.5,0.3l-0.2,0.1l-0.4,0.3l-0.3,0.3 M281.7,91.2l-0.6,0.3l-0.4,0.3l-0.4,0.2l-0.3,0.3l-0.3,0.2l0.1,0
				 M281.7,91.2l-0.6,0.3l-0.4,0.3l-0.4,0.2l-0.3,0.3l-0.3,0.2l0.1,0 M281.8,92l-0.4,0.3l-0.3,0.2l-0.3,0.2l-0.6,0.5 M281.8,92
				l-0.4,0.3l-0.3,0.2l-0.3,0.2l-0.6,0.5 M281.7,93.2l-0.4,0.3l-0.2,0.1l-0.4,0.4 M281.7,93.2l-0.4,0.3l-0.2,0.1l-0.4,0.4 M281.7,94
				l-0.4,0.4l-0.2,0.3l-0.2,0.2 M281.7,94l-0.4,0.4l-0.2,0.3l-0.2,0.2 M281.9,94.8l-0.3,0.3l-0.2,0.2l-0.2,0.2 M281.9,94.8l-0.3,0.3
				l-0.2,0.2l-0.2,0.2 M282,95.6l-0.3,0.3l-0.2,0.2 M282,95.6l-0.3,0.3l-0.2,0.2 M282.3,96.5l-0.3,0.4l-0.2,0.1 M282.3,96.5
				l-0.3,0.4l-0.2,0.1 M282.4,97.5l-0.3,0.4l-0.2,0.3 M282.4,97.5l-0.3,0.4l-0.2,0.3 M282.4,98.6l-0.3,0.4l-0.2,0.3 M282.4,98.6
				l-0.3,0.4l-0.2,0.3 M266.8,110.5l0.7,0.4 M266.8,110.5l0.7,0.4 M267.1,110.4l0.7,0.4 M267.1,110.4l0.7,0.4 M246,114.7l-0.1-0.4
				 M246,114.7l-0.1-0.4 M244,118.5l-0.5,0 M244,118.5l-0.5,0 M246.7,117.8l-0.6,0 M246.7,117.8l-0.6,0 M241.2,117.2l-0.2-0.4
				 M241.2,117.2l-0.2-0.4"/>
			<polygon class="st13" points="262.2,113.1 262.1,113.1 262,113.1 261.9,113.1 261.9,113.1 261.9,113.2 262,113.2 262.1,113.2 
				262.2,113.1 			"/>
			<polygon class="st13" points="262.9,113.2 262.8,113.1 262.7,113.1 262.8,113.2 262.9,113.2 			"/>
			<polygon class="st13" points="263.7,113.2 263.6,113.2 263.5,113.1 263.5,113.2 263.4,113.2 263.5,113.2 263.5,113.3 
				263.6,113.2 263.7,113.2 			"/>
			<polygon class="st13" points="260.3,113 260.2,113 260.1,113 260.2,113.1 260.3,113 			"/>
			<polygon class="st13" points="260.8,113.1 260.7,113 260.6,113.1 260.7,113.1 260.8,113.1 			"/>
			<polygon class="st13" points="261.4,112.8 261.3,112.8 261.2,112.8 261.3,112.8 261.4,112.8 			"/>
			<polygon class="st13" points="259.8,113 259.8,113 259.7,113 259.6,113 259.5,113 259.6,113.1 259.7,113.1 259.8,113.1 
				259.8,113 			"/>
			<polygon class="st13" points="259.6,112.4 259.5,112.4 259.3,112.4 259.5,112.4 259.6,112.4 			"/>
			<polygon class="st13" points="258.6,113 258.5,112.9 258.3,113 258.5,113 258.6,113 			"/>
			<polygon class="st13" points="259.2,113.4 259.1,113.3 259,113.4 259.1,113.5 259.2,113.4 			"/>
			<polygon class="st13" points="257.8,112.4 257.7,112.4 257.6,112.4 257.7,112.5 257.8,112.4 			"/>
			<polygon class="st13" points="257.8,113.2 257.7,113.2 257.5,113.2 257.7,113.2 257.8,113.2 			"/>
			<polygon class="st13" points="258.8,112.2 258.8,112.2 258.7,112.2 258.6,112.2 258.5,112.2 258.6,112.3 258.7,112.3 
				258.8,112.3 258.8,112.2 			"/>
			<polygon class="st13" points="260.4,112.3 260.2,112.2 260.1,112.3 260.2,112.3 260.4,112.3 			"/>
			<polygon class="st13" points="262.2,112.3 262.1,112.3 262.1,112.2 262,112.3 261.9,112.3 262,112.3 262.1,112.4 262.1,112.4 
				262.2,112.3 			"/>
			<polygon class="st13" points="261.5,112.1 261.4,112 261.3,112.1 261.4,112.1 261.5,112.1 			"/>
			<polygon class="st13" points="260.9,112.3 260.8,112.3 260.7,112.3 260.8,112.3 260.9,112.3 			"/>
			<polygon class="st13" points="257,112.6 257,112.6 256.8,112.6 256.9,112.7 257,112.6 			"/>
			<polygon class="st13" points="255.8,112.9 255.7,112.8 255.5,112.8 255.6,112.9 255.8,112.9 			"/>
			<polygon class="st13" points="254.8,113.1 254.7,113 254.5,113.1 254.7,113.1 254.8,113.1 			"/>
			<polygon class="st13" points="256.6,112.6 256.5,112.6 256.4,112.6 256.4,112.6 256.3,112.6 256.4,112.7 256.4,112.7 
				256.5,112.7 256.6,112.6 			"/>
			<polygon class="st13" points="262.6,112.4 262.5,112.3 262.4,112.4 262.5,112.4 262.6,112.4 			"/>
			<polygon class="st13" points="263.2,112.4 263.1,112.4 262.9,112.4 263.1,112.4 263.2,112.4 			"/>
			<polygon class="st13" points="264.1,112.7 264,112.6 263.9,112.7 264,112.8 264.1,112.7 			"/>
			<polygon class="st13" points="264.7,112.9 264.6,112.9 264.5,112.9 264.6,113 264.7,112.9 			"/>
			<polygon class="st13" points="264.3,113.5 264.1,113.5 264,113.5 264.1,113.5 264.3,113.5 			"/>
			<polyline class="st13" points="253.4,116.4 253,116.3 252.7,116.2 252.5,116.1 252.3,115.9 252.1,115.7 252,115.6 251.9,115.3 
				251.8,115 251.8,114.8 251.9,114.5 252.1,114.1 252.3,113.8 252.7,113.5 253.4,113.1 254,112.8 254.8,112.6 255.5,112.3 
				256.3,112.1 257,111.9 257.9,111.7 258.6,111.7 259.3,111.6 260,111.6 260.4,111.6 261.1,111.6 261.4,111.6 262,111.7 
				262.4,111.8 262.8,111.9 263.6,112.1 264,112.2 264.4,112.3 264.8,112.4 265,112.5 265.4,112.7 265.3,113 264.9,113.5 
				264.5,113.9 264.4,114 264,114.3 263.1,114.8 262.8,115 262.2,115.3 261.6,115.6 260.6,115.9 259.8,116.2 259.3,116.3 259,116.4 
				258.3,116.4 257.8,116.5 257,116.6 256.5,116.6 256,116.6 254.9,116.6 254.2,116.5 253.9,116.5 253.4,116.4 			"/>
			<polyline class="st13" points="253.4,116.4 253,116.3 252.7,116.2 252.5,116.1 252.3,115.9 252.1,115.7 252,115.6 251.9,115.3 
				251.8,115 251.8,114.8 251.9,114.5 252.1,114.1 252.3,113.8 252.7,113.5 253.4,113.1 254,112.8 254.8,112.6 255.5,112.3 
				256.3,112.1 257,111.9 257.9,111.7 258.6,111.7 259.3,111.6 260,111.6 260.4,111.6 261.1,111.6 261.4,111.6 262,111.7 
				262.4,111.8 262.8,111.9 263.6,112.1 264,112.2 264.4,112.3 264.8,112.4 265,112.5 265.4,112.7 265.3,113 264.9,113.5 
				264.5,113.9 264.4,114 264,114.3 263.1,114.8 262.8,115 262.2,115.3 261.6,115.6 260.6,115.9 259.8,116.2 259.3,116.3 259,116.4 
				258.3,116.4 257.8,116.5 257,116.6 256.5,116.6 256,116.6 254.9,116.6 254.2,116.5 253.9,116.5 253.4,116.4 			"/>
		</g>
		<polyline class="st13" points="285.2,107.7 285,107.6 284.4,107.4 283.9,107.1 283.6,106.8 283.1,106.4 282.8,106.1 282.3,105.5 
			282.1,105.3 282,105 281.9,104.8 281.6,104.3 281.5,103.8 281.3,103.3 281.2,102.9 281,102.4 281,102.1 281,101.8 281,101.6 
			280.9,101.1 280.7,100.7 280.5,100.2 280.4,99.8 280.2,99.3 279.9,98.4 279.8,97.9 279.6,97.4 279.5,96.8 279.4,96.3 279.2,95.8 
			279.2,95.3 279,94.9 278.9,94.4 278.8,93.8 278.8,93.4 278.7,92.6 278.6,92 278.6,91.5 278.6,91 278.6,90.7 278.6,90.3 
			278.6,89.8 278.6,89.4 278.7,88.9 278.8,88.5 278.8,88.2 278.9,87.8 278.9,87.5 279,86.9 279.1,86.7 279.2,86.1 279.4,85.7 
			279.4,85.4 279.6,85.2 279.7,85 279.8,84.8 279.9,84.5 280,84.3 280.1,83.9 280.3,83.6 280.5,83.2 280.8,82.7 280.9,82.4 
			281,82.2 281.2,81.8 281.3,81.5 281.3,81.2 281.3,81.1 281.2,80.9 281,80.6 280.7,80.4 280.4,80.2 280.1,80.1 279.5,79.9 
			279.3,79.9 278.8,79.8 278.4,79.8 277,79.7 276,79.7 274.5,79.6 272.6,79.4 270.9,79.1 269.7,79 268.6,78.8 267.4,78.6 
			266.2,78.3 265.6,78.2 264.7,77.9 264.1,77.9 263.6,77.8 263.1,77.7 262.6,77.6 262.1,77.5 261.6,77.5 261,77.5 260.3,77.4 
			259.4,77.4 258.7,77.4 258.1,77.4 257.5,77.4 256.9,77.4 256.2,77.4 255.1,77.5 254.4,77.5 253.9,77.6 253.3,77.6 252.7,77.6 
			251.5,77.8 251,77.9 250.4,78 249.7,78.1 249.1,78.3 248.4,78.5 247.7,78.6 247,78.9 246.4,79.1 245.8,79.3 245,79.6 244,80 
			243.3,80.5 242.6,80.9 242.3,81.1 241.8,81.4 241.5,81.7 241.1,82 240.9,82.1 240.4,82.7 239.9,83.2 239.4,83.7 239,84.1 
			238.4,85.2 238.2,85.6 237.9,86.1 237.6,86.5 237.3,86.9 236.7,88 236.3,88.9 235.9,89.6 235.8,89.9 235.6,90.3 235.5,90.7 
			235.3,91.2 235.2,91.5 235.1,91.9 234.9,92.2 234.8,92.5 234.7,92.9 234.6,93.2 234.5,93.6 234.5,93.9 234.4,94.3 234.4,94.6 
			234.3,95 234.4,95 		"/>
	</g>
</g>
<g id="Layer_8">
	<path class="st14" d="M332.1,110.2c-1.7,2.3,0.3,6.6-0.6,9.2c-0.4,1.2-1.2,1.2-1.8,2.6c0.2,1.5,1.5,2,1.8,3.7
		c0.4,2.4-1.6,4-1.5,5.8c0.1,1.1,1.3,1.8,1.3,2.8c0.1,1.3-1.4,2.2-1.5,3.7c0,1.1,1.2,2.3,1.2,3.3c0,1.1-0.8,1.6-1.2,2.4
		c-0.7,1.8-0.7,4.4-1.2,6.8c-0.5,2.3-0.9,4.5-1.6,6.5c-1.3,3.8-4.7,12.3-8,8.4c-1.5,1.8-5.5,2.6-8,1.2c-3.8,2.2-10.6,0.9-9.2-4.9
		c-0.3-0.4-1.9-0.2-1.5-0.9c0.1-1.1,1.6,0.2,2.4,0c-1.6,5.2,3.1,6.8,6.8,5.4c0.1-0.9-1.6-0.6-0.7-1.4c0.4-0.7,1.1,0.6,1.9,0.7
		c0.8,0.1,1.1-0.6,1.8-0.4c0.3,0.6,0,0.5-0.1,1c3.1,0.9,5.5-1.1,7-2.1c0.6,0.4,0.3,1.5,1.3,1.6c1.3,0.1,2.5-2.5,3.3-3.8
		c1-1.8,1.6-3.2,2.2-5.1c2.1-5.9,2-11.4,4.1-15.4c-1.5-2.4-1.2-4.9,0.3-7c-0.1-0.9-1.2-1.6-1.3-2.6c-0.2-1.4,1.5-3.3,1.5-5.1
		c0-1.7-1.7-3.4-1.8-4.5c0-1.8,1.6-2.3,1.9-3.5c0.3-2-0.5-3.5-0.4-5.4c0.1-1.6,1-2.8,0.9-4c-0.1-1.2-0.9-1.8-1.5-2.8
		c0-0.9,0.8-0.8,0.7-1.7c-0.2-1.6-1.6-2.2-1.6-4c0-1.1,1-2.1,1.2-3.1c0.6-2.9-0.4-5.2-1.9-7c0.8-2,1.6-2.4,1.3-5.2
		c-0.3-3.8-3.1-8-7.4-8c-1.9,0-3.6,1.6-5.2,1.7c-0.7,0.1-1.5-0.4-2.1-0.3c-1.6,0.2-2.6,2.8-4,3.1c-1.1,0.3-2-0.3-2.8,0
		c-2,0.8-2.3,3.2-3.3,4.7c-0.6,0.2-0.9,0-1.5-0.2c-1.6,0.3-2.4,3.1-4,3.7c-1.6,0.5-3.9-0.3-5.8,0.5c-0.7,0.3-1.3,1.2-1.9,1.4
		c-0.8,0.2-2.3-0.1-3.6,0c-1.5,0.1-3,0.7-4,0.5c-0.4-0.1-0.9-0.5-1.3-0.5c-1.9-0.2-3.1,0.8-4.4,2.1c-0.5-1,0.5-1.7,0.3-3
		c-0.4-2.8-5.6-3.4-7.1-2.1c-1.5-2-2.8-5.8-5.8-5.6c-1.1,0.1-1.7,1.2-2.5,0.7c-0.2-1,1.4-1.3,2.4-1.6c-2.7-3.6-10.1-1.2-11.4,2.3
		c0.7-0.2,1.4-0.2,2.1-0.2c2.5,0.1,5.7,1.7,6.1,3.7c-1-0.2-1.8-1.2-2.8-1.7c-3.7-2-9.2-0.7-10.7,3.3c-0.7,1.9,0.2,5.6-0.6,8.4
		c-0.2,0.7-1.1,1.8-1,2.4c0.1,1.3,2.1,1.8,2.2,3.1c0.1,1.3-1.3,2.8-1,4.7c0.1,0.8,0.9,1.8,0.9,2.4c0,1-1.4,2.3-1.5,3.8
		c-0.1,1.8,1.1,4,1,5.6c-0.1,1.1-1,2.2-1,3.1c-0.1,1.4,1.1,2.4,1.2,3.7c-1.5,1.4-2.4,3.7-2.4,6.6c0,2.7,1.1,4,1.5,5.8
		c0.3,1.3,0,2.7,0.1,4c0.1,0.3,0.1,0.7,0.2,1l0.2,0.4c0.9,3.5,3,4.8,4.9,4.5v0c0.3,0,0.6-0.1,0.9-0.2c1.9,0.2,2,3.1,2,4.7
		c-0.1,2.1,1.1,1.8,1.4,0.1c0.4-2.3-0.6-4.1-1.6-5.9c0.5-0.4,0.9-1,1.2-1.7c0.3,0.1,0.7,0,1.1-0.1l0.2-0.5c0.1-1.4,0.2-2.7,0-4
		c-0.6-4.5-3.8-7.8-4.9-11.9c-1.1-4.2,1.5-8.4,1.2-12.7c-0.1-1.3-0.6-2.4-0.7-3.7c-0.7-6.5,2.8-11.7,1.6-19c-0.6-0.9-2-0.9-2.4-2.1
		c0.5-0.7,1.6,0.6,2.2,0.9c0.2-0.1-0.4-2.1,0.4-1.9c0.7,0.3,0.5,1.7,0.7,2.6c1.7,2,3.9,2.4,5.9,4.2c1.5,1.3,3.7,4.5,5.2,5.2
		c1.9,0.9,4-0.2,5.8,0.9c0.5,0.3,0.8,1.3,1.3,1.6c3.2,1.9,6.4-0.3,10.1-0.3c0.4,0.5,0.5,1.1,0.3,1.9c2.8,0.4,4.5-0.8,6.7-1.9
		c2.1-1,3.5-1.9,5.6-1.9c1.7,0,3.6-0.6,5-1.4c1.8-1,3.1-3,5-3.8c1.4-0.5,2.7-0.3,3.9-1c0.5-0.3,0.8-1,1.3-1.6c1.7-1.6,3.5-1.5,3.7-4
		c0.8-0.3,1.8,0.3,2.7-0.2c0.7-0.2,0.4-1.6,0.7-2.1c0.8,0.3,3.1,1.5,2.8-1.6c1.2,0.4,1.4-0.8,2.2-0.3c0,0.9-0.5,1.3-1.3,1.2
		c-0.2,1.7-1.5,2.6-3.1,2.1c-0.3,0.5-0.4,1.3-0.9,1.6c-0.6,0.3-1.6,0.1-2.4,0.2c-0.5,1.6-0.2,3.2-0.6,5.2c-0.3,1.6-1.3,3.2-0.9,5.1
		c0.2,0.8,1.3,1.5,1.5,2.4c0.3,1.2-0.4,2-0.6,3.3c-0.2,1.5,0.3,3.7,0.3,6.1c0,2.7,0,4.8,0.3,6.6c0.5,3.2-0.9,5.5-0.7,7.5
		c0.2,2,1.8,3.5,1.6,5.2c-0.3,2-2.2,3.3-2.1,5.1c0.1,1.2,1.5,1.8,1.5,2.8c0,1.2-1.1,1.7-1.6,2.4c-0.9,1.3-1.7,3.1-2.2,4
		c0.8,0.6,2.4,1,2.2,2.3c-1.2,0.2-1.4-1.2-2.7-1.4c-1.7-0.2-3.3,1.3-4.7,1.9c-0.6-0.2-0.5-1.2-1-1.4c-1.5-1.1-2.6,0.2-3.7,0
		c-1-0.2-1.6-2.1-2.4-3c-1.7-2-4.4-2.7-7.3-2.4c-6,0.5-13.9,6.1-14.7,12.7c-0.5,4,1.1,6.5,1.6,9.6c0.1,0.8,0,1.4,0.1,2.1
		c0.5,1.6,2.4,2,2.7,4.5c0.1,0.9-0.2,1.9-0.1,2.8c0.4,4.6,5.3,3.2,4.6-1.2c-0.3-1.7-1.9-2.2-2.5-3.1c0,0,0-0.7,0-0.7
		c-0.7-0.8-1.8-1.3-2.4-1.9c-3.1-3.8-2.7-11.5-0.6-15.5c0.8-1.4,1.9-3.3,3.1-3.7c-0.2,1.5-1.5,2.3-2.2,3.7c-0.8,1.4-1.7,3.8-1.9,5.6
		c-0.7,6.9,3.1,11.6,7.7,12.9c0.1,0.2,0.8,0.6,0.3,0.9c1.7-2.1,4.7-4.7,5.8-8.2c0.2-0.7-0.2-1.6,0.6-1.9c0.6,0.3,0.1,2.2,0,2.6
		c-0.5,1.5-2,3.6-3.3,5.2c-0.9,1.2-3.3,3.1-3.6,4.9c-0.3,2.1,1.3,4.2,2.7,4c1.7-0.2,2.9-5.9,3.7-8.2c1-3,3-5.6,3-9.1
		c0-3.9-2.4-7.2-5-7.3c-1.6-0.1-2.6,1-3.9,0.7c-0.3-0.8,0.9-1,1.5-1.2c4.8-1.5,8.1,2.7,8.1,7.9c0,3.6-2,6-3.1,9.4
		c-1.2,3.5-1.8,7.5-3.8,8.7"/>
</g>
<g id="Layer_9">
	<g>
		<path class="st15" d="M304.4,134.3c-0.5-7.2-1.5-15.6,1.7-21.9c1.4-2.7,4.6-4.8,6.7-5.7c0-0.7-2.1,0.5-2.3,0.6
			c-2.3,0.9-4.5,4-7.1,2.7c-0.4-0.1-0.2-0.7-0.4-1.1c-0.3-0.6-0.1-2.4,0.6-2.4c0.6,0,1.3,0.1,1.9,0.3c-0.7-0.2-1.2-0.5-1.5-0.7
			c-0.4-0.2,0-1.9,0.5-1.7c2.5,1,5.6,2.1,8,0.4c2.5-1.8,2.5-3.7,2.7-5.1c-0.9,3.7-4.3,6.5-6.8,3.5c-3.7-4.4-1.1-11.3,2.6-14.8
			c0.4-0.4,0.7-0.7,1.1-1c8.4-6.2,19.1,1.5,20.4,13.7c3.5,6.3,1.1,10.6,0.5,17c-0.6,6.9-3.9,18.6-14.4,18.6
			c-8.6,0-13.2-8.4-10.5-18.8c0.7-3,3.2-5.4,5.1-4.1c0.4-0.6,0.8-1.3,0.9-2.2c-2-1.1-5.3,1.6-6.4,3.9c-2.9,5.5-2,12.7-2.1,19
			C305.3,136.5,304.5,136.1,304.4,134.3L304.4,134.3z"/>
		<path class="st16" d="M313,113.7c0.8,0.6,1.4,1.9,1.2,3.9c-0.9,1.6-2.7,1.8-3.9,2.9c-1,0.9-0.1,1.5-0.1,2.6c0,0.8,0.6,1.1,0.6,1.8
			c0.1,1.4,1.3,1.6,2.1,2.3c2.8,2.7,2.9-5.2,3-7.3c0-1,0.1-3.2,1.2-2.9c0.9,0.3,0.9,1.9,0.6,2.7c-0.5,1.4-2.3,8.4-0.6,8.8
			c0.7,0.2,1.4,0.9,2,0.2c0.7-0.7,1.5,0.2,2.2-0.6c0.6-0.6,1.9,0.2,1.7-1.5c-0.3-2.9-1.4-4.8-3-6.8c-0.8-1-2-5.5-0.6-6.2
			c1.5-0.7,2,2.9,2.1,4.1c0.2,3,1.2,6.3,3.4,7.5c1.4,0.8,1.5-1.4,2.2-2.3c0.5-0.6,0.2-0.9,0.9-1.9c0.5-0.7,0.7-1.7,0-2.2
			c-1.5-1.1-3.2-1.6-4.5-3.1c-0.8-0.9-3.1-2.5-1.9-3.7c0.5-0.6,1.3-0.2,1.8,0.4c1.5,1.6,3.6,4.1,6,4.2c0.7,0,0.2-1.1,0.6-1.6
			c0.4-0.6-0.1-1.3,0.2-2c0.3-0.7-0.4-1.4,0-2.1c0.2-0.4-0.1-0.7-0.4-0.8c-1.9-0.4-3.8-0.4-5.6-0.1c-1,0.2-2.8,0.4-3-1.6
			c-0.1-1.5,2.6-1.3,3.2-0.9c1.3,1,2.8,2,4.3,1.9c0.6,0,2.5,0.1,1.8-1.3c-0.4-0.9,0.6-1.3-0.3-2.6c-0.5-0.7,0.5-2.7-0.7-2.7
			c-1.7,0-3.6,0.3-5,1.6c-1.2,1-4.6,1.6-4.4-0.7c0.2-2.3,3-2,3.8-1.6c1.5,0.8,3.3,0.9,4.9,0.3c1.5-0.6,0.2-1.6,0.3-2.9
			c0.1-1.3-0.8-1.1-0.7-2.3c0.1-0.8-0.7-1.8-1.3-1.2c-1.3,0.7-2.5,1.9-3.6,3.1c-2.4,2.6-3.3-0.9-1.2-1.6c0.9-0.3,4.7-1.7,3.7-3.7
			c-0.5-0.9-1.6-0.6-1.8-1.6c-0.2-1.2-1.4-0.7-1.8-1.6c-0.4-0.8-0.7-0.9-1.1-0.2c-0.8,1.6-0.9,3.9-0.8,5.2c0.3,3.7-1.8,4.1-1.9,0.2
			c-0.1-6.2-0.1-6.2-1-6.9c-1.2-0.9-0.9,0.2-2,0c-0.5-0.1-0.9,0.7-0.5,1.3c0.7,1.4,1.1,3,1.4,4.5c-0.4-1.7-1.2-3.2-2.1-4.4
			c-0.7-1-1,0.8-1.5,1.1c-0.9,0.5-0.8,2.4-1.2,2.9c-0.5,0.6-0.5,1.9,0.2,2.3c1.4,0.8,3,0.8,4.5,1.1c-1.5-0.3-3.2,7.7-7,2.4
			c-2.6-3.6-1-9.2,1.6-12.1c0.4-0.4,0.7-0.7,1.1-1c8.4-6.2,19.1,1.5,20.4,13.8c3.5,6.3,1.1,10.6,0.5,17c-0.4,4.7-2.7,9.1-5.1,11.8
			c-6.2,7.2-18,5.8-19.9-5.9c-0.3-1.9-0.4-4.2,0.1-6.2C308.7,114.7,311.1,112.4,313,113.7L313,113.7z"/>
		<g>
			<line class="st16" x1="321.4" y1="91.8" x2="320.9" y2="96.1"/>
			<line class="st16" x1="321.7" y1="91.9" x2="321" y2="96.1"/>
			<line class="st16" x1="322" y1="91.7" x2="321.1" y2="95.9"/>
			<line class="st16" x1="322.3" y1="91.8" x2="321.2" y2="95.8"/>
			<line class="st16" x1="322.7" y1="91.6" x2="321.4" y2="95.9"/>
			<line class="st16" x1="323" y1="91.9" x2="321.4" y2="96"/>
			<line class="st16" x1="323.3" y1="92.1" x2="321.5" y2="96.1"/>
			<line class="st16" x1="323.6" y1="92.2" x2="321.6" y2="96.2"/>
			<line class="st16" x1="321.7" y1="96.3" x2="323.8" y2="92.5"/>
			<line class="st16" x1="323.8" y1="92.9" x2="321.9" y2="96.2"/>
			<line class="st16" x1="324.2" y1="93" x2="321.9" y2="96.3"/>
			<line class="st16" x1="324.2" y1="93.3" x2="321.9" y2="96.4"/>
			<line class="st16" x1="324.5" y1="93.5" x2="322.1" y2="96.4"/>
			<line class="st16" x1="324.5" y1="93.9" x2="322.1" y2="96.5"/>
			<line class="st16" x1="324.7" y1="94.1" x2="322.1" y2="96.5"/>
			<line class="st16" x1="322.1" y1="96.6" x2="324.7" y2="94.4"/>
			<line class="st16" x1="322.1" y1="96.8" x2="324.7" y2="94.9"/>
			<line class="st16" x1="322.1" y1="97" x2="324.6" y2="95.2"/>
			<line class="st16" x1="322.1" y1="97.1" x2="324.5" y2="95.7"/>
		</g>
		<g>
			<line class="st16" x1="316.4" y1="95.4" x2="314.5" y2="91.6"/>
			<line class="st16" x1="316.3" y1="95.5" x2="314.1" y2="91.5"/>
			<line class="st16" x1="316" y1="95.3" x2="313.9" y2="91.9"/>
			<line class="st16" x1="315.9" y1="95.6" x2="313.5" y2="91.8"/>
			<line class="st16" x1="315.7" y1="95.5" x2="313.3" y2="92.1"/>
			<line class="st16" x1="315.8" y1="95.8" x2="313" y2="92.3"/>
			<line class="st16" x1="315.6" y1="95.7" x2="312.9" y2="92.9"/>
			<line class="st16" x1="315.5" y1="95.9" x2="312.7" y2="93.4"/>
			<line class="st16" x1="315.5" y1="96.1" x2="312.3" y2="93.7"/>
			<line class="st16" x1="315.4" y1="96.2" x2="312.2" y2="94.1"/>
			<line class="st16" x1="315.3" y1="96.3" x2="312.1" y2="94.6"/>
			<line class="st16" x1="315.4" y1="96.4" x2="311.8" y2="94.9"/>
			<line class="st16" x1="315.3" y1="96.5" x2="312" y2="95.4"/>
			<line class="st16" x1="315.4" y1="96.8" x2="311.6" y2="95.8"/>
		</g>
		<g>
			<line class="st16" x1="324.3" y1="101.5" x2="328" y2="102.4"/>
			<line class="st16" x1="324.4" y1="101.3" x2="328.4" y2="102.1"/>
			<line class="st16" x1="324.7" y1="101.1" x2="328.3" y2="101.6"/>
			<line class="st16" x1="324.6" y1="100.8" x2="328.6" y2="101.2"/>
			<line class="st16" x1="324.8" y1="100.7" x2="328.7" y2="100.7"/>
			<line class="st16" x1="324.6" y1="100.5" x2="328.7" y2="100.3"/>
			<line class="st16" x1="324.8" y1="100.4" x2="328.5" y2="99.7"/>
			<line class="st16" x1="324.7" y1="100.2" x2="328.4" y2="99.2"/>
			<line class="st16" x1="324.7" y1="100" x2="328.4" y2="98.5"/>
			<line class="st16" x1="324.6" y1="99.9" x2="328.3" y2="98.1"/>
			<line class="st16" x1="324.6" y1="99.7" x2="328.1" y2="97.6"/>
			<line class="st16" x1="324.5" y1="99.6" x2="328.1" y2="97.1"/>
			<line class="st16" x1="324.5" y1="99.5" x2="327.7" y2="96.8"/>
			<line class="st16" x1="324.3" y1="99.4" x2="327.7" y2="96.2"/>
		</g>
		<g>
			<line class="st16" x1="324.6" y1="106.7" x2="329.2" y2="108.2"/>
			<line class="st16" x1="324.7" y1="106.6" x2="329.6" y2="108.1"/>
			<line class="st16" x1="325.1" y1="106.4" x2="329.6" y2="107.7"/>
			<line class="st16" x1="325" y1="106.2" x2="330" y2="107.4"/>
			<line class="st16" x1="325.2" y1="106.2" x2="330.1" y2="107.1"/>
			<line class="st16" x1="325" y1="106" x2="330.2" y2="106.7"/>
			<line class="st16" x1="325.2" y1="105.9" x2="330" y2="106.3"/>
			<line class="st16" x1="325.1" y1="105.7" x2="329.8" y2="105.8"/>
			<line class="st16" x1="325.1" y1="105.6" x2="330" y2="105.3"/>
			<line class="st16" x1="325" y1="105.5" x2="329.8" y2="104.9"/>
			<line class="st16" x1="325.1" y1="105.4" x2="329.6" y2="104.5"/>
			<line class="st16" x1="324.9" y1="105.3" x2="329.6" y2="104.1"/>
			<line class="st16" x1="324.9" y1="105.2" x2="329.1" y2="103.8"/>
			<line class="st16" x1="324.7" y1="105" x2="329.2" y2="103.3"/>
		</g>
		<g>
			<line class="st16" x1="324.3" y1="112.2" x2="328.2" y2="115.7"/>
			<line class="st16" x1="324.5" y1="112.1" x2="328.7" y2="115.7"/>
			<line class="st16" x1="324.9" y1="112.1" x2="328.8" y2="115.2"/>
			<line class="st16" x1="324.8" y1="111.9" x2="329.3" y2="115.2"/>
			<line class="st16" x1="325.1" y1="111.9" x2="329.5" y2="114.8"/>
			<line class="st16" x1="324.9" y1="111.6" x2="329.7" y2="114.5"/>
			<line class="st16" x1="325.2" y1="111.6" x2="329.6" y2="113.9"/>
			<line class="st16" x1="325.1" y1="111.4" x2="329.6" y2="113.3"/>
			<line class="st16" x1="325.1" y1="111.2" x2="329.9" y2="112.8"/>
			<line class="st16" x1="325.1" y1="111.1" x2="329.8" y2="112.3"/>
			<line class="st16" x1="325.2" y1="111" x2="329.8" y2="111.8"/>
			<line class="st16" x1="325.1" y1="110.8" x2="329.9" y2="111.4"/>
			<line class="st16" x1="325.1" y1="110.7" x2="329.5" y2="110.9"/>
			<line class="st16" x1="324.9" y1="110.4" x2="329.7" y2="110.4"/>
		</g>
		<g>
			<line class="st16" x1="322" y1="117.6" x2="324.9" y2="123.5"/>
			<line class="st16" x1="322.2" y1="117.6" x2="325.3" y2="123.8"/>
			<line class="st16" x1="322.5" y1="117.9" x2="325.5" y2="123.5"/>
			<line class="st16" x1="322.6" y1="117.6" x2="326" y2="123.7"/>
			<line class="st16" x1="322.8" y1="117.8" x2="326.3" y2="123.5"/>
			<line class="st16" x1="322.7" y1="117.4" x2="326.5" y2="123.4"/>
			<line class="st16" x1="323" y1="117.6" x2="326.6" y2="122.8"/>
			<line class="st16" x1="323" y1="117.4" x2="326.8" y2="122.3"/>
			<line class="st16" x1="323" y1="117.3" x2="327.1" y2="122"/>
			<line class="st16" x1="323" y1="117.1" x2="327.2" y2="121.6"/>
			<line class="st16" x1="323.1" y1="117.1" x2="327.3" y2="121.1"/>
			<line class="st16" x1="323.1" y1="116.9" x2="327.5" y2="120.8"/>
			<line class="st16" x1="323.1" y1="116.7" x2="327.3" y2="120"/>
			<line class="st16" x1="323" y1="116.4" x2="327.6" y2="119.7"/>
		</g>
		<g>
			<line class="st16" x1="318.4" y1="120.5" x2="316.9" y2="126.4"/>
			<line class="st16" x1="318.5" y1="120.6" x2="317.2" y2="127"/>
			<line class="st16" x1="318.7" y1="121.1" x2="317.7" y2="127"/>
			<line class="st16" x1="318.9" y1="121" x2="317.9" y2="127.6"/>
			<line class="st16" x1="319" y1="121.4" x2="318.4" y2="127.7"/>
			<line class="st16" x1="319.2" y1="121" x2="318.8" y2="127.9"/>
			<line class="st16" x1="319.4" y1="121.4" x2="319.3" y2="127.6"/>
			<line class="st16" x1="319.5" y1="121.2" x2="319.9" y2="127.5"/>
			<line class="st16" x1="319.7" y1="121.2" x2="320.5" y2="127.7"/>
			<line class="st16" x1="319.8" y1="121.2" x2="320.9" y2="127.5"/>
			<line class="st16" x1="320" y1="121.2" x2="321.3" y2="127.3"/>
			<line class="st16" x1="320.1" y1="121" x2="321.8" y2="127.3"/>
			<line class="st16" x1="320.2" y1="121" x2="322.1" y2="126.7"/>
			<line class="st16" x1="320.3" y1="120.8" x2="322.7" y2="126.8"/>
		</g>
		<g>
			<line class="st16" x1="314.3" y1="118.9" x2="310.4" y2="121.3"/>
			<line class="st16" x1="314.4" y1="119.1" x2="310.3" y2="121.8"/>
			<line class="st16" x1="314.2" y1="119.5" x2="310.6" y2="122.2"/>
			<line class="st16" x1="314.4" y1="119.6" x2="310.4" y2="122.8"/>
			<line class="st16" x1="314.3" y1="119.9" x2="310.7" y2="123.3"/>
			<line class="st16" x1="314.6" y1="119.9" x2="310.8" y2="123.7"/>
			<line class="st16" x1="314.5" y1="120.2" x2="311.3" y2="124"/>
			<line class="st16" x1="314.6" y1="120.3" x2="311.7" y2="124.4"/>
			<line class="st16" x1="314.7" y1="120.4" x2="311.9" y2="125"/>
			<line class="st16" x1="314.9" y1="120.5" x2="312.3" y2="125.2"/>
			<line class="st16" x1="314.9" y1="120.6" x2="312.7" y2="125.5"/>
			<line class="st16" x1="315.1" y1="120.6" x2="312.9" y2="126"/>
			<line class="st16" x1="315.2" y1="120.7" x2="313.4" y2="125.8"/>
			<line class="st16" x1="315.4" y1="120.7" x2="313.7" y2="126.4"/>
		</g>
		<line class="st16" x1="318.1" y1="94.6" x2="317.8" y2="90"/>
		<line class="st16" x1="317.9" y1="94.5" x2="317.5" y2="89.7"/>
		<line class="st16" x1="317.8" y1="94.2" x2="317.2" y2="89.8"/>
		<line class="st16" x1="317.6" y1="94.4" x2="316.9" y2="89.5"/>
		<line class="st16" x1="317.5" y1="94.2" x2="316.6" y2="89.6"/>
		<line class="st16" x1="317.4" y1="94.5" x2="316.4" y2="89.6"/>
		<line class="st16" x1="317.3" y1="94.3" x2="316.1" y2="90"/>
		<line class="st16" x1="317.2" y1="94.4" x2="315.7" y2="90.2"/>
	</g>
</g>
</svg>
