<?xml version="1.0" encoding="utf-8"?>
<!-- Generator: Adobe Illustrator 16.0.0, SVG Export Plug-In . SVG Version: 6.00 Build 0)  -->
<!DOCTYPE svg PUBLIC "-//W3C//DTD SVG 1.1//EN" "http://www.w3.org/Graphics/SVG/1.1/DTD/svg11.dtd">
<svg version="1.1" id="Layer_1" xmlns="http://www.w3.org/2000/svg" xmlns:xlink="http://www.w3.org/1999/xlink" x="0px" y="0px"
	 width="158px" height="43px" viewBox="0 0 158 43" enable-background="new 0 0 158 43" xml:space="preserve">
<g>
	<g>
		<path fill="#28B7C6" d="M42.753,21.5c0,11.668-9.458,21.126-21.127,21.126C9.959,42.626,0.5,33.168,0.5,21.5
			S9.959,0.374,21.626,0.374C33.295,0.374,42.753,9.832,42.753,21.5"/>
		<path fill="#FFFFFF" d="M36.583,16.202l-7.492,15.517v0.002c-0.049,0.078-0.087,0.162-0.138,0.242l-0.056,0.116
			c-0.608,1.236-1.78,1.93-3.464,1.93h-9.328c-0.572,0-0.995-0.146-1.249-0.368c-0.261-0.2-0.394-0.479-0.394-0.836
			c0-0.209,0.049-0.464,0.174-0.733h2.844c0.021,0,0.039,0.021,0.063,0.021h7.94c0.611-0.014,1.091-0.114,1.599-1.078l0.352-0.728
			l6.79-14.085H36.583z"/>
		<path fill="#FFFFFF" d="M30.013,10.911c0.122-0.263,0.168-0.506,0.168-0.714c-0.001-0.36-0.138-0.633-0.397-0.846
			c-0.26-0.207-0.675-0.36-1.242-0.36H19.21c-1.69,0-2.855,0.695-3.469,1.935l-0.861,1.788l-6.774,14.03h2.342l6.758-14.03
			l0.348-0.726c0.54-1.029,1.06-1.077,1.728-1.077h6.77h1.048H30.013z"/>
		<path fill="#FFFFFF" d="M37.046,14.24c0.108-0.265,0.163-0.516,0.163-0.72c0-0.348-0.131-0.617-0.395-0.842
			c-0.269-0.21-0.685-0.358-1.25-0.358H22.02c-1.686,0-2.855,0.701-3.463,1.932l-6.054,12.557h2.315l1.361-2.776l4.257-8.802
			c0.478-0.811,0.973-0.99,1.749-0.99h11.324h0.623H37.046z"/>
		<path fill="#FFFFFF" d="M30.071,16.11l-1.166,2.422l-0.388,0.815l-0.029,0.063l-3.555,7.371l-0.36,0.721
			c-0.528,1.025-1.048,1.086-1.717,1.086H10.672c-0.024,0-0.05-0.017-0.073-0.029H7.765c-0.13,0.28-0.182,0.527-0.182,0.742
			c0,0.352,0.136,0.622,0.395,0.837c0.268,0.212,0.687,0.368,1.254,0.368h13.687c1.695,0,2.863-0.71,3.475-1.929l0.059-0.125
			c0.049-0.071,0.091-0.159,0.127-0.235l5.842-12.106H30.071z"/>
	</g>
	<path fill="#28B7C6" d="M48.68,18.284c0.417-0.964,0.985-1.804,1.71-2.529c0.726-0.724,1.574-1.288,2.549-1.706
		c0.977-0.414,2.009-0.622,3.107-0.622c1.115,0,2.154,0.208,3.119,0.622c0.962,0.418,1.811,0.982,2.551,1.706
		c0.737,0.726,1.311,1.565,1.726,2.529c0.417,0.958,0.628,1.997,0.628,3.109v8.005h-3.164v-8.007c0-0.663-0.124-1.286-0.376-1.868
		c-0.25-0.581-0.597-1.09-1.038-1.531c-0.439-0.436-0.958-0.78-1.556-1.03c-0.594-0.249-1.225-0.374-1.89-0.374
		c-0.674,0-1.295,0.125-1.88,0.374c-0.586,0.25-1.097,0.595-1.536,1.03c-0.442,0.441-0.789,0.95-1.038,1.531
		c-0.25,0.582-0.376,1.205-0.376,1.868v8.007h-3.162v-8.005C48.054,20.281,48.265,19.242,48.68,18.284"/>
	<path fill="#28B7C6" d="M78.124,23.744l2.241,2.245l-1.104,1.102c-0.757,0.761-1.624,1.341-2.597,1.745
		c-0.973,0.402-1.995,0.604-3.061,0.604c-1.067,0-2.088-0.201-3.063-0.604c-0.973-0.404-1.84-0.984-2.597-1.745
		c-0.785-0.785-1.368-1.668-1.745-2.65c-0.378-0.987-0.57-1.991-0.57-3.009c0-1.021,0.192-2.017,0.57-2.991
		c0.377-0.972,0.96-1.851,1.745-2.632c0.784-0.784,1.663-1.373,2.652-1.764c0.981-0.389,1.989-0.588,3.007-0.588
		c1.017,0,2.022,0.199,3.009,0.588c0.981,0.391,1.869,0.979,2.649,1.764l1.104,1.104l-8.861,8.861c0.902,0.45,1.855,0.6,2.864,0.444
		c1.007-0.155,1.896-0.61,2.654-1.369L78.124,23.744z M70.186,18.008c-0.95,0.949-1.424,2.09-1.424,3.418
		c0,0.736,0.167,1.437,0.499,2.101c0.285-0.284,0.718-0.717,1.297-1.3c0.581-0.58,1.202-1.197,1.852-1.852
		c0.654-0.652,1.281-1.273,1.887-1.868c0.607-0.592,1.07-1.055,1.409-1.389c-0.904-0.45-1.859-0.605-2.866-0.463
		C71.83,16.8,70.946,17.25,70.186,18.008"/>
	<path fill="#28B7C6" d="M88.914,13.386c1.115,0,2.151,0.209,3.115,0.621c0.958,0.417,1.801,0.984,2.522,1.71
		c0.727,0.724,1.292,1.565,1.708,2.524c0.414,0.96,0.627,1.996,0.627,3.115v8.003h-7.972c-1.094,0-2.124-0.208-3.096-0.626
		c-0.973-0.411-1.827-0.987-2.557-1.724c-0.738-0.735-1.311-1.587-1.727-2.562c-0.419-0.972-0.627-2.005-0.627-3.092
		c0-1.119,0.208-2.155,0.627-3.115c0.416-0.959,0.989-1.801,1.727-2.524c0.73-0.726,1.584-1.293,2.557-1.71
		C86.791,13.595,87.82,13.386,88.914,13.386 M93.722,26.195v-4.839c0-0.666-0.126-1.29-0.371-1.873
		c-0.256-0.58-0.603-1.092-1.035-1.53c-0.441-0.439-0.952-0.783-1.533-1.032c-0.583-0.248-1.204-0.373-1.87-0.373
		c-0.665,0-1.293,0.125-1.886,0.373c-0.593,0.249-1.11,0.593-1.549,1.032c-0.44,0.438-0.784,0.95-1.033,1.53
		c-0.249,0.583-0.375,1.207-0.375,1.873c0,0.663,0.127,1.294,0.375,1.886c0.25,0.593,0.593,1.108,1.033,1.546
		c0.439,0.441,0.957,0.784,1.549,1.033c0.593,0.251,1.221,0.374,1.886,0.374H93.722z"/>
	<path fill="#28B7C6" d="M102.929,17.953c-0.43,0.442-0.782,0.95-1.029,1.53c-0.25,0.583-0.377,1.203-0.377,1.869v8.007h-3.201
		v-8.003c0-1.118,0.208-2.156,0.623-3.115c0.414-0.959,0.992-1.801,1.731-2.524c0.73-0.726,1.584-1.293,2.556-1.707
		c0.975-0.416,2.007-0.624,3.101-0.624h1.604v3.161h-1.604C106.333,16.547,104.181,16.657,102.929,17.953"/>
	<path fill="#28B7C6" d="M123.316,18.311c-0.417-0.973-0.989-1.828-1.712-2.562c-0.729-0.736-1.578-1.312-2.551-1.725
		c-0.978-0.417-2.01-0.623-3.102-0.623c-1.12,0-2.159,0.206-3.12,0.623c-0.967,0.413-1.815,0.988-2.551,1.725
		c-0.738,0.733-1.313,1.589-1.729,2.562c-0.418,0.971-0.625,2.002-0.625,3.093c0,0.26,0.017,0.514,0.037,0.764V32.91h3.098v-5.202
		c0.541,0.415,1.128,0.767,1.771,1.043c0.961,0.416,2,0.622,3.12,0.622c1.092,0,2.124-0.206,3.102-0.622
		c0.974-0.415,1.823-0.985,2.551-1.71c0.723-0.721,1.294-1.563,1.712-2.524c0.414-0.96,0.624-1.997,0.624-3.113
		C123.939,20.313,123.73,19.281,123.316,18.311 M120.442,23.274c-0.25,0.581-0.597,1.091-1.039,1.532
		c-0.438,0.437-0.958,0.78-1.555,1.029c-0.599,0.251-1.232,0.373-1.893,0.373c-0.674,0-1.304-0.122-1.898-0.373
		c-0.6-0.249-1.113-0.593-1.558-1.029c-0.442-0.441-0.787-0.951-1.039-1.532c-0.25-0.582-0.372-1.206-0.372-1.871
		s0.123-1.293,0.372-1.884c0.252-0.597,0.597-1.111,1.039-1.554c0.444-0.436,0.958-0.78,1.558-1.028
		c0.595-0.252,1.225-0.376,1.898-0.376c0.661,0,1.294,0.124,1.893,0.376c0.597,0.248,1.116,0.593,1.555,1.028
		c0.442,0.442,0.789,0.957,1.039,1.554c0.249,0.591,0.376,1.219,0.376,1.884S120.69,22.692,120.442,23.274"/>
	<path fill="#28B7C6" d="M140.728,21.403c0,1.116-0.208,2.153-0.623,3.113c-0.417,0.961-0.989,1.803-1.714,2.524
		c-0.724,0.726-1.575,1.295-2.548,1.71c-0.978,0.415-2.01,0.622-3.103,0.622c-1.118,0-2.159-0.207-3.121-0.622
		c-0.965-0.415-1.814-0.984-2.55-1.71c-0.739-0.722-1.314-1.563-1.731-2.524c-0.413-0.96-0.622-1.997-0.622-3.113
		c0-1.091,0.208-2.122,0.622-3.097c0.417-0.969,0.993-1.824,1.731-2.558c0.736-0.736,1.585-1.312,2.55-1.728
		c0.961-0.414,2.002-0.621,3.121-0.621c1.093,0,2.125,0.207,3.103,0.621c0.973,0.416,1.824,0.991,2.548,1.728
		c0.725,0.733,1.297,1.589,1.714,2.558C140.521,19.281,140.728,20.313,140.728,21.403 M137.609,21.403
		c0-0.665-0.128-1.293-0.377-1.884c-0.254-0.595-0.597-1.111-1.041-1.554c-0.437-0.438-0.954-0.784-1.554-1.028
		c-0.594-0.252-1.229-0.376-1.894-0.376c-0.672,0-1.299,0.124-1.897,0.376c-0.597,0.244-1.116,0.591-1.56,1.028
		c-0.439,0.442-0.782,0.959-1.036,1.554c-0.25,0.591-0.374,1.219-0.374,1.884c0,0.664,0.124,1.289,0.374,1.871
		c0.253,0.579,0.597,1.091,1.036,1.532c0.443,0.437,0.963,0.78,1.56,1.029c0.598,0.251,1.225,0.373,1.897,0.373
		c0.665,0,1.3-0.122,1.894-0.373c0.6-0.249,1.117-0.593,1.554-1.029c0.444-0.441,0.787-0.953,1.041-1.532
		C137.481,22.692,137.609,22.067,137.609,21.403"/>
	<path fill="#28B7C6" d="M157.5,9.93h-3.098v5.149c-0.542-0.42-1.132-0.777-1.79-1.055c-0.973-0.417-2.009-0.623-3.102-0.623
		c-1.115,0-2.155,0.206-3.118,0.623c-0.964,0.413-1.812,0.988-2.553,1.725c-0.739,0.733-1.312,1.589-1.727,2.562
		c-0.417,0.971-0.625,2.002-0.625,3.093c0,1.116,0.208,2.153,0.625,3.113c0.415,0.961,0.988,1.804,1.727,2.524
		c0.741,0.725,1.589,1.295,2.553,1.71c0.962,0.416,2.002,0.622,3.118,0.622c1.093,0,2.129-0.206,3.102-0.622
		c0.978-0.415,1.828-0.985,2.551-1.71c0.727-0.721,1.297-1.563,1.711-2.524c0.418-0.96,0.626-1.997,0.626-3.113
		c0-0.115-0.014-0.229-0.018-0.342h0.018V9.93z M154.004,23.274c-0.251,0.581-0.6,1.091-1.038,1.532
		c-0.44,0.437-0.958,0.78-1.559,1.029c-0.592,0.251-1.226,0.373-1.894,0.373c-0.668,0-1.299-0.122-1.896-0.373
		c-0.597-0.249-1.116-0.593-1.555-1.029c-0.442-0.441-0.786-0.951-1.039-1.532c-0.25-0.582-0.375-1.206-0.375-1.871
		s0.125-1.293,0.375-1.884c0.253-0.597,0.597-1.111,1.039-1.554c0.439-0.436,0.958-0.78,1.555-1.028
		c0.597-0.252,1.228-0.376,1.896-0.376c0.668,0,1.302,0.124,1.894,0.376c0.602,0.248,1.119,0.593,1.559,1.028
		c0.438,0.442,0.787,0.957,1.038,1.554c0.251,0.591,0.375,1.219,0.375,1.884S154.255,22.692,154.004,23.274"/>
</g>
</svg>
