<?xml version="1.0" encoding="utf-8"?>
<!-- Generator: Adobe Illustrator 19.0.1, SVG Export Plug-In . SVG Version: 6.00 Build 0)  -->
<svg version="1.1" id="Layer_1" xmlns="http://www.w3.org/2000/svg" xmlns:xlink="http://www.w3.org/1999/xlink" x="0px" y="0px"
	 viewBox="-51 111.8 625.5 293.1" style="enable-background:new -51 111.8 625.5 293.1;" xml:space="preserve">
<style type="text/css">
	.st0{fill:none;}
	.st1{fill:#FFFFFF;}
	.st2{font-family:'HelveticaNeue-Medium';}
	.st3{font-size:36px;}
	.st4{fill:none;stroke:#BCBA40;stroke-width:4;stroke-linecap:round;stroke-miterlimit:10;stroke-dasharray:12.0321,12.0321;}
	.st5{fill:none;stroke:#BEB93C;stroke-width:2;stroke-miterlimit:10;}
	.st6{fill:none;stroke:#BEB93C;stroke-width:2;stroke-linecap:round;stroke-linejoin:round;stroke-miterlimit:10;}
	.st7{fill:none;stroke:#010202;stroke-linecap:round;stroke-linejoin:round;stroke-miterlimit:10;}
	.st8{fill:#3A3A39;stroke:#BEB93C;}
	.st9{fill:#BEB93C;stroke:#BEB93C;}
	.st10{fill:#434343;stroke:#BEB93C;stroke-linecap:round;}
	.st11{fill:#3A3A39;}
	.st12{fill:#1D1D1C;}
	.st13{fill:none;stroke:#BEB93C;stroke-width:0.2155;}
</style>
<g id="Layer_1_1_">
	<rect x="147.3" y="323.9" class="st0" width="261.9" height="30.5"/>
	<text transform="matrix(1 0 0 1 147.254 349.6043)" class="st1 st2 st3">Pathology Pots</text>
	<g>
		<path class="st4" d="M527.1,379.8H-23.3c-6.6,0-12-5.4-12-12v-230c0-6.6,5.4-12,12-12h550.5c6.6,0,12,5.4,12,12v230
			C539.1,374.4,533.7,379.8,527.1,379.8z"/>
	</g>
</g>
<g id="Layer_2">
	<g>
		<ellipse class="st5" cx="260.6" cy="148.6" rx="52.1" ry="2.2"/>
		<path class="st5" d="M312.6,149.1c7.8,3.3,0,6.4,0,6.4c-43.7,4-97.8,1.7-97.8,1.7c-8.9,0-8.6-4.3-8.6-4.3s-0.4-3.8,2.3-3.8
			C208.6,149.1,261.7,152.8,312.6,149.1z"/>
		<path class="st6" d="M303.3,156.9c-2.8,3.8,7.8,5.7,6.7,7.2s-60,2.3-83.2,1.4c-15.1-1.7-11.8-3.2-11.8-3.2
			c4.8-0.7,3.2-4.2,3.5-4.5L303.3,156.9z"/>
		<path class="st7" d="M323.6,301.4"/>
		<path class="st6" d="M214.6,162.9c0,0-6.1,3.5-6.1,7.1l3,106.5c0,0-3.8,2.8-4.8,5.1c0,0-3.1,1.3-5.5,7.8
			c-5.1,8.1,4.3,15.2,7.2,15.8c60.6,12.3,104.1,0.3,104.1,0.3c13.6-7.8,10.9-15.1,10.9-15.1c-1.2-4.1-5.5-7.8-5.5-7.8
			c-1-2.4-4.8-5.1-4.8-5.1l3-106.5c0-3.6-6.1-7.1-6.1-7.1"/>
		<path class="st7" d="M317.1,289.5"/>
		<path class="st6" d="M207,281.5c-6.9,10.7,118.4,10.6,110.9,1"/>
		<path class="st6" d="M211.8,276.5c3.8-2.9,60.2-14.5,101.3-0.6"/>
		<path class="st6" d="M211.8,276.5c-6.3,10.7,108.1,10.6,101.3,1"/>
		<path class="st6" d="M209,187.7c0,0,65.8,6.7,105.8,0"/>
		<polygon class="st8" points="259,275.5 257,275.4 255.1,275.1 253.3,274.7 251.5,274.1 249.8,273.2 248.2,272.3 246.7,271.2 
			245.4,270 244.1,268.6 243,267.2 242,265.6 241.2,263.9 240.6,262.2 240.1,260.4 239.8,258.5 239.7,256.6 239.8,254.6 
			240.1,252.7 240.6,250.9 241.2,249.2 242,247.5 243,245.9 244.1,244.5 245.4,243.1 246.7,241.9 248.2,240.8 249.8,239.9 
			251.5,239.1 253.3,238.4 255.1,238 257,237.7 259,237.6 260.9,237.7 262.8,238 264.7,238.4 266.5,239.1 268.1,239.9 269.7,240.8 
			271.2,241.9 272.6,243.1 273.8,244.5 274.9,245.9 275.9,247.5 276.7,249.2 277.3,250.9 277.8,252.7 278.1,254.6 278.2,256.6 
			278.1,258.5 277.8,260.4 277.3,262.2 276.7,263.9 275.9,265.6 274.9,267.2 273.8,268.6 272.6,270 271.2,271.2 269.7,272.3 
			268.1,273.2 266.5,274.1 264.7,274.7 262.8,275.1 260.9,275.4 		"/>
		<polygon class="st9" points="252.8,269.9 254.8,269.9 256.7,269.7 258.6,269.3 260.3,268.7 262,268 263.7,267.1 265.2,266.1 
			266.6,264.9 267.9,263.6 269,262.1 270,260.6 270.9,259 271.6,257.3 272.2,255.5 272.5,253.6 272.7,251.7 272.7,250.3 
			272.6,248.9 272.4,247.5 272.1,246.2 271.8,244.9 271.3,243.6 270.7,242.4 270,241.3 271,241.9 271.9,242.7 272.7,243.5 
			273.5,244.4 274.3,245.3 274.9,246.2 275.6,247.2 276.1,248.2 276.6,249.3 277.1,250.4 277.4,251.5 277.8,252.7 278,253.9 
			278.1,255.1 278.2,256.3 278.2,257.5 278,259.4 277.6,261.3 277.1,263.1 276.4,264.9 275.5,266.5 274.5,268 273.3,269.4 
			272,270.7 270.6,271.9 269.1,272.9 267.5,273.8 265.8,274.6 264,275.1 262.1,275.5 260.2,275.7 258.3,275.7 257,275.6 
			255.8,275.5 254.6,275.2 253.4,274.9 252.3,274.5 251.2,274.1 250.1,273.6 249.1,273 248.1,272.3 247.1,271.7 246.2,270.9 
			245.4,270.1 244.6,269.2 243.8,268.3 243.1,267.4 242.5,266.4 243.1,266.8 243.6,267.2 244.2,267.5 244.8,267.8 245.4,268.1 
			246,268.4 246.7,268.6 247.3,268.9 248,269.1 248.6,269.3 249.3,269.4 250,269.6 250.7,269.7 251.4,269.8 252.1,269.9 		"/>
		<polygon class="st10" points="257.6,275.7 257.8,275.7 258.5,275.7 259.4,275.7 260.7,275.6 262.1,275.4 263.8,275 265.6,274.5 
			267.4,273.8 269.3,272.8 271.2,271.5 272.9,270 274.5,268.1 275.8,265.7 276.9,263 277.7,259.9 278.2,256.2 278.1,256.4 
			277.9,256.9 277.6,257.7 277.1,258.8 276.5,260.1 275.7,261.5 274.8,263.1 273.7,264.8 272.4,266.4 270.9,268.1 269.2,269.7 
			267.3,271.3 265.2,272.7 262.9,273.9 260.4,275 		"/>
		<polygon class="st11" points="260.5,256.7 259.6,257.2 258.6,257.5 257.6,257.8 256.7,257.9 255.7,258 254.8,258 253.9,258 
			253,257.9 252.2,257.6 251.4,257.4 250.6,257 250,256.6 249.3,256.1 248.8,255.6 248.3,254.9 247.9,254.2 247.6,253.5 
			247.4,252.7 247.3,251.9 247.3,251.1 247.3,250.3 247.5,249.5 247.8,248.7 248.1,247.9 248.5,247.1 249.1,246.4 249.6,245.7 
			250.3,245 251,244.3 251.8,243.7 252.7,243.2 253.6,242.7 254.5,242.2 255.5,241.9 256.4,241.6 257.4,241.4 258.4,241.3 
			259.3,241.3 260.2,241.4 261.1,241.5 261.9,241.7 262.7,242 263.5,242.4 264.1,242.8 264.7,243.3 265.3,243.9 265.8,244.5 
			266.2,245.2 266.5,245.9 266.7,246.7 266.8,247.5 266.8,248.3 266.7,249.1 266.5,249.9 266.3,250.7 265.9,251.5 265.5,252.3 
			265,253 264.4,253.8 263.8,254.4 263.1,255.1 262.3,255.7 261.4,256.2 		"/>
		<polygon class="st8" points="259.7,255.3 259,255.7 258.2,255.9 257.4,256.1 256.7,256.3 255.9,256.4 255.1,256.4 254.4,256.4 
			253.7,256.2 253.1,256.1 252.4,255.8 251.8,255.6 251.3,255.2 250.8,254.8 250.3,254.4 249.9,253.9 249.6,253.3 249.4,252.7 
			249.2,252.1 249.1,251.5 249.1,250.8 249.2,250.2 249.3,249.5 249.5,248.9 249.8,248.2 250.1,247.6 250.5,247 251,246.4 
			251.5,245.9 252.1,245.4 252.7,244.9 253.4,244.4 254.2,244 254.9,243.7 255.7,243.4 256.5,243.2 257.2,243.1 258,243 258.7,243 
			259.5,243 260.2,243.1 260.8,243.3 261.4,243.5 262.1,243.8 262.6,244.1 263.1,244.5 263.5,245 263.9,245.5 264.2,246.1 
			264.5,246.7 264.7,247.3 264.7,247.9 264.7,248.5 264.7,249.2 264.5,249.8 264.3,250.5 264,251.1 263.7,251.7 263.3,252.3 
			262.9,252.9 262.3,253.5 261.8,254 261.1,254.5 260.4,254.9 		"/>
		<polygon class="st12" points="255.4,246.6 256.2,246.2 256.9,245.9 257.7,245.8 258.4,245.9 259.1,246 259.7,246.3 260.2,246.6 
			260.5,247.1 260.8,247.7 260.8,248.3 260.7,249 260.5,249.6 260.1,250.2 259.6,250.8 259,251.4 258.2,251.9 257.5,252.2 
			256.7,252.4 255.9,252.5 255.1,252.5 254.5,252.4 253.9,252.1 253.4,251.7 253,251.2 252.8,250.7 252.8,250.1 252.9,249.4 
			253.1,248.8 253.5,248.1 254,247.6 254.6,247 		"/>
		<path class="st13" d="M257,260l0.3,0.6l0.1,0.6l0.1,0.6l0.3,0.6l0.1,0.2l0.1,0.1l0.2,0.1l0.2,0.1l0.2,0.1h0.3h0.3h0.3l-0.1,0.7
			l0.1,0.6l0.3,0.5l0.4,0.4l0.5,0.4l0.6,0.3l0.6,0.3l0.6,0.2 M259.3,263.4v0.5l-0.1,0.5l-0.2,0.5l-0.1,0.5v0.5l0.1,0.6l0.1,0.6v0.5
			 M258.9,266.6h-0.3l-0.2,0.1l-0.2,0.1L258,267l-0.1,0.2l-0.1,0.3l-0.1,0.3l-0.1,0.3 M252,259.6v0.5v0.5l-0.1,0.5l-0.2,0.5
			l-0.1,0.4l0.1,0.5v0.5v0.4l-0.1,0.1l-0.1,0.1l-0.1,0.1l-0.1,0.1v1l0.1,0.9l0.2,0.9l0.3,0.9 M251.5,264.1l-0.5,0.2l-0.3,0.3
			l-0.2,0.4l-0.1,0.5v0.5v0.5l-0.1,0.5l-0.2,0.4 M250.5,266.2h-0.2h-0.2h-0.2h-0.2h-0.2h-0.2h-0.2h-0.2v0.1v0.2v0.3v0.3
			 M251.8,261.7l0.1,0.2l0.1,0.2l0.2,0.2l0.2,0.2l0.2,0.2l0.3,0.2l0.3,0.1l0.3,0.1l0.5,0.4l0.1,0.7v0.9l0.1,0.8 M248.1,259l-0.2,0.4
			l-0.3,0.4l-0.3,0.4l-0.3,0.5l-0.3,0.5l-0.2,0.5l-0.2,0.5v0.6l-0.1,0.2l-0.1,0.2l-0.2,0.2l-0.3,0.1l-0.1,0.2v0.2v0.3v0.3
			 M246.7,261.4h-0.4H246h-0.4l-0.3,0.1l-0.3,0.1l-0.2,0.2l-0.1,0.3v0.4 M245,261.4h-0.3h-0.2h-0.2H244 M247.4,260.3h0.1l0.1,0.1
			l0.1,0.1h0.1v0.3v0.3v0.3v0.3 M245.3,256.4H245l-0.3,0.1l-0.3,0.1l-0.3,0.1l-0.2,0.2l-0.1,0.3l-0.1,0.3v0.3 M244.1,256.8h-0.3
			h-0.2h-0.2h-0.3v-0.4H243l0,0h-0.1h-0.1 M245.3,253.1h-0.2h-0.2h-0.2h-0.2h-0.3H244h-0.2h-0.2v0.4l0,0h-0.1h-0.1h-0.1
			 M244.5,253.1h-0.1l-0.1-0.1l-0.1-0.1h-0.1v-0.3l0,0H244h-0.1h-0.1 M243.6,256.6l-0.1-0.1v-0.2v-0.1h-0.1 M245,250.2h-0.1h-0.1
			h-0.1h-0.1 M262.7,258.6l0.6,0.3l0.6,0.4l0.5,0.4l0.5,0.4l0.6,0.3l0.6,0.3l0.7,0.1l0.7-0.1v0.1v0.2v0.2v0.1l0.1,0.2l0.1,0.2
			l0.2,0.1l0.2,0.1l0.2,0.1l0.3,0.1l0.2,0.1l0.3,0.1l0.3,0.1l0.2,0.3l0.1,0.4v0.5 M267.8,261.7l-0.5,0.7l-0.3,0.8v0.8l0.3,0.8
			l0.2,0.2l0.3,0.3l0.3,0.3l0.2,0.4 M267.5,265.2v0.5v0.5v0.5v0.5 M262,266.4l-0.3,0.6l-0.1,0.6l0.1,0.7l0.1,0.7 M252,267.4h0.3h0.3
			l0.3,0.1l0.3,0.1l0.2,0.1l0.2,0.2l0.2,0.2l0.1,0.3l0.1,0.3v0.4v0.4v0.4 M253.7,268.8l-0.2,0.2l-0.2,0.1l-0.3,0.1l-0.3,0.2
			l-0.2,0.2l-0.2,0.2l-0.1,0.3v0.3 M264.2,259.8v0.6v0.6v0.6v0.6 M266.9,253.7l0.6,0.2l0.6,0.2l0.6,0.3l0.6,0.3l0.5,0.3l0.6,0.2
			l0.6,0.1h0.6l0.3,0.1l0.1,0.3l0.1,0.4l0.3,0.2h0.3h0.3h0.3h0.3h0.3h0.3h0.3l0.3,0.1l0.3,0.1l0.2,0.2l0.3,0.2l0.3,0.1 M269.9,254.9
			v0.7l-0.1,0.7l-0.1,0.6l0.3,0.4l0.3,0.3l0.3,0.3l0.2,0.2l0.3,0.1l0.3,0.2l0.3,0.2l0.3,0.2l0.3,0.2l0.3,0.2l0.2,0.2l0.2,0.2
			l0.2,0.3 M271.1,258.1v0.4v0.5v0.5l0.1,0.4l0.1,0.1h0.1h0.2h0.1 M273.7,256.4v0.3v0.3l0.1,0.3l0.1,0.3l0.1,0.2l0.2,0.2l0.3,0.2
			l0.3,0.1 M271.4,255l0.3-0.1h0.2h0.3l0.2-0.1h0.2l0.3-0.1l0.3-0.1l0.3-0.1h0.1h0.1h0.1h0.1h0.1h0.1h0.2h0.2 M269.9,250.2h0.4h0.4
			h0.4h0.4h0.4h0.4h0.4h0.4h0.4h0.4h0.4h0.4h0.4h0.4h0.4h0.4 M273.7,249.9v-0.3l0.1-0.3l0.1-0.2l0.2-0.2l0.3-0.2l0.2-0.2l0.3-0.2
			l0.2-0.3 M272.3,250.2v0.5l0.1,0.4l0.2,0.4l0.3,0.3l0.3,0.1h0.4h0.4h0.4h0.3h0.4l0.4,0.1l0.3,0.2 M271.1,250v-0.3l0.1-0.2l0.2-0.1
			l0.2-0.1 M270.1,245.6l0.4-0.3l0.4-0.2l0.4-0.1l0.5-0.1h0.5h0.5h0.5l0.5-0.1 M272.1,244.7l0.1-0.3l0.2-0.3l0.3-0.1l0.3-0.1
			 M268.5,242.8v-0.1v-0.1v-0.1l0,0l0.3-0.1l0.3-0.1l0.3-0.1l0.3-0.1l0.3-0.1l0.3-0.1l0.2-0.1l0.2-0.2 M266.2,241.1l0.2-0.1l0.2-0.1
			l0.2-0.1l0.2-0.1l0.2-0.1l0.2-0.1h0.2h0.3 M269.3,242.3l0.1-0.3v-0.3v-0.3l0.1-0.3 M266.8,240.7h0.1h0.2h0.2h0.2 M264.7,240.1V240
			v-0.1v-0.1l0.1-0.1h0.1h0.1h0.1h0.1 M271.1,245.2l0.2,0.1l0.1,0.1l0.1,0.1l0.1,0.1l0.1,0.1l0.1,0.1h0.2h0.2 M274.3,248.7h0.1h0.1
			h0.2h0.1h0.1h0.2h0.1h0.1 M269.7,263.1h0.3h0.3h0.3h0.3h0.3h0.3h0.3h0.3l0,0v0.1v0.1v0.1 M261.8,267.7h0.3h0.3h0.3h0.2h0.3
			l0.2,0.1l0.2,0.1l0.2,0.2"/>
	</g>
</g>
</svg>
